<svg width="138" height="138" viewBox="0 0 138 138" fill="none" xmlns="http://www.w3.org/2000/svg">
<path fill-rule="evenodd" clip-rule="evenodd" d="M20.2363 91.1807H22.4363V81.7317H20.2363V91.1807Z" fill="#FEDEB6"/>
<path fill-rule="evenodd" clip-rule="evenodd" d="M16.6133 87.555H26.0623V85.355H16.6133V87.555Z" fill="#FEDEB6"/>
<path fill-rule="evenodd" clip-rule="evenodd" d="M119.297 97.3686L112.615 90.6872L114.171 89.1318L120.852 95.8132L119.297 97.3686Z" fill="#CDF1EF"/>
<path fill-rule="evenodd" clip-rule="evenodd" d="M114.171 97.3686L112.615 95.8132L119.297 89.1318L120.852 90.6872L114.171 97.3686Z" fill="#CDF1EF"/>
<path fill-rule="evenodd" clip-rule="evenodd" d="M40.3132 13.0998L38.7578 14.6552L45.4392 21.3366L46.9946 19.7834L40.3132 13.0998Z" fill="#CDF1EF"/>
<path fill-rule="evenodd" clip-rule="evenodd" d="M45.4392 13.0998L38.7578 19.7834L40.3132 21.3366L46.9946 14.6552L45.4392 13.0998Z" fill="#CDF1EF"/>
<path fill-rule="evenodd" clip-rule="evenodd" d="M127.724 80.0156C126.648 80.0156 125.64 79.3556 124.961 78.2094C124.697 77.7628 124.364 77.4834 124.094 77.4834H123.242C122.972 77.4834 122.64 77.7606 122.376 78.2094C121.694 79.3578 120.688 80.0156 119.612 80.0156H118.763C117.687 80.0156 116.682 79.3578 116.002 78.2116C115.736 77.7606 115.402 77.4834 115.131 77.4834H114.284C114.013 77.4834 113.679 77.7606 113.415 78.2094C112.733 79.3578 111.728 80.0156 110.652 80.0156H109.803C108.727 80.0156 107.721 79.3578 107.042 78.2116C106.775 77.7606 106.443 77.4834 106.173 77.4834H105.748V75.2834H106.173C107.248 75.2834 108.254 75.939 108.934 77.0896C109.198 77.5362 109.532 77.8156 109.803 77.8156H110.652C110.92 77.8156 111.257 77.5362 111.523 77.0874C112.198 75.939 113.206 75.2834 114.284 75.2834H115.131C116.209 75.2834 117.217 75.939 117.894 77.0896C118.158 77.5362 118.495 77.8156 118.763 77.8156H119.612C119.883 77.8156 120.217 77.5362 120.484 77.0874C121.161 75.939 122.167 75.2834 123.242 75.2834H124.094C125.167 75.2834 126.173 75.939 126.853 77.0874C127.121 77.5362 127.453 77.8156 127.724 77.8156V80.0156Z" fill="#FEDEB6"/>
<path fill-rule="evenodd" clip-rule="evenodd" d="M98.9517 19.0794C97.5503 19.0794 96.4129 20.219 96.4129 21.6182C96.4129 23.0174 97.5503 24.157 98.9517 24.157C100.351 24.157 101.488 23.0174 101.488 21.6182C101.488 20.219 100.351 19.0794 98.9517 19.0794ZM98.9517 26.357C96.3403 26.357 94.2129 24.2318 94.2129 21.6182C94.2129 19.0068 96.3403 16.8794 98.9517 16.8794C101.563 16.8794 103.688 19.0068 103.688 21.6182C103.688 24.2318 101.563 26.357 98.9517 26.357Z" fill="#FEDEB6"/>
<path fill-rule="evenodd" clip-rule="evenodd" d="M14.7366 56.5419C13.3374 56.5419 12.2 57.6815 12.2 59.0785C12.2 60.4799 13.3374 61.6195 14.7366 61.6195C16.138 61.6195 17.2754 60.4799 17.2754 59.0785C17.2754 57.6815 16.138 56.5419 14.7366 56.5419ZM14.7366 63.8195C12.1252 63.8195 10 61.6921 10 59.0785C10 56.4671 12.1252 54.3419 14.7366 54.3419C17.348 54.3419 19.4754 56.4671 19.4754 59.0785C19.4754 61.6921 17.348 63.8195 14.7366 63.8195Z" fill="#CDF1EF"/>
<mask id="mask0" mask-type="alpha" maskUnits="userSpaceOnUse" x="10" y="13" width="118" height="112">
<path fill-rule="evenodd" clip-rule="evenodd" d="M10 124.073H127.724V13.1005H10V124.073Z" fill="white"/>
</mask>
<g mask="url(#mask0)">
<path fill-rule="evenodd" clip-rule="evenodd" d="M26.5262 44.4175H30.6248V40.3189H26.5262V44.4175ZM24.3262 46.6175H32.8248V38.1189H24.3262V46.6175Z" fill="#FEDEB6"/>
<path fill-rule="evenodd" clip-rule="evenodd" d="M115.341 56.5725H119.439V52.4739H115.341V56.5725ZM113.141 58.7725H121.639V50.2739H113.141V58.7725Z" fill="#CDF1EF"/>
<path fill-rule="evenodd" clip-rule="evenodd" d="M53.252 93.9328H68.113V91.7328H53.252V93.9328Z" fill="#022C48"/>
<path fill-rule="evenodd" clip-rule="evenodd" d="M77.8828 93.9328H89.369V91.7328H77.8828V93.9328Z" fill="#1DB9B2"/>
<path fill-rule="evenodd" clip-rule="evenodd" d="M43.9648 99.3295H55.451V97.1295H43.9648V99.3295Z" fill="#1DB9B2"/>
<path fill-rule="evenodd" clip-rule="evenodd" d="M47.4434 93.9328H50.1428V91.7328H47.4434V93.9328Z" fill="#022C48"/>
<path fill-rule="evenodd" clip-rule="evenodd" d="M71.6289 93.9328H74.3283V91.7328H71.6289V93.9328Z" fill="#022C48"/>
<path fill-rule="evenodd" clip-rule="evenodd" d="M62.6893 102.529H70.6445L71.9469 99.3303H61.3869L62.6893 102.529ZM72.1229 104.729H61.2109L58.1133 97.1303H75.2205L72.1229 104.729Z" fill="#1DB9B2"/>
<path fill-rule="evenodd" clip-rule="evenodd" d="M80.0831 87.4343H77.8831V84.8625C77.8831 77.4573 80.5671 73.0419 84.8967 68.3207C88.9557 63.8921 91.1909 58.0489 91.1909 51.8691C91.1909 44.9743 88.4409 38.5877 83.4447 33.8841C78.4815 29.2135 71.9365 26.8661 65.1297 27.2841C52.7855 28.0277 42.7161 38.3501 42.2079 50.7867C41.9417 57.3097 44.1043 63.4763 48.2975 68.1513C52.9373 73.3301 55.4519 77.4331 55.4519 84.2905V87.4343H53.2519V84.2905C53.2519 78.1085 51.0321 74.4983 46.6607 69.6209C42.0825 64.5147 39.7197 57.7937 40.0079 50.6965C40.5623 37.1489 51.5381 25.8981 64.9977 25.0885C72.4887 24.6397 79.5485 27.1939 84.9539 32.2847C90.3153 37.3337 93.3909 44.4727 93.3909 51.8691C93.3909 58.6011 90.9489 64.9701 86.5181 69.8057C81.7683 74.9889 80.0831 78.9291 80.0831 84.8625V87.4343Z" fill="#022C48"/>
<path fill-rule="evenodd" clip-rule="evenodd" d="M80.0832 99.3301H53.252V86.3347H55.452V97.1301H77.8832V86.3347H80.0832V99.3301Z" fill="#1DB9B2"/>
<path fill-rule="evenodd" clip-rule="evenodd" d="M85.0538 88.5343H65.5684V70.1313H67.7684V86.3343H85.0538V88.5343Z" fill="#09B9B3"/>
<path fill-rule="evenodd" clip-rule="evenodd" d="M50.1406 88.534H62.5618V86.334H50.1406V88.534Z" fill="#09B9B3"/>
<path fill-rule="evenodd" clip-rule="evenodd" d="M65.5513 69.787C66.3037 69.8332 67.0737 69.8332 67.8261 69.787L69.5817 64.8502L70.1405 64.7006C71.2647 64.4014 72.3361 63.9614 73.3261 63.3916L73.8277 63.1056L78.5555 65.3518C79.1451 64.8392 79.6973 64.2892 80.2077 63.7084L77.9615 58.985L78.2497 58.4812C78.8283 57.4868 79.2749 56.4088 79.5807 55.278L79.7281 54.7192L84.6693 52.9658C84.6935 52.5808 84.7067 52.1936 84.7067 51.8042C84.7067 51.4126 84.6935 51.0276 84.6693 50.6448L79.7281 48.887L79.5807 48.3304C79.2749 47.1952 78.8283 46.1194 78.2497 45.1272L77.9615 44.6256L80.2077 39.9C79.6973 39.3214 79.1451 38.7692 78.5555 38.2544L73.8277 40.5028L73.3261 40.2168C72.3361 39.6492 71.2647 39.2092 70.1405 38.9078L69.5817 38.7582L67.8261 33.8214C67.0737 33.7752 66.3037 33.7752 65.5513 33.8214L63.7957 38.7582L63.2369 38.91C62.1149 39.207 61.0435 39.647 60.0513 40.2168L59.5497 40.5028L54.8219 38.2544C54.2323 38.7692 53.6801 39.3214 53.1697 39.9L55.4181 44.6256L55.1277 45.1272C54.5491 46.1194 54.1025 47.1974 53.7967 48.3304L53.6493 48.8892L48.7081 50.6448C48.6839 51.0298 48.6707 51.4148 48.6707 51.8042C48.6707 52.1936 48.6839 52.5808 48.7081 52.9658L53.6493 54.7192L53.7967 55.278C54.1025 56.4088 54.5491 57.4868 55.1277 58.4812L55.4181 58.985L53.1697 63.7084C53.6801 64.2892 54.2323 64.8392 54.8219 65.3518L59.5497 63.1056L60.0513 63.3916C61.0391 63.9614 62.1127 64.4014 63.2347 64.7006L63.7935 64.8502L65.5513 69.787ZM66.6887 72.0222C65.9979 72.0222 65.3181 71.987 64.6427 71.9188L63.9475 71.8484L62.1061 66.6652C61.1909 66.3814 60.3065 66.0184 59.4661 65.5806L54.5007 67.9412L53.9595 67.5056C52.8771 66.6256 51.8871 65.6378 51.0203 64.573L50.5803 64.034L52.9409 59.073C52.4899 58.2282 52.1225 57.3372 51.8365 56.411L46.6445 54.5652L46.5763 53.8722C46.5081 53.1924 46.4707 52.5038 46.4707 51.8042C46.4707 51.1068 46.5081 50.416 46.5763 49.7384L46.6445 49.0432L51.8365 47.1974C52.1225 46.2734 52.4899 45.3802 52.9409 44.5354L50.5803 39.5766L51.0203 39.0354C51.8871 37.9728 52.8749 36.985 53.9595 36.1028L54.5007 35.665L59.4683 38.0278C60.3087 37.5878 61.1931 37.2248 62.1083 36.9432L63.9475 31.76L64.6427 31.6918C65.9935 31.5532 67.3883 31.5576 68.7347 31.6896L69.4299 31.7578L71.2713 36.9432C72.1887 37.2248 73.0709 37.5878 73.9113 38.0256L78.8789 35.665L79.4179 36.1028C80.5025 36.9872 81.4925 37.9728 82.3593 39.0332L82.7971 39.5744L80.4387 44.5354C80.8875 45.3802 81.2571 46.2734 81.5431 47.1952L86.7329 49.0432L86.8011 49.7362C86.8693 50.416 86.9067 51.1068 86.9067 51.8042C86.9067 52.5038 86.8693 53.1924 86.8011 53.8722L86.7329 54.5652L81.5431 56.411C81.2571 57.3372 80.8875 58.2282 80.4387 59.073L82.7971 64.034L82.3593 64.573C81.4903 65.6378 80.5003 66.6256 79.4179 67.5056L78.8789 67.9412L73.9113 65.5806C73.0709 66.0206 72.1887 66.3836 71.2713 66.6652L69.4299 71.8484L68.7347 71.9188C68.0637 71.987 67.3795 72.0222 66.6887 72.0222Z" fill="#FFC882"/>
<path fill-rule="evenodd" clip-rule="evenodd" d="M56.6816 52.9051H59.073V50.7051H56.6816V52.9051Z" fill="#09B9B3"/>
<path fill-rule="evenodd" clip-rule="evenodd" d="M74.3066 52.9051H76.698V50.7051H74.3066V52.9051Z" fill="#09B9B3"/>
<path fill-rule="evenodd" clip-rule="evenodd" d="M63.2017 57.687V55.487H67.9823L67.9801 53.5906L63.1995 51.4412L63.1973 45.9214L70.1779 45.9192V48.1192L65.3973 48.1214L65.3995 50.02L70.1801 52.1672L70.1823 57.687H63.2017Z" fill="#022C48"/>
<path fill-rule="evenodd" clip-rule="evenodd" d="M65.6152 60.1739H67.8152V56.5857H65.6152V60.1739Z" fill="#022C48"/>
<path fill-rule="evenodd" clip-rule="evenodd" d="M65.6152 47.0201H67.8152V43.4341H65.6152V47.0201Z" fill="#022C48"/>
<path fill-rule="evenodd" clip-rule="evenodd" d="M28.0625 104.728H105.181V102.528H28.0625V104.728Z" fill="#1DB9B2"/>
<path fill-rule="evenodd" clip-rule="evenodd" d="M23.002 104.728H25.4528V102.528H23.002V104.728Z" fill="#022C48"/>
<path fill-rule="evenodd" clip-rule="evenodd" d="M107.881 104.728H110.334V102.528H107.881V104.728Z" fill="#022C48"/>
<path fill-rule="evenodd" clip-rule="evenodd" d="M96.4106 120.946C96.4106 122.673 83.3052 124.074 67.1396 124.074C50.9762 124.074 37.873 122.673 37.873 120.946C37.873 119.219 50.9762 117.819 67.1396 117.819C83.3052 117.819 96.4106 119.219 96.4106 120.946Z" fill="#CDF1EF"/>
</g>
</svg>
