<svg width="439" height="487" viewBox="0 0 439 487" fill="none" xmlns="http://www.w3.org/2000/svg">
<path opacity="0.25" fill-rule="evenodd" clip-rule="evenodd" d="M12.451 151.907C8.22107 142.435 9.06308 131.59 14.7046 122.877C20.3399 114.148 29.8623 108.959 40.2703 108.949L298.54 108.963C314.857 108.965 329.658 118.569 336.321 133.49L426.226 334.844C430.456 344.316 429.614 355.161 423.971 363.874C418.336 372.604 408.815 377.792 398.407 377.803L140.136 377.789C123.818 377.787 109.019 368.183 102.355 353.262L12.451 151.907Z" fill="#FFC882"/>
<g clip-path="url(#clip0)">
<path d="M283.676 458.447C283.678 456.997 262.763 455.787 236.96 455.746C211.158 455.705 190.239 456.847 190.237 458.298C190.234 459.748 211.149 460.958 236.952 460.999C262.754 461.04 283.673 459.898 283.676 458.447Z" fill="#E6E6E6"/>
<path d="M231.056 364.376C203.426 364.376 176.65 354.795 155.291 337.264C133.933 319.734 119.312 295.339 113.922 268.236C108.531 241.134 112.704 213 125.729 188.63C138.754 164.259 159.825 145.159 185.352 134.584C210.88 124.009 239.283 122.613 265.724 130.635C292.165 138.657 315.007 155.599 330.357 178.575C345.708 201.552 352.618 229.141 349.91 256.641C347.201 284.142 335.042 309.853 315.505 329.392C304.441 340.518 291.28 349.339 276.784 355.344C262.289 361.349 246.746 364.419 231.056 364.376ZM231.056 126.445C165.728 126.445 112.58 179.599 112.58 244.934C112.58 310.269 165.728 363.423 231.056 363.423C296.384 363.423 349.532 310.269 349.532 244.934C349.532 179.599 296.384 126.445 231.056 126.445Z" fill="white" stroke="white"/>
<path d="M164.393 248.789H155.328V280.169H164.393V248.789Z" fill="#00A6A0"/>
<path d="M170.38 274.266L148.333 248.036L104.08 248.44L77.2344 274.591L77.777 274.94H77.5831V329.333H170.32V274.94L170.38 274.266Z" fill="#66D0C5"/>
<path d="M148.357 248.091L120.814 280.385V329.333H170.321V274.242L148.357 248.091Z" fill="#00A6A0"/>
<path d="M150.796 302.264H140.686V311.202H150.796V302.264Z" fill="#3F3D56"/>
<path d="M150.796 286.794H140.686V295.59H150.796V286.794Z" fill="#3F3D56"/>
<path d="M150.796 302.264H140.686V311.202H150.796V302.264Z" fill="white"/>
<path d="M150.796 286.794H140.686V295.59H150.796V286.794Z" fill="white"/>
<path d="M105.864 299.893H95.7539V308.83H105.864V299.893Z" fill="#3F3D56"/>
<path d="M105.864 284.423H95.7539V293.219H105.864V284.423Z" fill="#3F3D56"/>
<path d="M105.864 299.893H95.7539V308.83H105.864V299.893Z" fill="white"/>
<path d="M105.864 284.423H95.7539V293.219H105.864V284.423Z" fill="white"/>
<path d="M308.141 110.753H299.076V142.134H308.141V110.753Z" fill="#002B49"/>
<path opacity="0.6" d="M293.149 136.904V222.743H385.886V136.904H385.693L386.235 136.555L359.39 110.405L315.136 110L293.09 136.231L293.149 136.904Z" fill="#668092"/>
<path d="M293.148 136.207V222.743H342.655V142.35L315.112 110.056L293.148 136.207Z" fill="#002B49"/>
<path d="M322.782 164.229H312.672V173.166H322.782V164.229Z" fill="#3F3D56"/>
<path d="M322.782 148.759H312.672V157.555H322.782V148.759Z" fill="#3F3D56"/>
<path d="M322.782 164.229H312.672V173.166H322.782V164.229Z" fill="white"/>
<path d="M322.782 148.759H312.672V157.555H322.782V148.759Z" fill="white"/>
<path d="M367.714 161.857H357.604V170.795H367.714V161.857Z" fill="#3F3D56"/>
<path d="M367.714 146.387H357.604V155.183H367.714V146.387Z" fill="#3F3D56"/>
<path d="M367.714 161.857H357.604V170.795H367.714V161.857Z" fill="white"/>
<path d="M367.714 146.387H357.604V155.183H367.714V146.387Z" fill="white"/>
<path d="M322.782 195.674H312.672V204.612H322.782V195.674Z" fill="white"/>
<path d="M322.782 180.204H312.672V189H322.782V180.204Z" fill="white"/>
<path d="M367.714 193.303H357.604V202.24H367.714V193.303Z" fill="white"/>
<path d="M367.714 177.833H357.604V186.629H367.714V177.833Z" fill="white"/>
<path d="M236.555 210.327C244.603 210.327 251.127 203.802 251.127 195.753C251.127 187.704 244.603 181.179 236.555 181.179C228.507 181.179 221.982 187.704 221.982 195.753C221.982 203.802 228.507 210.327 236.555 210.327Z" fill="#A0616A"/>
<path d="M221.59 222.144L246.402 221.75C244.268 215.869 243.343 210.362 244.827 205.601L225.922 203.631C228.477 209.802 227.032 215.973 221.59 222.144Z" fill="#A0616A"/>
<path d="M199.927 319.83L204.048 330.819C204.401 331.762 204.536 332.773 204.442 333.775C204.349 334.778 204.028 335.746 203.506 336.607C202.984 337.468 202.273 338.199 201.427 338.746C200.581 339.292 199.623 339.639 198.623 339.761C197.667 339.878 196.697 339.785 195.78 339.49C194.863 339.195 194.021 338.704 193.312 338.052C192.603 337.4 192.044 336.601 191.674 335.711C191.304 334.822 191.132 333.863 191.169 332.9L191.656 320.224L195.201 255.231L209.774 259.564L199.927 319.83Z" fill="#A0616A"/>
<path d="M215.288 441.938L227.104 440.756L237.738 337.556L252.704 442.726L263.732 442.332L266.489 326.92H213.713L215.288 441.938Z" fill="#002B49"/>
<path d="M253.885 190.239C253.885 190.239 249.946 198.904 247.189 199.298C244.432 199.692 239.706 204.025 240.494 205.994C241.282 207.964 240.888 213.872 233.011 213.085C225.134 212.297 225.528 211.509 225.528 211.509C225.528 211.509 212.924 187.481 225.921 181.179C238.918 174.877 250.34 179.603 253.885 190.239Z" fill="#2F2E41"/>
<path d="M264.334 436.694L263.86 446.636C263.86 446.636 271.075 457.891 262.081 457.891C261.991 457.891 262.17 457.891 262.081 457.891C255.576 457.87 249.697 460.798 250.466 454.338L251.552 445.216L253.446 435.274L264.334 436.694Z" fill="black"/>
<path d="M215.386 436.694L215.859 446.636C215.859 446.636 208.644 457.891 217.638 457.891C217.728 457.891 217.55 457.891 217.638 457.891C224.143 457.87 230.022 460.798 229.253 454.338L228.167 445.216L226.274 435.274L215.386 436.694Z" fill="black"/>
<path d="M209.379 331.647L268.063 328.89C257.119 293.765 257.038 265.024 270.82 238.559C270.82 235.79 270.009 233.082 268.487 230.77C266.965 228.457 264.799 226.64 262.257 225.545L245.22 218.205L223.558 219.387L209.264 227.249C206.465 228.789 204.156 231.085 202.601 233.876C201.046 236.667 200.308 239.839 200.471 243.03C212.985 272.905 213.7 302.365 209.379 331.647Z" fill="#F96459"/>
<path d="M220.014 263.109L187.324 257.595L192.71 244.222C194.604 239.519 197.49 235.281 201.171 231.796C204.852 228.311 209.241 225.661 214.04 224.027L217.257 222.932L220.014 263.109Z" fill="#F96459"/>
<path d="M322.554 233.044L332.617 228.851C333.635 228.427 334.549 227.785 335.293 226.972C336.038 226.158 336.597 225.192 336.93 224.14C337.263 223.089 337.363 221.977 337.222 220.883C337.082 219.788 336.704 218.738 336.116 217.805C335.483 216.8 334.623 215.959 333.605 215.347C332.588 214.736 331.441 214.372 330.257 214.285C329.073 214.198 327.885 214.39 326.789 214.845C325.693 215.301 324.719 216.008 323.945 216.909L316.478 225.608L287.21 246.613L267.314 238.353L264.943 254.857L289.801 261.332L322.554 233.044Z" fill="#A0616A"/>
<path d="M269.514 261.25L285.712 246.003L281.425 240.762C277.592 231.246 268.782 227.333 259.072 224.027L255.855 222.932L253.316 248.862L269.514 261.25Z" fill="#F96459"/>
</g>
<defs>
<clipPath id="clip0">
<rect width="309" height="351" fill="white" transform="translate(77.2344 110)"/>
</clipPath>
</defs>
</svg>
