<svg width="189" height="162" viewBox="0 0 189 162" fill="none" xmlns="http://www.w3.org/2000/svg">
<g clip-path="url(#clip0)">
<path opacity="0.1" fill-rule="evenodd" clip-rule="evenodd" d="M132.409 159.314C132.739 159.666 133.089 159.999 133.457 160.31L132.409 161.241C148.034 163.481 163.942 159.997 177.205 151.428C181.31 148.753 185.227 145.466 187.354 141.049C190.24 135.053 189.231 127.46 185.11 122.238C183.617 120.346 181.751 118.781 179.665 117.589C179.683 117.746 179.625 117.911 179.456 118.049C171.04 124.908 163.718 133.011 157.741 142.08C153.908 147.885 150.653 154.052 148.021 160.494C147.722 161.228 146.517 160.905 146.819 160.162C150.957 149.974 156.63 140.482 163.64 132.016C168.12 126.587 173.122 121.614 178.575 117.166C178.62 117.13 178.666 117.101 178.713 117.078C175.252 115.34 171.278 114.586 167.422 115.008C160.814 115.731 154.717 119.771 151.196 125.417C147.308 131.653 146.56 139.282 145.911 146.604C144.732 142.806 140.305 140.486 136.423 141.324C134.92 141.649 133.551 142.391 132.409 143.408C131.267 142.391 129.897 141.649 128.395 141.324C124.512 140.486 120.086 142.806 118.906 146.604C118.257 139.282 117.509 131.653 113.621 125.417C110.101 119.771 104.003 115.731 97.3951 115.008C93.5396 114.586 89.5653 115.34 86.1046 117.078C86.1515 117.101 86.1976 117.13 86.2424 117.166C91.6951 121.614 96.6973 126.587 101.177 132.016C108.187 140.482 113.86 149.974 117.998 160.162C118.301 160.905 117.095 161.228 116.796 160.494C110.026 143.937 99.218 129.344 85.361 118.049C85.1921 117.911 85.1344 117.746 85.1523 117.589C83.0662 118.781 81.2008 120.346 79.7078 122.238C75.5864 127.46 74.5773 135.053 77.4638 141.049C79.5902 145.466 83.5077 148.753 87.6123 151.428C100.876 159.997 116.784 163.481 132.409 161.241L131.361 160.31C131.728 159.999 132.078 159.666 132.409 159.314Z" fill="#065143"/>
<path opacity="0.2" d="M122.357 72.8753C116.744 72.8753 112.194 68.3192 112.194 62.699C112.194 57.0788 116.744 52.5227 122.357 52.5227C127.97 52.5227 132.52 57.0788 132.52 62.699C132.52 68.3192 127.97 72.8753 122.357 72.8753Z" fill="#C7C9C7"/>
<path opacity="0.2" d="M153.693 27.6196H83.6723V31.4555H144.754C148.346 31.4555 151.902 32.1638 155.22 33.54C158.538 34.9161 161.553 36.9332 164.092 39.476C166.632 42.0188 168.646 45.0375 170.021 48.3598C171.395 51.6822 172.102 55.243 172.102 58.8391V102.419H179.764C180.103 102.419 180.428 102.285 180.667 102.045C180.906 101.805 181.041 101.48 181.041 101.141V55.0032C181.041 51.4071 180.334 47.8463 178.959 44.5239C177.585 41.2016 175.57 38.1829 173.031 35.6401C170.491 33.0973 167.477 31.0802 164.159 29.7041C160.841 28.3279 157.284 27.6196 153.693 27.6196Z" fill="#C7C9C7"/>
<path d="M122.358 67.9514C123.922 67.9496 125.422 67.3265 126.528 66.2188C127.635 65.111 128.257 63.6091 128.259 62.0425V19.696C128.259 19.4349 128.363 19.1846 128.547 19C128.731 18.8154 128.981 18.7115 129.242 18.7112H152.191C152.626 18.7107 153.042 18.5377 153.35 18.23C153.657 17.9223 153.83 17.5051 153.83 17.0699V1.64134C153.83 1.20618 153.657 0.788993 153.35 0.481291C153.042 0.17359 152.626 0.000503904 152.191 0H118.096C117.661 0.000497835 117.244 0.173584 116.937 0.481286C116.63 0.788989 116.457 1.20618 116.456 1.64134V62.0425C116.458 63.6091 117.08 65.111 118.187 66.2188C119.293 67.3265 120.793 67.9496 122.358 67.9514Z" fill="#F96459"/>
<path fill-rule="evenodd" clip-rule="evenodd" d="M68.18 30.0614C71.6845 26.5671 76.4318 24.6098 81.3775 24.6202C83.0612 24.6166 84.7218 24.8411 86.3183 25.2767H156.235C163.768 25.2852 170.99 28.2853 176.316 33.6188C181.643 38.9522 184.639 46.1835 184.647 53.7262V101.106C184.647 101.542 184.474 101.959 184.167 102.267C183.859 102.574 183.443 102.747 183.008 102.748H140.225V160.523C140.225 160.915 140.069 161.29 139.792 161.567C139.516 161.844 139.141 162 138.75 162H124.653C124.261 162 123.887 161.844 123.61 161.567C123.333 161.29 123.178 160.915 123.177 160.523V102.748H84.0001L20.3991 102.748C20.4022 101.271 20.9911 99.8556 22.0363 98.8135C23.0815 97.7713 24.4973 97.1875 25.9724 97.1906H62.6906V43.2531C62.7009 38.301 64.6756 33.5558 68.18 30.0614ZM88.2861 25.9332C90.6184 26.8586 92.7628 28.2545 94.5749 30.0614C98.0794 33.5558 100.054 38.301 100.064 43.2531V102.091H183.008C183.269 102.091 183.519 101.987 183.703 101.803C183.888 101.618 183.991 101.368 183.992 101.106V53.7262C183.983 46.3576 181.056 39.2932 175.853 34.0828C170.649 28.8724 163.594 25.9416 156.235 25.9332H88.2861Z" fill="#002B49"/>
<path d="M85.8615 55.3352L81.9921 71.3402L6.29979 52.9928L10.1693 36.9878C10.216 36.7921 10.3114 36.6114 10.4465 36.4625C10.5816 36.3136 10.7521 36.2012 10.9422 36.1359C11.0825 36.0865 11.2309 36.0642 11.3795 36.07L55.1329 13.3861C55.3893 13.255 55.684 13.22 55.964 13.2874C56.2439 13.3548 56.4905 13.5201 56.6594 13.7535L77.7461 43.1971L85.6956 54.3C85.71 54.3194 85.7201 54.3418 85.7251 54.3655C85.7301 54.3892 85.73 54.4137 85.7247 54.4373C85.8865 54.7069 85.9357 55.0295 85.8615 55.3352Z" fill="white"/>
<path d="M85.7247 54.4373C85.721 54.4581 85.7132 54.478 85.7017 54.4958C85.6903 54.5136 85.6755 54.5289 85.6581 54.541C85.6376 54.5551 85.6144 54.5648 85.59 54.5696C85.5655 54.5745 85.5404 54.5743 85.5161 54.569C85.4765 54.5585 85.4418 54.5344 85.4181 54.501L85.3908 54.4631L84.9769 53.8836L77.4598 43.3907L56.3794 13.9539C56.2591 13.7871 56.0831 13.669 55.8833 13.6211C55.6834 13.5731 55.4731 13.5985 55.2903 13.6926L11.8759 36.2008L11.4863 36.4032C11.4705 36.4099 11.4544 36.4155 11.438 36.4202C11.4086 36.4149 11.3788 36.412 11.349 36.4117C11.3082 36.398 11.2742 36.3693 11.254 36.3313C11.2434 36.3113 11.2369 36.2895 11.2347 36.2669C11.2326 36.2444 11.235 36.2217 11.2416 36.2001C11.2483 36.1785 11.2592 36.1584 11.2736 36.141C11.288 36.1236 11.3057 36.1092 11.3257 36.0987L11.3795 36.07L55.1329 13.3861C55.3893 13.255 55.684 13.22 55.9639 13.2874C56.2438 13.3548 56.4905 13.5201 56.6594 13.7535L77.7461 43.1971L85.6955 54.3C85.71 54.3194 85.72 54.3418 85.7251 54.3655C85.7301 54.3892 85.73 54.4137 85.7247 54.4373Z" fill="#C7C9C7"/>
<path d="M62.9924 56.0694L61.3075 56.2565L48.8028 57.6436L40.5131 58.5625L40.0234 58.617L29.6793 50.5269L29.283 50.217L26.8399 48.3064L18.1476 41.5092L18.0954 41.0318L15.0038 13.0916C14.9616 12.7069 15.0736 12.3211 15.315 12.0189C15.5565 11.7166 15.9078 11.5226 16.2919 11.4793L57.5526 6.90269C57.9368 6.86068 58.322 6.97283 58.6238 7.21458C58.9256 7.45633 59.1194 7.80798 59.1628 8.19252L61.3431 27.9009L62.5525 38.8276L63.6344 48.6028L64.1359 53.1425L64.2822 54.4575C64.324 54.8424 64.2116 55.2281 63.9699 55.5302C63.7281 55.8324 63.3766 56.0262 62.9924 56.0694Z" fill="#C7C9C7"/>
<path d="M51.654 31.5787L33.7812 33.5608L27.4429 34.2635C27.163 34.2945 26.8798 34.2701 26.6094 34.1915C26.339 34.1129 26.0867 33.9818 25.8669 33.8056C25.6471 33.6294 25.4641 33.4116 25.3284 33.1646C25.1927 32.9176 25.1069 32.6463 25.0759 32.3661C25.0449 32.0859 25.0693 31.8023 25.1478 31.5316C25.2262 31.2608 25.3572 31.0082 25.5331 30.7881C25.7091 30.568 25.9266 30.3848 26.1733 30.2489C26.42 30.113 26.691 30.0271 26.9708 29.996L34.8544 29.1218L51.1806 27.3091C51.7459 27.2466 52.3129 27.4114 52.7568 27.7673C53.2008 28.1232 53.4854 28.6411 53.5482 29.2071C53.6109 29.773 53.4466 30.3408 53.0914 30.7855C52.7362 31.2303 52.2192 31.5155 51.654 31.5787Z" fill="white"/>
<path d="M52.6714 39.4952C52.6253 39.5034 52.5791 39.5117 52.5322 39.5162L31.7847 41.8177L28.3207 42.2027C27.7553 42.2653 27.1882 42.1005 26.7442 41.7444C26.3002 41.3884 26.0156 40.8704 25.9531 40.3042C25.8905 39.7381 26.0552 39.1703 26.4107 38.7257C26.7663 38.2811 27.2837 37.9962 27.8491 37.9336L32.8579 37.3787L49.2927 35.5552L52.0585 35.2483C52.6116 35.1866 53.167 35.3426 53.6073 35.6834C54.0476 36.0242 54.3383 36.5231 54.4179 37.0747C54.4975 37.6262 54.3598 38.1871 54.0338 38.6388C53.7079 39.0905 53.2193 39.3976 52.6714 39.4951V39.4952Z" fill="white"/>
<path d="M55.0195 46.5147C54.8495 46.7974 54.6167 47.0369 54.3392 47.2149C54.0617 47.3928 53.747 47.5043 53.4195 47.5407L44.9157 48.4837L29.7704 50.1638L29.7671 50.163L29.2828 50.217L26.8396 48.3064C26.8245 48.1613 26.8244 48.015 26.8393 47.8699C26.8908 47.3825 27.1069 46.9273 27.4519 46.5797C27.7969 46.2321 28.25 46.0128 28.7364 45.9581L30.8403 45.724L39.1861 44.7992L45.1911 44.1324L52.9479 43.2716C53.3455 43.2275 53.7474 43.2957 54.1082 43.4683C54.4691 43.641 54.7745 43.9113 54.99 44.2487C55.2055 44.586 55.3225 44.977 55.3277 45.3775C55.3329 45.7779 55.2261 46.1718 55.0195 46.5147L55.0195 46.5147Z" fill="white"/>
<path d="M43.0755 21.9019L38.6285 22.395L36.6644 22.6134L33.6973 22.9422C33.132 23.0048 32.5649 22.84 32.1209 22.484C31.6769 22.128 31.3923 21.6099 31.3298 21.0438C31.2672 20.4777 31.4318 19.9099 31.7874 19.4653C32.143 19.0207 32.6604 18.7357 33.2257 18.6731L42.6018 17.634C43.167 17.5711 43.734 17.7356 44.1781 18.0913C44.6222 18.447 44.907 18.9648 44.9698 19.5307C45.0326 20.0967 44.8683 20.6645 44.5131 21.1091C44.1578 21.5538 43.6407 21.8389 43.0755 21.9018V21.9019Z" fill="white"/>
<path d="M79.438 33.7892L74.0164 56.2144L64.9676 57.9372L56.5972 59.5329L47.6164 61.2439L44.7469 61.7907C44.5789 61.8225 44.406 61.8181 44.2399 61.7778C44.0737 61.7376 43.918 61.6623 43.7831 61.5571L41.481 59.7567L40.0234 58.617L29.6793 50.5269L36.2565 23.3222C36.3215 23.0515 36.4631 22.8054 36.6644 22.6134C36.8409 22.4436 37.0574 22.3209 37.2937 22.2568C37.53 22.1927 37.7787 22.1893 38.0167 22.2467L78.3639 32.0267C78.7397 32.118 79.0638 32.3549 79.2652 32.6854C79.4666 33.0159 79.5287 33.4128 79.438 33.7892Z" fill="#00A6A0"/>
<path d="M67.0056 51.6291C66.8714 52.1823 66.5234 52.6595 66.0381 52.956C65.5527 53.2526 64.9697 53.3441 64.4171 53.2107L40.7422 47.472C40.1899 47.3373 39.7135 46.9888 39.4174 46.503C39.1213 46.0171 39.0297 45.4335 39.1627 44.8801C39.1688 44.8527 39.1765 44.8256 39.1858 44.7991C39.337 44.2656 39.6886 43.8113 40.1668 43.5316C40.645 43.2519 41.2129 43.1683 41.7513 43.2985L65.4261 49.0371C65.9785 49.1716 66.4552 49.52 66.7513 50.0059C67.0474 50.4919 67.1389 51.0757 67.0056 51.6291Z" fill="white"/>
<path d="M64.9673 57.937L56.5968 59.5327L38.8657 55.2348C38.313 55.1008 37.8361 54.7525 37.5399 54.2664C37.2436 53.7803 37.1524 53.1963 37.2862 52.6429C37.42 52.0894 37.7679 51.6119 38.2533 51.3153C38.7388 51.0186 39.322 50.9273 39.8747 51.0613L63.5496 56.7999C64.0443 56.9189 64.4802 57.2114 64.7781 57.6243C64.8499 57.723 64.9132 57.8276 64.9673 57.937Z" fill="white"/>
<path d="M47.616 61.2438L44.7464 61.7906C44.5784 61.8224 44.4056 61.818 44.2394 61.7777C44.0732 61.7374 43.9175 61.6622 43.7827 61.557L41.4806 59.7566L47.616 61.2438Z" fill="white"/>
<path d="M62.2358 39.6042C62.1015 40.1574 61.7535 40.6347 61.2682 40.9312C60.7829 41.2277 60.1999 41.3193 59.6472 41.1858L50.4774 38.9631C49.9251 38.8284 49.4487 38.4799 49.1526 37.9941C48.8565 37.5082 48.7649 36.9246 48.8979 36.3712C48.9693 36.0738 49.104 35.7954 49.2929 35.555C49.5466 35.2301 49.8883 34.9851 50.2772 34.8494C50.6662 34.7137 51.086 34.6929 51.4864 34.7896L60.6562 37.0123C61.2089 37.1464 61.6858 37.4947 61.982 37.9808C62.2782 38.4668 62.3695 39.0508 62.2358 39.6042V39.6042Z" fill="white"/>
<path d="M56.5974 59.5327L47.6153 61.2441L44.7465 61.7912C44.5786 61.8226 44.4059 61.818 44.2399 61.7778C44.0739 61.7375 43.9183 61.6625 43.7833 61.5577L41.4795 59.7569L42.288 59.9528L43.9946 61.2859C44.091 61.3608 44.2022 61.4144 44.3208 61.4431C44.4394 61.4719 44.5627 61.4751 44.6827 61.4527L46.8068 61.0481L55.789 59.3367L56.5974 59.5327ZM29.7677 50.1643L29.6803 50.5259L29.2819 50.2158L29.7677 50.1643ZM56.5974 59.5327L47.6153 61.2441L44.7465 61.7912C44.5786 61.8226 44.4059 61.818 44.2399 61.7778C44.0739 61.7375 43.9183 61.6625 43.7833 61.5577L41.4795 59.7569L42.288 59.9528L43.9946 61.2859C44.091 61.3608 44.2022 61.4144 44.3208 61.4431C44.4394 61.4719 44.5627 61.4751 44.6827 61.4527L46.8068 61.0481L55.789 59.3367L56.5974 59.5327ZM56.5974 59.5327L47.6153 61.2441L44.7465 61.7912C44.5786 61.8226 44.4059 61.818 44.2399 61.7778C44.0739 61.7375 43.9183 61.6625 43.7833 61.5577L41.4795 59.7569L42.288 59.9528L43.9946 61.2859C44.091 61.3608 44.2022 61.4144 44.3208 61.4431C44.4394 61.4719 44.5627 61.4751 44.6827 61.4527L46.8068 61.0481L55.789 59.3367L56.5974 59.5327ZM85.8615 55.3352L75.726 97.2583C75.6508 97.5681 75.4559 97.8353 75.1841 98.0014C74.9123 98.1674 74.5858 98.2188 74.2763 98.144L0.918365 80.3625C0.608963 80.2872 0.342033 80.0921 0.176178 79.8199C0.0103226 79.5477 -0.0409088 79.2208 0.0337296 78.9109L10.1693 36.9878C10.216 36.7921 10.3114 36.6114 10.4465 36.4625C10.5816 36.3136 10.7521 36.2012 10.9422 36.1359C11.0825 36.0865 11.2309 36.0641 11.3796 36.07C11.5528 36.075 11.7226 36.1198 11.8759 36.2008C11.9467 36.2344 12.0135 36.2759 12.075 36.3245L18.0955 41.0318L26.8391 47.8708L29.7683 50.1618L29.7677 50.1642L29.7702 50.1648L40.5122 58.5613L42.2879 59.9528L43.9946 61.2859C44.091 61.3608 44.2022 61.4144 44.3208 61.4431C44.4394 61.4719 44.5627 61.4751 44.6827 61.4527L46.8068 61.0481L55.789 59.3367L64.7791 57.6246L84.4696 53.8726C84.6375 53.8393 84.8106 53.843 84.9769 53.8836C85.2008 53.9383 85.4043 54.0564 85.5631 54.2236C85.6239 54.2893 85.6781 54.3609 85.7247 54.4373C85.8865 54.7069 85.9357 55.0295 85.8615 55.3352ZM56.5974 59.5327L47.6153 61.2441L44.7465 61.7912C44.5786 61.8226 44.4059 61.818 44.2399 61.7778C44.0739 61.7375 43.9183 61.6625 43.7833 61.5577L41.4795 59.7569L42.288 59.9528L43.9946 61.2859C44.091 61.3608 44.2022 61.4144 44.3208 61.4431C44.4394 61.4719 44.5627 61.4751 44.6827 61.4527L46.8068 61.0481L55.789 59.3367L56.5974 59.5327ZM56.5974 59.5327L47.6153 61.2441L44.7465 61.7912C44.5786 61.8226 44.4059 61.818 44.2399 61.7778C44.0739 61.7375 43.9183 61.6625 43.7833 61.5577L41.4795 59.7569L42.288 59.9528L43.9946 61.2859C44.091 61.3608 44.2022 61.4144 44.3208 61.4431C44.4394 61.4719 44.5627 61.4751 44.6827 61.4527L46.8068 61.0481L55.789 59.3367L56.5974 59.5327ZM56.5974 59.5327L47.6153 61.2441L44.7465 61.7912C44.5786 61.8226 44.4059 61.818 44.2399 61.7778C44.0739 61.7375 43.9183 61.6625 43.7833 61.5577L41.4795 59.7569L42.288 59.9528L43.9946 61.2859C44.091 61.3608 44.2022 61.4144 44.3208 61.4431C44.4394 61.4719 44.5627 61.4751 44.6827 61.4527L46.8068 61.0481L55.789 59.3367L56.5974 59.5327Z" fill="white"/>
<path d="M56.5974 59.5327L47.6153 61.2441L44.7465 61.7912C44.5786 61.8226 44.4059 61.818 44.2399 61.7778C44.0739 61.7375 43.9183 61.6625 43.7833 61.5577L41.4795 59.7569L42.288 59.9528L43.9946 61.2859C44.091 61.3608 44.2022 61.4144 44.3208 61.4431C44.4394 61.4719 44.5627 61.4751 44.6827 61.4527L46.8068 61.0481L55.789 59.3367L56.5974 59.5327ZM29.7677 50.1642L29.6803 50.5259L29.2819 50.2158L29.7677 50.1642ZM56.5974 59.5327L47.6153 61.2441L44.7465 61.7912C44.5786 61.8226 44.4059 61.818 44.2399 61.7778C44.0739 61.7375 43.9183 61.6625 43.7833 61.5577L41.4795 59.7569L42.288 59.9528L43.9946 61.2859C44.091 61.3608 44.2022 61.4144 44.3208 61.4431C44.4394 61.4719 44.5627 61.4751 44.6827 61.4527L46.8068 61.0481L55.789 59.3367L56.5974 59.5327ZM56.5974 59.5327L47.6153 61.2441L44.7465 61.7912C44.5786 61.8226 44.4059 61.818 44.2399 61.7778C44.0739 61.7375 43.9183 61.6625 43.7833 61.5577L41.4795 59.7569L42.288 59.9528L43.9946 61.2859C44.091 61.3608 44.2022 61.4144 44.3208 61.4431C44.4394 61.4719 44.5627 61.4751 44.6827 61.4527L46.8068 61.0481L55.789 59.3367L56.5974 59.5327ZM85.3908 54.4631L85.3462 54.4966C85.3388 54.4844 85.3258 54.4734 85.316 54.4606C85.2166 54.3571 85.0932 54.2799 84.9567 54.2359C84.8202 54.1919 84.675 54.1825 84.534 54.2086L64.9666 57.9357L56.5974 59.5327L47.6153 61.2441L44.7465 61.7912C44.5786 61.8226 44.4059 61.818 44.2399 61.7777C44.0739 61.7375 43.9183 61.6625 43.7833 61.5577L41.4795 59.7568L42.288 59.9528L43.9946 61.2859C44.091 61.3608 44.2022 61.4144 44.3208 61.4431C44.4394 61.4718 44.5627 61.4751 44.6827 61.4527L46.8068 61.0481L55.789 59.3367L64.7791 57.6246L84.4696 53.8726C84.6375 53.8393 84.8106 53.843 84.9769 53.8835L85.3908 54.4631ZM85.8615 55.3352L75.726 97.2583C75.6508 97.5681 75.4559 97.8353 75.1841 98.0014C74.9123 98.1675 74.5858 98.2188 74.2763 98.1441L0.918365 80.3625C0.608963 80.2872 0.342033 80.0921 0.176178 79.8199C0.0103226 79.5478 -0.0409088 79.2208 0.0337296 78.9109L10.1693 36.9878C10.216 36.7921 10.3114 36.6114 10.4465 36.4625C10.5816 36.3136 10.7521 36.2012 10.9422 36.1359C11.0825 36.0865 11.2309 36.0641 11.3796 36.07C11.5528 36.075 11.7226 36.1198 11.8759 36.2008C11.9467 36.2344 12.0135 36.2759 12.075 36.3245L18.0955 41.0318L26.8391 47.8708L29.7683 50.1618L29.7677 50.1642L29.7702 50.1649L40.5122 58.5613L42.2879 59.9528L43.9946 61.2859C44.091 61.3608 44.2022 61.4144 44.3208 61.4431C44.4394 61.4719 44.5627 61.4751 44.6827 61.4527L46.8068 61.0482L55.789 59.3367L64.7791 57.6246L84.4696 53.8726C84.6375 53.8393 84.8106 53.843 84.9769 53.8835C85.2008 53.9383 85.4043 54.0564 85.5631 54.2236C85.6239 54.2893 85.6781 54.3609 85.7247 54.4373C85.8865 54.7069 85.9357 55.0295 85.8615 55.3352ZM85.5272 55.2542C85.5572 55.1306 85.5591 55.0019 85.5329 54.8775C85.5067 54.753 85.4531 54.6361 85.3759 54.5351C85.369 54.5202 85.3588 54.5071 85.3462 54.4966C85.3388 54.4844 85.3258 54.4734 85.316 54.4606C85.2166 54.3571 85.0932 54.2799 84.9567 54.2359C84.8202 54.1919 84.675 54.1825 84.534 54.2086L64.9666 57.9357L56.5974 59.5327L47.6153 61.2441L44.7465 61.7912C44.5786 61.8226 44.4059 61.818 44.2399 61.7778C44.0739 61.7375 43.9183 61.6625 43.7833 61.5577L41.4795 59.7569L40.0226 58.6171L29.6803 50.5259L29.2819 50.2158L26.8406 48.3061L18.1468 41.5079L11.8617 36.5932C11.7662 36.5186 11.6558 36.4652 11.5381 36.4366C11.5052 36.4285 11.4718 36.4231 11.438 36.4202C11.4087 36.4148 11.3789 36.412 11.3491 36.4116C11.2486 36.4107 11.1487 36.427 11.0538 36.4599C10.9183 36.5071 10.7968 36.5875 10.7002 36.6937C10.6037 36.8 10.5352 36.9287 10.501 37.0682L0.365494 78.9913C0.338829 79.1012 0.334045 79.2152 0.351448 79.3269C0.368843 79.4386 0.408073 79.5458 0.466881 79.6423C0.525696 79.7388 0.602943 79.8228 0.694191 79.8893C0.785446 79.9559 0.888916 80.0038 0.99868 80.0303L74.3566 97.8119C74.5779 97.8652 74.8113 97.8282 75.0054 97.7092C75.1995 97.5902 75.3385 97.3988 75.3917 97.1772L85.5272 55.2542ZM56.5974 59.5327L47.6153 61.2441L44.7465 61.7912C44.5786 61.8226 44.4059 61.818 44.2399 61.7778C44.0739 61.7375 43.9183 61.6625 43.7833 61.5577L41.4795 59.7569L42.288 59.9528L43.9946 61.2859C44.091 61.3608 44.2022 61.4144 44.3208 61.4431C44.4394 61.4719 44.5627 61.4751 44.6827 61.4527L46.8068 61.0482L55.789 59.3367L56.5974 59.5327ZM56.5974 59.5327L47.6153 61.2441L44.7465 61.7912C44.5786 61.8226 44.4059 61.818 44.2399 61.7778C44.0739 61.7375 43.9183 61.6625 43.7833 61.5577L41.4795 59.7569L42.288 59.9528L43.9946 61.2859C44.091 61.3608 44.2022 61.4144 44.3208 61.4431C44.4394 61.4719 44.5627 61.4751 44.6827 61.4527L46.8068 61.0482L55.789 59.3367L56.5974 59.5327ZM56.5974 59.5327L47.6153 61.2441L44.7465 61.7912C44.5786 61.8226 44.4059 61.818 44.2399 61.7778C44.0739 61.7375 43.9183 61.6625 43.7833 61.5577L41.4795 59.7569L42.288 59.9528L43.9946 61.2859C44.091 61.3608 44.2022 61.4144 44.3208 61.4431C44.4394 61.4719 44.5627 61.4751 44.6827 61.4527L46.8068 61.0482L55.789 59.3367L56.5974 59.5327Z" fill="#C7C9C7"/>
<path d="M20.0377 72.1261C20.203 71.4392 20.0893 70.7146 19.7218 70.1115C19.3542 69.5083 18.7627 69.0757 18.077 68.9087L8.8182 66.6644C8.13307 66.5009 7.41115 66.616 6.81056 66.9844C6.20998 67.3528 5.77971 67.9445 5.61399 68.6299C5.44828 69.3154 5.56063 70.0386 5.92645 70.6413C6.29226 71.2439 6.88171 71.6768 7.56568 71.8452L16.8244 74.0894C17.5105 74.2549 18.2341 74.1411 18.8365 73.7731C19.4389 73.405 19.8709 72.8127 20.0377 72.1261Z" fill="#00A6A0"/>
<path d="M122.357 64.3404C121.09 64.3404 120.063 63.3116 120.063 62.0425C120.063 60.7734 121.09 59.7446 122.357 59.7446C123.625 59.7446 124.652 60.7734 124.652 62.0425C124.652 63.3116 123.625 64.3404 122.357 64.3404Z" fill="white"/>
</g>
<defs>
<clipPath id="clip0">
<rect width="189" height="162" fill="white" transform="matrix(-1 0 0 1 189 0)"/>
</clipPath>
</defs>
</svg>
