<svg width="1296" height="884" viewBox="0 0 1296 884" fill="none" xmlns="http://www.w3.org/2000/svg">
<path opacity="0.15" d="M274.451 504.076V447.022H230.184V230.609H163.293L14.7554 453.908V503.093H169.195V569H230.184V504.076H274.451ZM80.171 447.022L169.195 313.731V447.022H80.171Z" fill="#F96459"/>
<path opacity="0.15" d="M746.25 504.076V447.022H701.984V230.609H635.093L486.555 453.908V503.093H640.995V569H701.984V504.076H746.25ZM551.971 447.022L640.995 313.731V447.022H551.971Z" fill="#F96459"/>
<g clip-path="url(#clip0)">
<path d="M1084.69 753.26C1111.46 753.26 1133.17 708.994 1133.17 654.388C1133.17 599.783 1111.46 555.517 1084.69 555.517C1057.91 555.517 1036.2 599.783 1036.2 654.388C1036.2 708.994 1057.91 753.26 1084.69 753.26Z" fill="#3F3D56"/>
<path d="M1080.21 816.225C1099.63 699.784 1080.4 583.763 1080.21 582.605L1076.43 583.245C1076.63 584.397 1095.74 699.808 1076.43 815.597L1080.21 816.225Z" fill="#00A6A0"/>
<path d="M1042 633.128L1040.19 636.505L1084.04 659.943L1085.84 656.566L1042 633.128Z" fill="#00A6A0"/>
<path d="M1130.31 644.868L1086.47 668.319L1088.28 671.696L1132.11 648.245L1130.31 644.868Z" fill="#00A6A0"/>
<path d="M1201.17 691.291C1253.55 691.291 1296 604.711 1296 497.909C1296 391.107 1253.55 304.527 1201.17 304.527C1148.8 304.527 1106.35 391.107 1106.35 497.909C1106.35 604.711 1148.8 691.291 1201.17 691.291Z" fill="#E6E6E6"/>
<path d="M1190.61 814.144C1228.54 586.698 1191 360.081 1190.61 357.818L1186.83 358.458C1187.22 360.715 1224.65 586.723 1186.83 813.516L1190.61 814.144Z" fill="#00A6A0"/>
<path d="M1116.82 457.939L1115.02 461.315L1200.77 507.158L1202.57 503.781L1116.82 457.939Z" fill="#00A6A0"/>
<path d="M1291.26 480.903L1205.53 526.77L1207.34 530.146L1293.07 484.28L1291.26 480.903Z" fill="#00A6A0"/>
<path d="M976.588 646.145C1048.25 646.145 1106.35 527.667 1106.35 381.517C1106.35 235.368 1048.25 116.89 976.588 116.89C904.923 116.89 846.827 235.368 846.827 381.517C846.827 527.667 904.923 646.145 976.588 646.145Z" fill="#E6E6E6"/>
<path d="M961.438 814.143C1013.32 503.017 961.961 193.026 961.437 189.932L957.66 190.571C958.183 193.66 1009.43 503.041 957.659 813.515L961.438 814.143Z" fill="#00A6A0"/>
<path d="M860.829 327.443L859.022 330.82L976.364 393.552L978.171 390.175L860.829 327.443Z" fill="#00A6A0"/>
<path d="M1100.2 358.868L982.877 421.631L984.685 425.007L1102.01 362.245L1100.2 358.868Z" fill="#00A6A0"/>
<path d="M1256.81 816.46H346.682V814.281H1257.2L1256.81 816.46Z" fill="#3F3D56"/>
<path d="M502.616 792.169H480.625C469.122 792.169 458.847 792.983 452.063 797.339C448.873 791.537 444.182 786.698 438.48 783.328C432.778 779.958 426.275 778.181 419.651 778.183H397.661C392.804 778.183 387.994 779.139 383.507 780.996C379.02 782.854 374.943 785.577 371.509 789.009C368.074 792.442 365.35 796.517 363.492 801.002C361.633 805.487 360.676 810.293 360.676 815.148V815.148H539.6V815.148C539.6 794.732 523.042 792.169 502.616 792.169Z" fill="#3F3D56"/>
<path d="M1102.38 816.229H1196.31C1195.83 798.714 1182.71 795.249 1160.34 795.249H1138.35C1115.98 795.249 1102.85 798.714 1102.38 816.229Z" fill="#3F3D56"/>
<path d="M546.342 554.668L559.042 560.543L550.225 579.583C549.446 581.266 548.029 582.571 546.287 583.21C544.545 583.849 542.621 583.771 540.937 582.992C539.252 582.213 537.947 580.797 537.307 579.056C536.668 577.315 536.746 575.391 537.526 573.708L546.342 554.668Z" fill="#FFB9B9"/>
<path d="M670.762 288.557H670.762C684.282 288.557 697.249 293.925 706.809 303.48C716.37 313.035 721.74 325.995 721.74 339.508V396.455H619.784V339.508C619.784 325.995 625.155 313.035 634.715 303.48C644.275 293.925 657.242 288.557 670.762 288.557Z" fill="#2F2E41"/>
<path d="M632.778 825.058L621.783 823.06L613.786 779.102L636.277 779.593L632.778 825.058Z" fill="#FFB9B9"/>
<path d="M754.227 850.526L742.951 855.734L724.959 803.783L744.231 800.573L754.227 850.526Z" fill="#FFB9B9"/>
<path d="M749.228 803.57L719.741 805.077L639.275 610.752L637.081 785.755L608.788 782.098C588.84 673.191 572.335 576.445 598.292 515.842L686.255 522.835L749.228 803.57Z" fill="#2F2E41"/>
<path d="M615.102 855.682L603.659 855.064C603.157 855.037 602.67 854.882 602.244 854.614C601.818 854.346 601.467 853.975 601.225 853.534C600.983 853.093 600.858 852.598 600.861 852.095C600.864 851.592 600.995 851.098 601.242 850.66L618.658 819.776L633.952 821.05L636.313 832.061C636.752 834.107 636.606 836.235 635.893 838.202C635.18 840.169 633.928 841.897 632.28 843.187L624.781 849.06C624.121 851.074 622.815 852.815 621.065 854.012C619.315 855.209 617.219 855.796 615.102 855.682Z" fill="#2F2E41"/>
<path d="M771.007 880.386L761.124 883.782C760.465 884.008 759.76 884.059 759.076 883.93C758.392 883.802 757.753 883.497 757.223 883.048L740.02 868.47C738.429 867.123 737.27 865.338 736.684 863.338C736.099 861.337 736.114 859.209 736.727 857.217L738.887 850.2L755.266 847.031L773.068 874.405C773.4 874.916 773.612 875.497 773.686 876.102C773.761 876.707 773.696 877.321 773.498 877.898C773.299 878.475 772.971 878.998 772.54 879.429C772.108 879.86 771.584 880.188 771.007 880.386Z" fill="#2F2E41"/>
<path d="M663.765 368.481C682.535 368.481 697.75 353.273 697.75 334.513C697.75 315.753 682.535 300.545 663.765 300.545C644.995 300.545 629.779 315.753 629.779 334.513C629.779 353.273 644.995 368.481 663.765 368.481Z" fill="#FFB9B9"/>
<path d="M698.25 384.966L658.267 391.959L654.269 359.989L685.255 355.993L698.25 384.966Z" fill="#FFB9B9"/>
<path d="M698.25 533.825L595.294 523.834C600.343 468.932 617.262 420.512 652.27 381.968L702.249 377.972L698.25 533.825Z" fill="#3F3D56"/>
<path d="M560.808 564.305L539.817 557.311L576.042 484.113L630.279 395.956L652.27 381.969L603.614 490.949L560.808 564.305Z" fill="#3F3D56"/>
<path d="M686.755 323.523L624.781 335.512L634.777 304.541L670.762 296.549L698.75 306.539L686.755 323.523Z" fill="#2F2E41"/>
<path d="M658.295 577.646L670.995 583.521L662.178 602.561C661.399 604.244 659.982 605.549 658.24 606.188C656.498 606.828 654.573 606.749 652.889 605.97C651.205 605.191 649.9 603.775 649.26 602.034C648.62 600.293 648.699 598.369 649.478 596.686L658.295 577.646Z" fill="#FFB9B9"/>
<path d="M671.761 590.28L653.769 579.29L663.204 515.104L702.248 382.968L709.664 385.802C716.978 388.597 723.007 393.983 726.605 400.934C730.202 407.885 731.116 415.916 729.172 423.497L703.868 522.18L671.761 590.28Z" fill="#3F3D56"/>
</g>
<path d="M484.718 273.57C464.722 256.706 440.254 246.015 414.289 242.797C388.325 239.579 361.985 243.973 338.474 255.444C314.963 266.916 295.295 284.97 281.862 307.41C268.43 329.85 261.813 355.709 262.817 381.839C263.821 407.969 272.402 433.244 287.516 454.589C302.629 475.934 323.625 492.428 347.947 502.064C372.268 511.7 398.868 514.062 424.509 508.864C450.15 503.666 473.726 491.131 492.369 472.785L657.917 612.401C659.166 613.454 660.609 614.251 662.165 614.746C663.722 615.242 665.361 615.426 666.988 615.288C668.616 615.15 670.2 614.693 671.651 613.944C673.102 613.194 674.391 612.166 675.444 610.918C676.498 609.67 677.295 608.228 677.79 606.672C678.286 605.116 678.47 603.478 678.332 601.852C678.194 600.225 677.736 598.641 676.986 597.191C676.236 595.741 675.207 594.453 673.958 593.401L508.41 453.785C527.642 426.198 535.873 392.427 531.49 359.09C527.107 325.754 510.427 295.255 484.718 273.57ZM474.045 440.34C461.148 455.617 444.009 466.728 424.794 472.268C405.579 477.809 385.152 477.53 366.095 471.467C347.039 465.404 330.209 453.829 317.734 438.207C305.26 422.584 297.7 403.615 296.012 383.698C294.324 363.781 298.583 343.811 308.25 326.313C317.917 308.815 332.559 294.576 350.323 285.395C368.087 276.214 388.177 272.505 408.05 274.735C427.924 276.966 446.69 285.037 461.974 297.927C482.47 315.212 495.256 339.927 497.52 366.635C499.784 393.343 491.34 419.855 474.045 440.34Z" fill="#00A6A0"/>
<path opacity="0.3" d="M331.558 452.406C312.16 436.045 299.628 412.991 296.449 387.822C293.27 362.654 299.678 337.21 314.4 316.545C312.466 318.491 310.597 320.529 308.793 322.659C300.228 332.802 293.747 344.532 289.718 357.179C285.69 369.826 284.193 383.142 285.313 396.367C286.434 409.591 290.15 422.466 296.249 434.256C302.348 446.046 310.71 456.519 320.859 465.078C331.008 473.637 342.745 480.115 355.398 484.14C368.052 488.166 381.375 489.661 394.607 488.54C407.839 487.419 420.72 483.704 432.515 477.608C444.31 471.511 454.789 463.152 463.352 453.007C465.152 450.875 466.848 448.69 468.438 446.455C450.534 464.435 426.518 475.029 401.16 476.131C375.803 477.234 350.957 468.765 331.558 452.406Z" fill="black"/>
<defs>
<clipPath id="clip0">
<rect width="949.318" height="767.11" fill="white" transform="translate(346.682 116.89)"/>
</clipPath>
</defs>
</svg>
