<svg width="138" height="138" viewBox="0 0 138 138" fill="none" xmlns="http://www.w3.org/2000/svg">
<path fill-rule="evenodd" clip-rule="evenodd" d="M7.63086 84.8238H9.82758V75.4092H7.63086V84.8238Z" fill="#FEDEB6"/>
<path fill-rule="evenodd" clip-rule="evenodd" d="M4.01367 81.212H13.4486V79.0205H4.01367V81.212Z" fill="#FEDEB6"/>
<path fill-rule="evenodd" clip-rule="evenodd" d="M117.528 95.3702L110.856 88.7125L112.41 87.1631L119.081 93.8208L117.528 95.3702Z" fill="#CDF1EF"/>
<path fill-rule="evenodd" clip-rule="evenodd" d="M112.41 95.3702L110.856 93.8208L117.528 87.1631L119.081 88.7125L112.41 95.3702Z" fill="#CDF1EF"/>
<path fill-rule="evenodd" clip-rule="evenodd" d="M52.6332 20.1919L51.0801 21.7413L57.7515 28.3968L59.3046 26.8474L52.6332 20.1919Z" fill="#CDF1EF"/>
<path fill-rule="evenodd" clip-rule="evenodd" d="M57.7518 20.1919L51.0781 26.8474L52.6334 28.3968L59.3026 21.7413L57.7518 20.1919Z" fill="#CDF1EF"/>
<path fill-rule="evenodd" clip-rule="evenodd" d="M136.924 78.0825C135.849 78.0825 134.845 77.4273 134.169 76.2833C133.903 75.8385 133.571 75.5601 133.301 75.5601H132.451C132.181 75.5601 131.847 75.8385 131.581 76.2855C130.907 77.4273 129.901 78.0825 128.824 78.0825H127.978C126.902 78.0825 125.896 77.4273 125.219 76.2833C124.956 75.8385 124.622 75.5601 124.352 75.5601H123.504C123.234 75.5601 122.9 75.8385 122.636 76.2855C121.959 77.4273 120.953 78.0825 119.879 78.0825H119.029C117.957 78.0825 116.953 77.4273 116.274 76.2855C116.009 75.8363 115.675 75.5601 115.404 75.5601H114.98V73.3687H115.404C116.479 73.3687 117.485 74.0239 118.164 75.1679C118.427 75.6127 118.759 75.8911 119.029 75.8911H119.879C120.149 75.8911 120.481 75.6149 120.745 75.1679C121.426 74.0239 122.43 73.3687 123.504 73.3687H124.352C125.426 73.3687 126.43 74.0239 127.109 75.1657C127.374 75.6149 127.708 75.8911 127.978 75.8911H128.824C129.097 75.8911 129.428 75.6149 129.692 75.1679C130.375 74.0239 131.379 73.3687 132.451 73.3687H133.301C134.373 73.3687 135.377 74.0239 136.056 75.1657C136.324 75.6149 136.653 75.8911 136.924 75.8911V78.0825Z" fill="#FEDEB6"/>
<path fill-rule="evenodd" clip-rule="evenodd" d="M95.3526 25.4513C93.9555 25.4513 92.8198 26.5864 92.8198 27.9802C92.8198 29.374 93.9555 30.5092 95.3526 30.5092C96.7519 30.5092 97.8876 29.374 97.8876 27.9802C97.8876 26.5864 96.7519 25.4513 95.3526 25.4513M95.3526 32.7007C92.7451 32.7007 90.623 30.5815 90.623 27.9802C90.623 25.3767 92.7451 23.2598 95.3526 23.2598C97.9601 23.2598 100.084 25.3767 100.084 27.9802C100.084 30.5815 97.9601 32.7007 95.3526 32.7007" fill="#FEDEB6"/>
<path fill-rule="evenodd" clip-rule="evenodd" d="M8.73052 50.3175C7.33341 50.3175 6.1977 51.4527 6.1977 52.8464C6.1977 54.2402 7.33341 55.3754 8.73052 55.3754C10.1298 55.3754 11.2655 54.2402 11.2655 52.8464C11.2655 51.4527 10.1298 50.3175 8.73052 50.3175M8.73052 57.5669C6.12301 57.5669 4.00098 55.4477 4.00098 52.8464C4.00098 50.243 6.12301 48.126 8.73052 48.126C11.338 48.126 13.4623 50.243 13.4623 52.8464C13.4623 55.4477 11.338 57.5669 8.73052 57.5669" fill="#CDF1EF"/>
<mask id="mask0" mask-type="alpha" maskUnits="userSpaceOnUse" x="4" y="20" width="133" height="101">
<path fill-rule="evenodd" clip-rule="evenodd" d="M4 120.915H136.924V20.1924H4V120.915Z" fill="white"/>
</mask>
<g mask="url(#mask0)">
<path fill-rule="evenodd" clip-rule="evenodd" d="M27.9946 37.0098H32.0871V32.9249H27.9946V37.0098ZM25.7979 39.2013H34.2838V30.7334H25.7979V39.2013Z" fill="#FEDEB6"/>
<path fill-rule="evenodd" clip-rule="evenodd" d="M113.577 54.7303H117.669V50.6475H113.577V54.7303ZM111.38 56.9218H119.866V48.4561H111.38V56.9218Z" fill="#9CE3DF"/>
<path fill-rule="evenodd" clip-rule="evenodd" d="M94.2033 117.8C94.2033 119.52 81.1196 120.916 64.9759 120.916C48.8366 120.916 35.7529 119.52 35.7529 117.8C35.7529 116.079 48.8366 114.686 64.9759 114.686C81.1196 114.686 94.2033 116.079 94.2033 117.8" fill="#CDF1EF"/>
<path fill-rule="evenodd" clip-rule="evenodd" d="M57.397 84.9413H55.2002C55.2002 82.3684 57.2981 80.2734 59.8793 80.2734H75.5023C77.3783 80.2734 78.9029 78.7525 78.9029 76.881C78.9029 75.0116 77.3783 73.4885 75.5023 73.4885H63.4841C61.9134 73.4885 60.3757 73.1927 58.9193 72.6097L49.6645 68.9017C48.4717 68.424 47.2086 68.1807 45.9191 68.1807H34.7246V65.9893H45.9191C47.4898 65.9893 49.0253 66.2851 50.4861 66.868L59.7387 70.576C60.9337 71.056 62.1968 71.297 63.4841 71.297H75.5023C78.5887 71.297 81.0996 73.8019 81.0996 76.881C81.0996 79.96 78.5887 82.4649 75.5023 82.4649H59.8793C58.5107 82.4649 57.397 83.576 57.397 84.9413" fill="#022C48"/>
<path fill-rule="evenodd" clip-rule="evenodd" d="M66.5617 98.8138C65.2459 98.8138 63.9278 98.5859 62.6713 98.1256L44.2694 91.3759C42.8107 90.8433 41.2884 90.5738 39.7375 90.5738H34.7246V88.3823H39.7375C41.5454 88.3823 43.327 88.6979 45.025 89.3202L63.4292 96.07C65.7972 96.9379 68.4487 96.7779 70.6981 95.6339L102.522 79.4257C103.293 79.0334 103.851 78.3606 104.095 77.5322C104.337 76.7038 104.229 75.8382 103.792 75.0909C103.06 73.8418 101.527 73.261 100.145 73.7081L79.608 80.3702L78.9314 78.2861L99.4664 71.624C101.821 70.8635 104.438 71.8541 105.69 73.9842C106.434 75.2553 106.617 76.7345 106.202 78.148C105.786 79.5615 104.835 80.7077 103.522 81.3761L71.6976 97.5844C70.094 98.4018 68.3301 98.8138 66.5617 98.8138" fill="#022C48"/>
<path fill-rule="evenodd" clip-rule="evenodd" d="M33.5576 93.3995H23.5361V91.208H33.5576C33.9793 91.208 34.3242 90.864 34.3242 90.4432V65.6487C34.3242 65.2279 33.9793 64.8839 33.5576 64.8839H23.5361V62.6924H33.5576C35.1897 62.6924 36.521 64.0182 36.521 65.6487V90.4432C36.521 92.0737 35.1897 93.3995 33.5576 93.3995" fill="#022C48"/>
<path fill-rule="evenodd" clip-rule="evenodd" d="M23.5381 88.1568H26.2686V85.9653H23.5381V88.1568Z" fill="#9CE3DF"/>
<path fill-rule="evenodd" clip-rule="evenodd" d="M28.4102 88.1568H31.1407V85.9653H28.4102V88.1568Z" fill="#9CE3DF"/>
<path fill-rule="evenodd" clip-rule="evenodd" d="M69.5282 48.6065H69.526C69.1591 48.6065 68.8164 48.749 68.555 49.0098C68.2936 49.2706 68.1508 49.6146 68.1508 49.9806C68.1508 50.3488 68.2936 50.6928 68.555 50.9536C69.0713 51.4708 69.9807 51.4752 70.5013 50.9536C70.7627 50.6928 70.9055 50.3466 70.9055 49.9806C70.9055 49.6146 70.7627 49.2706 70.5013 49.0098C70.2421 48.749 69.895 48.6065 69.5282 48.6065M69.5282 53.5461C68.5704 53.5461 67.6741 53.1758 67.0019 52.503C66.3253 51.828 65.9541 50.9339 65.9541 49.9806C65.9541 49.0273 66.3253 48.1332 67.0019 47.4604C67.6741 46.7876 68.5704 46.415 69.526 46.415H69.5282C70.4837 46.415 71.38 46.7854 72.0544 47.4604C72.731 48.1332 73.1022 49.0273 73.1022 49.9806C73.1022 50.9339 72.731 51.828 72.0544 52.503C71.38 53.1758 70.4837 53.5461 69.5282 53.5461" fill="#1DB9B2"/>
<path fill-rule="evenodd" clip-rule="evenodd" d="M72.6971 63.9856C72.3302 63.9856 71.9831 64.128 71.7239 64.3888C71.1879 64.9235 71.1879 65.7958 71.7239 66.3327C72.2423 66.8499 73.1518 66.8477 73.6702 66.3327C74.2062 65.7958 74.2062 64.9235 73.6702 64.3888C73.411 64.128 73.0661 63.9856 72.6971 63.9856M72.6971 68.9252C71.7415 68.9252 70.8452 68.5548 70.1708 67.8821C68.7803 66.4905 68.7803 64.2288 70.1708 62.8394C71.5218 61.4895 73.8767 61.4939 75.2233 62.8394C76.6182 64.2288 76.6182 66.4905 75.2233 67.8821C74.5511 68.5548 73.6526 68.9252 72.6971 68.9252" fill="#1DB9B2"/>
<path fill-rule="evenodd" clip-rule="evenodd" d="M62.5925 64.2495L61.4326 62.3889L79.6346 51.0918L80.7945 52.9502L62.5925 64.2495Z" fill="#1DB9B2"/>
<path fill-rule="evenodd" clip-rule="evenodd" d="M87.7046 73.1185L86.5776 67.5959C86.2481 65.972 86.9291 64.3306 88.3152 63.4146L93.025 60.3048C93.5544 59.9542 93.8598 59.391 93.8598 58.7555C93.8598 58.1221 93.5544 57.5567 93.025 57.2083L88.3152 54.0963C86.9291 53.1803 86.2481 51.5389 86.5776 49.915L87.7046 44.3924C87.832 43.7701 87.6474 43.1586 87.1971 42.7094C86.7468 42.2601 86.1317 42.0782 85.51 42.2031L79.9743 43.3252C78.3487 43.6561 76.7012 42.9767 75.7807 41.5939L72.6636 36.8953C72.3143 36.365 71.7476 36.0626 71.1127 36.0626C70.4757 36.0626 69.9133 36.365 69.5596 36.8953L66.4425 41.5939C65.5265 42.9767 63.8899 43.6605 62.2511 43.3252L56.7176 42.2031C56.0915 42.0738 55.4787 42.2601 55.0283 42.7094C54.5802 43.1586 54.3935 43.7701 54.5209 44.3924L55.6456 49.915C55.9773 51.5389 55.2963 53.1803 53.908 54.0963L49.2004 57.2083C48.6688 57.5567 48.3657 58.1221 48.3657 58.7555C48.3657 59.391 48.6688 59.9542 49.2004 60.3048L53.908 63.4146C55.2963 64.3306 55.9773 65.972 55.6456 67.5959L53.495 67.1598C53.6444 66.4147 53.3347 65.6608 52.6954 65.2423L47.9878 62.1325C46.8477 61.3809 46.1689 60.1186 46.1689 58.7555C46.1689 57.3945 46.8477 56.1322 47.9878 55.3806L52.6954 52.2686C53.3347 51.8501 53.6444 51.0962 53.495 50.3511L52.3681 44.8285C52.0957 43.4939 52.5109 42.1221 53.4752 41.16C54.4396 40.1979 55.8191 39.7793 57.1547 40.0555L62.6883 41.1797C63.4308 41.3222 64.1886 41.0175 64.6104 40.3842L67.7276 35.6856C68.4832 34.5483 69.7464 33.8711 71.1127 33.8711H71.1149C72.4791 33.8733 73.7444 34.5505 74.4957 35.6856L77.6128 40.3842C78.0346 41.0175 78.7925 41.3222 79.5371 41.1797L85.0729 40.0555C86.4085 39.7793 87.7836 40.1979 88.7502 41.16C89.7167 42.1221 90.1297 43.4939 89.8573 44.8285L88.7326 50.3511C88.5788 51.0962 88.893 51.8479 89.53 52.2686L94.2398 55.3806C95.3755 56.1322 96.0565 57.3945 96.0565 58.7555C96.0565 60.1186 95.3755 61.3809 94.2398 62.1325L89.53 65.2423C88.893 65.663 88.5788 66.4147 88.7326 67.1598L89.8573 72.6824L87.7046 73.1185Z" fill="#FEC687"/>
</g>
</svg>
