<?xml version="1.0" encoding="UTF-8"?>
<svg width="715" height="128" viewBox="0 0 715 128" fill="none" xmlns="http://www.w3.org/2000/svg">
<g clip-path="url(#clip0)">
<path d="M28.4199 74.27H15.3799V102.62H28.4199V74.27Z" fill="#002B49"/>
<path d="M56.5 13.01C56.899 13.0044 57.2926 13.1017 57.643 13.2927C57.9933 13.4836 58.2885 13.7617 58.5 14.1L72.33 35.45C76.6595 33.6943 81.2537 32.6802 85.92 32.45L69.44 7.00999C68.0438 4.84907 66.1285 3.07237 63.869 1.84215C61.6095 0.611922 59.0777 -0.0326233 56.505 -0.0326233C53.9323 -0.0326233 51.4006 0.611922 49.141 1.84215C46.8815 3.07237 44.9662 4.84907 43.57 7.00999L0 74.24H15.37L54.5 14.09C54.7127 13.7535 55.0084 13.4774 55.3587 13.2883C55.7089 13.0991 56.102 13.0033 56.5 13.01Z" fill="#002B49"/>
<path d="M120.29 74.27H107.29C107.175 69.2103 105.084 64.3965 101.465 60.8587C97.8456 57.3209 92.9856 55.3401 87.9246 55.3401C82.8635 55.3401 78.0035 57.3209 74.3844 60.8587C70.7653 64.3965 68.6746 69.2103 68.5596 74.27H55.5596C55.5596 65.6982 58.9647 57.4775 65.0259 51.4163C71.0871 45.3551 79.3078 41.95 87.8796 41.95C96.4514 41.95 104.672 45.3551 110.733 51.4163C116.794 57.4775 120.2 65.6982 120.2 74.27H120.29Z" fill="#00BAB3"/>
<path d="M53.1299 115.58V102.63C60.649 102.622 67.8579 99.6316 73.1747 94.3148C78.4915 88.998 81.4819 81.7891 81.4899 74.27H94.4899C94.4793 85.2315 90.1167 95.7403 82.3611 103.487C74.6054 111.233 64.0914 115.583 53.1299 115.58Z" fill="#002B49"/>
<path d="M182.53 102.63H173.84C160.24 102.63 155.21 97.48 155.21 82.91V51.42H143.33V40.15H155.21V25.09L168.21 21.66V40.15H181.06V51.42H168.2V83.52C168.2 89.03 170.65 91.52 176.29 91.52H182.53V102.63Z" fill="#002B49"/>
<path d="M192.82 14.31H206.66V29.25H192.82V14.31ZM193.19 102.63H206.19V40.15H193.19V102.63Z" fill="#002B49"/>
<path d="M253.7 102.63H245.01C231.41 102.63 226.39 97.48 226.39 82.91V51.42H214.5V40.15H226.39V25.09L239.39 21.66V40.15H252.25V51.42H239.37V83.52C239.37 89.03 241.82 91.52 247.46 91.52H253.7V102.63Z" fill="#002B49"/>
<path d="M277.84 102.63H264.84V15.53H277.84V102.63Z" fill="#002B49"/>
<path d="M347.9 75.07H302.33C302.33 86.07 309.81 93.2 320.71 93.2C328.06 93.2 333.71 89.89 335.9 84.25H347.29C344.23 96.01 333.57 104.01 319.97 104.01C302.21 104.01 290.21 91.01 290.21 71.54C290.21 52.07 302.33 38.96 320.1 38.96C337 38.96 347.9 50.84 347.9 69.71V75.07ZM319.85 49.71C310.17 49.71 303.31 55.71 302.46 65.63H335.53C335.53 56.01 329.65 49.71 319.85 49.71Z" fill="#002B49"/>
<path d="M415.89 40.15V98.83C415.89 117.08 405.11 127.5 386.24 127.5C369.34 127.5 358.44 119.29 356.6 105.2H369.34C370.69 113.2 376.81 117.2 386.24 117.2C397.88 117.2 403.64 111.32 403.64 100.54V89.28C399.84 96.63 392 99.93 383.3 99.93C366.4 99.93 355.99 88.05 355.99 69.43C355.99 50.81 366.4 38.93 383.3 38.93C392.74 38.93 400.3 42.73 403.64 49.59V40.15H415.89ZM403.03 69.31C403.03 57.43 396.53 49.95 386.12 49.95C375.71 49.95 368.97 57.55 368.97 69.31C368.97 81.07 375.46 88.91 386.12 88.91C396.78 88.91 403.03 81.31 403.03 69.31Z" fill="#002B49"/>
<path d="M485.34 75.07H439.76C439.76 86.07 447.23 93.2 458.13 93.2C465.48 93.2 471.13 89.89 473.32 84.25H484.76C481.67 96.01 471.01 104.01 457.42 104.01C439.65 104.01 427.65 91.01 427.65 71.54C427.65 52.07 439.78 38.96 457.54 38.96C474.44 38.96 485.34 50.84 485.34 69.71V75.07ZM457.29 49.71C447.62 49.71 440.76 55.71 439.9 65.63H472.97C472.97 56.01 467.09 49.71 457.29 49.71Z" fill="#002B49"/>
<path d="M551.62 62.2V102.63H538.76V63.55C538.76 55.47 533.99 50.44 526.39 50.44C516.71 50.44 510.71 57.67 510.71 69.19V102.63H497.76V40.15H510.76V49.46C515.05 42.11 520.68 38.93 529.87 38.93C543.76 38.93 551.62 46.89 551.62 62.2Z" fill="#002B49"/>
<path d="M566.81 14.31H580.65V29.25H566.81V14.31ZM567.17 102.63H580.17V40.15H567.17V102.63Z" fill="#002B49"/>
<path d="M649 40.15V102.63H636.51V92.09C632.96 99.69 626.51 103.36 618.62 103.36C604.9 103.36 595.84 94.18 595.84 79.36V40.16H608.7V78.16C608.7 87.22 613.11 92.25 621.2 92.25C631.2 92.25 636.14 84.04 636.14 70.44V40.15H649Z" fill="#002B49"/>
<path d="M714.76 83.64C714.76 96.01 704.62 104.01 688.45 104.01C672.28 104.01 661.62 96.14 660.76 82.91H673.76C674.61 90.01 680.25 93.81 689.19 93.81C697.4 93.81 702.19 90.62 702.19 85.23C702.19 80.23 698.02 79.11 688.96 77.52C676.96 75.43 662.86 73.72 662.86 58.77C662.86 46.52 672.3 38.93 687.49 38.93C702.92 38.93 712.23 46.77 713.21 59.39H700.82C700.08 52.89 695.55 49.22 687.71 49.22C680.12 49.22 675.22 52.77 675.22 58.16C675.22 64.04 680.97 65.02 690.16 66.49C702.04 68.45 714.76 69.8 714.76 83.64Z" fill="#002B49"/>
</g>
<defs>
<clipPath id="clip0">
<rect width="714.78" height="127.49" fill="white"/>
</clipPath>
</defs>
</svg>
