<svg width="17" height="16" viewBox="0 0 17 16" fill="none" xmlns="http://www.w3.org/2000/svg">
<g opacity="0.3">
<path fill-rule="evenodd" clip-rule="evenodd" d="M1.75 7C1.33579 7 1 7.33579 1 7.75C1 8.16421 1.33579 8.5 1.75 8.5H13.519L9.79929 12.2197C9.5064 12.5126 9.5064 12.9874 9.79929 13.2803C10.0922 13.5732 10.5671 13.5732 10.86 13.2803L15.86 8.28033C16.1528 7.98744 16.1528 7.51256 15.86 7.21967L10.86 2.21967C10.5671 1.92678 10.0922 1.92678 9.79929 2.21967C9.5064 2.51256 9.5064 2.98744 9.79929 3.28033L13.519 7L1.75 7Z" fill="#002B49"/>
<path d="M13.519 8.5L13.6957 8.67678C13.7672 8.60528 13.7886 8.49775 13.7499 8.40433C13.7112 8.31091 13.6201 8.25 13.519 8.25V8.5ZM9.79929 12.2197L9.97607 12.3964L9.97607 12.3964L9.79929 12.2197ZM9.79929 13.2803L9.97607 13.1036L9.97607 13.1036L9.79929 13.2803ZM10.86 13.2803L10.6832 13.1036V13.1036L10.86 13.2803ZM15.86 8.28033L16.0367 8.45711V8.45711L15.86 8.28033ZM15.86 7.21967L16.0367 7.04289V7.04289L15.86 7.21967ZM10.86 2.21967L10.6832 2.39645L10.86 2.21967ZM9.79929 2.21967L9.97607 2.39645H9.97607L9.79929 2.21967ZM9.79929 3.28033L9.97607 3.10355H9.97607L9.79929 3.28033ZM13.519 7V7.25C13.6201 7.25 13.7112 7.18909 13.7499 7.09567C13.7886 7.00225 13.7672 6.89472 13.6957 6.82322L13.519 7ZM1.25 7.75C1.25 7.47386 1.47386 7.25 1.75 7.25V6.75C1.19772 6.75 0.75 7.19772 0.75 7.75H1.25ZM1.75 8.25C1.47386 8.25 1.25 8.02614 1.25 7.75H0.75C0.75 8.30229 1.19772 8.75 1.75 8.75V8.25ZM13.519 8.25H1.75V8.75H13.519V8.25ZM9.97607 12.3964L13.6957 8.67678L13.3422 8.32322L9.62252 12.0429L9.97607 12.3964ZM9.97607 13.1036C9.78081 12.9083 9.78081 12.5917 9.97607 12.3964L9.62252 12.0429C9.23199 12.4334 9.23199 13.0666 9.62252 13.4571L9.97607 13.1036ZM10.6832 13.1036C10.4879 13.2988 10.1713 13.2988 9.97607 13.1036L9.62252 13.4571C10.013 13.8476 10.6462 13.8476 11.0367 13.4571L10.6832 13.1036ZM15.6832 8.10355L10.6832 13.1036L11.0367 13.4571L16.0367 8.45711L15.6832 8.10355ZM15.6832 7.39645C15.8784 7.59171 15.8784 7.90829 15.6832 8.10355L16.0367 8.45711C16.4273 8.06658 16.4273 7.43342 16.0367 7.04289L15.6832 7.39645ZM10.6832 2.39645L15.6832 7.39645L16.0367 7.04289L11.0367 2.04289L10.6832 2.39645ZM9.97607 2.39645C10.1713 2.20119 10.4879 2.20119 10.6832 2.39645L11.0367 2.04289C10.6462 1.65237 10.013 1.65237 9.62252 2.04289L9.97607 2.39645ZM9.97607 3.10355C9.78081 2.90829 9.78081 2.59171 9.97607 2.39645L9.62252 2.04289C9.23199 2.43342 9.23199 3.06658 9.62252 3.45711L9.97607 3.10355ZM13.6957 6.82322L9.97607 3.10355L9.62252 3.45711L13.3422 7.17678L13.6957 6.82322ZM1.75 7.25L13.519 7.25V6.75L1.75 6.75V7.25Z" fill="#002B49"/>
</g>
</svg>
