<svg width="17" height="16" viewBox="0 0 17 16" fill="none" xmlns="http://www.w3.org/2000/svg">
<path fill-rule="evenodd" clip-rule="evenodd" d="M1.75 7C1.33579 7 1 7.33579 1 7.75C1 8.16421 1.33579 8.5 1.75 8.5H13.519L9.79929 12.2197C9.5064 12.5126 9.5064 12.9874 9.79929 13.2803C10.0922 13.5732 10.5671 13.5732 10.86 13.2803L15.86 8.28033C16.1528 7.98744 16.1528 7.51256 15.86 7.21967L10.86 2.21967C10.5671 1.92678 10.0922 1.92678 9.79929 2.21967C9.5064 2.51256 9.5064 2.98744 9.79929 3.28033L13.519 7L1.75 7Z" fill="#002B49"/>
<path d="M13.519 8.5L13.8725 8.85355C14.0155 8.71055 14.0583 8.4955 13.9809 8.30866C13.9035 8.12182 13.7212 8 13.519 8V8.5ZM9.79929 12.2197L10.1528 12.5732L10.1528 12.5732L9.79929 12.2197ZM9.79929 13.2803L10.1528 12.9268L10.1528 12.9268L9.79929 13.2803ZM10.86 13.2803L10.5064 12.9268V12.9268L10.86 13.2803ZM15.86 8.28033L16.2135 8.63388V8.63388L15.86 8.28033ZM15.86 7.21967L16.2135 6.86612V6.86612L15.86 7.21967ZM10.86 2.21967L10.5064 2.57322V2.57322L10.86 2.21967ZM9.79929 2.21967L10.1528 2.57322L10.1528 2.57322L9.79929 2.21967ZM9.79929 3.28033L10.1528 2.92678L10.1528 2.92678L9.79929 3.28033ZM13.519 7V7.5C13.7212 7.5 13.9035 7.37818 13.9809 7.19134C14.0583 7.0045 14.0155 6.78945 13.8725 6.64645L13.519 7ZM1.5 7.75C1.5 7.61193 1.61193 7.5 1.75 7.5V6.5C1.05964 6.5 0.5 7.05964 0.5 7.75H1.5ZM1.75 8C1.61193 8 1.5 7.88807 1.5 7.75H0.5C0.5 8.44036 1.05964 9 1.75 9L1.75 8ZM13.519 8H1.75L1.75 9H13.519V8ZM10.1528 12.5732L13.8725 8.85355L13.1654 8.14645L9.44574 11.8661L10.1528 12.5732ZM10.1528 12.9268C10.0552 12.8291 10.0552 12.6709 10.1528 12.5732L9.44574 11.8661C8.95758 12.3543 8.95758 13.1457 9.44574 13.6339L10.1528 12.9268ZM10.5064 12.9268C10.4088 13.0244 10.2505 13.0244 10.1528 12.9268L9.44574 13.6339C9.93389 14.122 10.7254 14.122 11.2135 13.6339L10.5064 12.9268ZM15.5064 7.92678L10.5064 12.9268L11.2135 13.6339L16.2135 8.63388L15.5064 7.92678ZM15.5064 7.57322C15.604 7.67085 15.604 7.82915 15.5064 7.92678L16.2135 8.63388C16.7017 8.14573 16.7017 7.35427 16.2135 6.86612L15.5064 7.57322ZM10.5064 2.57322L15.5064 7.57322L16.2135 6.86612L11.2135 1.86612L10.5064 2.57322ZM10.1528 2.57322C10.2505 2.47559 10.4088 2.47559 10.5064 2.57322L11.2135 1.86612C10.7254 1.37796 9.93389 1.37796 9.44574 1.86612L10.1528 2.57322ZM10.1528 2.92678C10.0552 2.82915 10.0552 2.67085 10.1528 2.57322L9.44574 1.86612C8.95758 2.35427 8.95758 3.14573 9.44574 3.63388L10.1528 2.92678ZM13.8725 6.64645L10.1528 2.92678L9.44574 3.63388L13.1654 7.35355L13.8725 6.64645ZM1.75 7.5L13.519 7.5V6.5L1.75 6.5V7.5Z" fill="#002B49"/>
</svg>
