<svg width="57" height="14" viewBox="0 0 57 14" fill="none" xmlns="http://www.w3.org/2000/svg">
<g opacity="0.33">
<mask id="path-1-inside-1" fill="white">
<path fill-rule="evenodd" clip-rule="evenodd" d="M1.00015 7.58582L53.5859 7.58582L49.222 11.9498C48.8314 12.3403 48.8314 12.9735 49.222 13.364C49.6125 13.7545 50.2457 13.7545 50.6362 13.364L56.293 7.70714C56.5321 7.46806 56.6248 7.13804 56.5712 6.82843C56.6248 6.51883 56.5321 6.18881 56.293 5.94974L50.6362 0.292893C50.2457 -0.097631 49.6125 -0.097631 49.222 0.292893C48.8314 0.683416 48.8314 1.31658 49.222 1.7071L53.1007 5.58582L1.00015 5.58582C0.447865 5.58582 0.000152588 6.03354 0.000152588 6.58582C0.000152588 7.13811 0.447865 7.58582 1.00015 7.58582Z"/>
</mask>
<path fill-rule="evenodd" clip-rule="evenodd" d="M1.00015 7.58582L53.5859 7.58582L49.222 11.9498C48.8314 12.3403 48.8314 12.9735 49.222 13.364C49.6125 13.7545 50.2457 13.7545 50.6362 13.364L56.293 7.70714C56.5321 7.46806 56.6248 7.13804 56.5712 6.82843C56.6248 6.51883 56.5321 6.18881 56.293 5.94974L50.6362 0.292893C50.2457 -0.097631 49.6125 -0.097631 49.222 0.292893C48.8314 0.683416 48.8314 1.31658 49.222 1.7071L53.1007 5.58582L1.00015 5.58582C0.447865 5.58582 0.000152588 6.03354 0.000152588 6.58582C0.000152588 7.13811 0.447865 7.58582 1.00015 7.58582Z" fill="#002B49"/>
<path d="M53.5859 7.58582L54.293 8.29293L56.0001 6.58582L53.5859 6.58582V7.58582ZM49.222 11.9498L48.5149 11.2427L48.5149 11.2427L49.222 11.9498ZM50.6362 13.364L51.3433 14.0711V14.0711L50.6362 13.364ZM56.293 7.70714L55.5859 7.00003L55.5859 7.00003L56.293 7.70714ZM56.5712 6.82843L55.5859 6.65771L55.5563 6.82844L55.5859 6.99917L56.5712 6.82843ZM56.293 5.94974L55.5859 6.65684L55.5859 6.65685L56.293 5.94974ZM50.6362 0.292893L49.9291 1V1L50.6362 0.292893ZM49.222 0.292893L48.5149 -0.414216V-0.414215L49.222 0.292893ZM49.222 1.7071L48.5149 2.41421L49.222 1.7071ZM53.1007 5.58582V6.58582L55.5149 6.58582L53.8078 4.87871L53.1007 5.58582ZM53.5859 6.58582L1.00015 6.58582V8.58582L53.5859 8.58582V6.58582ZM49.9291 12.6569L54.293 8.29293L52.8788 6.87871L48.5149 11.2427L49.9291 12.6569ZM49.9291 12.6569V12.6569L48.5149 11.2427C47.7338 12.0237 47.7338 13.29 48.5149 14.0711L49.9291 12.6569ZM49.9291 12.6569L49.9291 12.6569L48.5149 14.0711C49.2959 14.8521 50.5622 14.8521 51.3433 14.0711L49.9291 12.6569ZM55.5859 7.00003L49.9291 12.6569L51.3433 14.0711L57.0001 8.41425L55.5859 7.00003ZM55.5859 6.99917L55.5859 7.00003L57.0001 8.41425C57.4789 7.93551 57.6633 7.274 57.5565 6.6577L55.5859 6.99917ZM55.5859 6.65685L55.5859 6.65771L57.5565 6.99916C57.6633 6.38286 57.4789 5.72136 57.0001 5.24263L55.5859 6.65685ZM49.9291 1L55.5859 6.65684L57.0001 5.24263L51.3433 -0.414215L49.9291 1ZM49.9291 1L49.9291 1L51.3433 -0.414215C50.5622 -1.19526 49.2959 -1.19526 48.5149 -0.414216L49.9291 1ZM49.9291 0.999996L49.9291 1L48.5149 -0.414215C47.7338 0.366833 47.7338 1.63316 48.5149 2.41421L49.9291 0.999996ZM53.8078 4.87871L49.9291 0.999996L48.5149 2.41421L52.3936 6.29293L53.8078 4.87871ZM1.00015 6.58582L53.1007 6.58582V4.58582L1.00015 4.58582V6.58582ZM1.00015 6.58582V4.58582C-0.104424 4.58582 -0.999847 5.48126 -0.999847 6.58582H1.00015ZM1.00015 6.58582H1.00015H-0.999847C-0.999847 7.69039 -0.104424 8.58582 1.00015 8.58582V6.58582Z" fill="#002B49" mask="url(#path-1-inside-1)"/>
<mask id="mask0" mask-type="alpha" maskUnits="userSpaceOnUse" x="0" y="0" width="57" height="14">
<mask id="path-3-inside-2" mask-type="luminance" fill="white">
<path fill-rule="evenodd" clip-rule="evenodd" d="M1.00015 7.58582L53.5859 7.58582L49.222 11.9498C48.8314 12.3403 48.8314 12.9735 49.222 13.364C49.6125 13.7545 50.2457 13.7545 50.6362 13.364L56.293 7.70714C56.5321 7.46806 56.6248 7.13804 56.5712 6.82843C56.6248 6.51883 56.5321 6.18881 56.293 5.94974L50.6362 0.292893C50.2457 -0.097631 49.6125 -0.097631 49.222 0.292893C48.8314 0.683416 48.8314 1.31658 49.222 1.7071L53.1007 5.58582L1.00015 5.58582C0.447865 5.58582 0.000152588 6.03354 0.000152588 6.58582C0.000152588 7.13811 0.447865 7.58582 1.00015 7.58582Z"/>
</mask>
<path fill-rule="evenodd" clip-rule="evenodd" d="M1.00015 7.58582L53.5859 7.58582L49.222 11.9498C48.8314 12.3403 48.8314 12.9735 49.222 13.364C49.6125 13.7545 50.2457 13.7545 50.6362 13.364L56.293 7.70714C56.5321 7.46806 56.6248 7.13804 56.5712 6.82843C56.6248 6.51883 56.5321 6.18881 56.293 5.94974L50.6362 0.292893C50.2457 -0.097631 49.6125 -0.097631 49.222 0.292893C48.8314 0.683416 48.8314 1.31658 49.222 1.7071L53.1007 5.58582L1.00015 5.58582C0.447865 5.58582 0.000152588 6.03354 0.000152588 6.58582C0.000152588 7.13811 0.447865 7.58582 1.00015 7.58582Z" fill="white"/>
<path d="M53.5859 7.58582L54.293 8.29293L56.0001 6.58582L53.5859 6.58582V7.58582ZM49.222 11.9498L48.5149 11.2427L48.5149 11.2427L49.222 11.9498ZM50.6362 13.364L51.3433 14.0711V14.0711L50.6362 13.364ZM56.293 7.70714L55.5859 7.00003L55.5859 7.00003L56.293 7.70714ZM56.5712 6.82843L55.5859 6.65771L55.5563 6.82844L55.5859 6.99917L56.5712 6.82843ZM56.293 5.94974L55.5859 6.65684L55.5859 6.65685L56.293 5.94974ZM50.6362 0.292893L49.9291 1V1L50.6362 0.292893ZM49.222 0.292893L48.5149 -0.414216V-0.414215L49.222 0.292893ZM49.222 1.7071L48.5149 2.41421L49.222 1.7071ZM53.1007 5.58582V6.58582L55.5149 6.58582L53.8078 4.87871L53.1007 5.58582ZM53.5859 6.58582L1.00015 6.58582V8.58582L53.5859 8.58582V6.58582ZM49.9291 12.6569L54.293 8.29293L52.8788 6.87871L48.5149 11.2427L49.9291 12.6569ZM49.9291 12.6569V12.6569L48.5149 11.2427C47.7338 12.0237 47.7338 13.29 48.5149 14.0711L49.9291 12.6569ZM49.9291 12.6569L49.9291 12.6569L48.5149 14.0711C49.2959 14.8521 50.5622 14.8521 51.3433 14.0711L49.9291 12.6569ZM55.5859 7.00003L49.9291 12.6569L51.3433 14.0711L57.0001 8.41425L55.5859 7.00003ZM55.5859 6.99917L55.5859 7.00003L57.0001 8.41425C57.4789 7.93551 57.6633 7.274 57.5565 6.6577L55.5859 6.99917ZM55.5859 6.65685L55.5859 6.65771L57.5565 6.99916C57.6633 6.38286 57.4789 5.72136 57.0001 5.24263L55.5859 6.65685ZM49.9291 1L55.5859 6.65684L57.0001 5.24263L51.3433 -0.414215L49.9291 1ZM49.9291 1L49.9291 1L51.3433 -0.414215C50.5622 -1.19526 49.2959 -1.19526 48.5149 -0.414216L49.9291 1ZM49.9291 0.999996L49.9291 1L48.5149 -0.414215C47.7338 0.366833 47.7338 1.63316 48.5149 2.41421L49.9291 0.999996ZM53.8078 4.87871L49.9291 0.999996L48.5149 2.41421L52.3936 6.29293L53.8078 4.87871ZM1.00015 6.58582L53.1007 6.58582V4.58582L1.00015 4.58582V6.58582ZM1.00015 6.58582V4.58582C-0.104424 4.58582 -0.999847 5.48126 -0.999847 6.58582H1.00015ZM1.00015 6.58582H1.00015H-0.999847C-0.999847 7.69039 -0.104424 8.58582 1.00015 8.58582V6.58582Z" fill="white" mask="url(#path-3-inside-2)"/>
</mask>
<g mask="url(#mask0)">
<rect x="0.0498047" y="-17.8789" width="57" height="50" fill="#002B49"/>
</g>
</g>
</svg>
