<svg width="57" height="14" viewBox="0 0 57 14" fill="none" xmlns="http://www.w3.org/2000/svg">
<mask id="path-1-inside-1" fill="white">
<path fill-rule="evenodd" clip-rule="evenodd" d="M1.00015 7.58578L53.586 7.58578L49.222 11.9498C48.8315 12.3403 48.8315 12.9735 49.222 13.364C49.6125 13.7545 50.2457 13.7545 50.6362 13.364L56.293 7.70711C56.5321 7.46803 56.6248 7.138 56.5712 6.82839C56.6248 6.51878 56.5321 6.18878 56.293 5.9497L50.6361 0.292891C50.2456 -0.0976305 49.6124 -0.0976303 49.2219 0.292891C48.8314 0.683413 48.8314 1.31657 49.2219 1.70709L53.1007 5.58578L1.00015 5.58578C0.447865 5.58578 0.000148773 6.0335 0.000148773 6.58578C0.000148773 7.13807 0.447865 7.58578 1.00015 7.58578Z"/>
</mask>
<path fill-rule="evenodd" clip-rule="evenodd" d="M1.00015 7.58578L53.586 7.58578L49.222 11.9498C48.8315 12.3403 48.8315 12.9735 49.222 13.364C49.6125 13.7545 50.2457 13.7545 50.6362 13.364L56.293 7.70711C56.5321 7.46803 56.6248 7.138 56.5712 6.82839C56.6248 6.51878 56.5321 6.18878 56.293 5.9497L50.6361 0.292891C50.2456 -0.0976305 49.6124 -0.0976303 49.2219 0.292891C48.8314 0.683413 48.8314 1.31657 49.2219 1.70709L53.1007 5.58578L1.00015 5.58578C0.447865 5.58578 0.000148773 6.0335 0.000148773 6.58578C0.000148773 7.13807 0.447865 7.58578 1.00015 7.58578Z" fill="#002B49"/>
<path d="M53.586 7.58578L54.2931 8.29288L56.0002 6.58578L53.586 6.58578V7.58578ZM49.222 11.9498L48.5149 11.2427L49.222 11.9498ZM50.6362 13.364L51.3433 14.0711L51.3433 14.0711L50.6362 13.364ZM56.293 7.70711L57.0002 8.41422H57.0002L56.293 7.70711ZM56.5712 6.82839L55.5859 6.65767L55.5563 6.8284L55.5859 6.99913L56.5712 6.82839ZM56.293 5.9497L57.0001 5.24259H57.0001L56.293 5.9497ZM50.6361 0.292891L49.929 1V1L50.6361 0.292891ZM49.2219 0.292891L49.929 1L49.2219 0.292891ZM49.2219 1.70709L49.929 0.999983V0.999983L49.2219 1.70709ZM53.1007 5.58578V6.58578L55.5149 6.58578L53.8078 4.87867L53.1007 5.58578ZM53.586 6.58578L1.00015 6.58578V8.58578L53.586 8.58578V6.58578ZM49.9291 12.6569L54.2931 8.29288L52.8789 6.87868L48.5149 11.2427L49.9291 12.6569ZM49.9291 12.6569L49.9291 12.6569L48.5149 11.2427C47.7339 12.0237 47.7339 13.2901 48.5149 14.0711L49.9291 12.6569ZM49.9291 12.6569H49.9291L48.5149 14.0711C49.296 14.8522 50.5623 14.8522 51.3433 14.0711L49.9291 12.6569ZM55.5859 7.00001L49.9291 12.6569L51.3433 14.0711L57.0002 8.41422L55.5859 7.00001ZM55.5859 6.99913L55.5859 7.00001L57.0002 8.41422C57.4789 7.93547 57.6633 7.27395 57.5565 6.65764L55.5859 6.99913ZM55.5859 6.65682L55.5859 6.65767L57.5565 6.9991C57.6633 6.38281 57.4789 5.72132 57.0001 5.24259L55.5859 6.65682ZM49.929 1L55.5859 6.65682L57.0001 5.24259L51.3432 -0.414221L49.929 1ZM49.929 1L49.929 1L51.3432 -0.414221C50.5622 -1.19526 49.2959 -1.19526 48.5148 -0.414221L49.929 1ZM49.929 0.999983V1L48.5148 -0.414221C47.7338 0.366827 47.7338 1.63316 48.5148 2.41421L49.929 0.999983ZM53.8078 4.87867L49.929 0.999983L48.5148 2.41421L52.3936 6.29289L53.8078 4.87867ZM1.00015 6.58578L53.1007 6.58578V4.58578L1.00015 4.58578V6.58578ZM1.00015 6.58578V4.58578C-0.10442 4.58578 -0.999851 5.48121 -0.999851 6.58578L1.00015 6.58578ZM1.00015 6.58578L-0.999851 6.58578C-0.999851 7.69035 -0.10442 8.58578 1.00015 8.58578V6.58578Z" fill="#002B49" mask="url(#path-1-inside-1)"/>
<mask id="mask0" mask-type="alpha" maskUnits="userSpaceOnUse" x="0" y="0" width="57" height="14">
<mask id="path-3-inside-2" mask-type="luminance" fill="white">
<path fill-rule="evenodd" clip-rule="evenodd" d="M1.00015 7.58578L53.586 7.58578L49.222 11.9498C48.8315 12.3403 48.8315 12.9735 49.222 13.364C49.6125 13.7545 50.2457 13.7545 50.6362 13.364L56.293 7.70711C56.5321 7.46803 56.6248 7.138 56.5712 6.82839C56.6248 6.51878 56.5321 6.18878 56.293 5.9497L50.6361 0.292891C50.2456 -0.0976305 49.6124 -0.0976303 49.2219 0.292891C48.8314 0.683413 48.8314 1.31657 49.2219 1.70709L53.1007 5.58578L1.00015 5.58578C0.447865 5.58578 0.000148773 6.0335 0.000148773 6.58578C0.000148773 7.13807 0.447865 7.58578 1.00015 7.58578Z"/>
</mask>
<path fill-rule="evenodd" clip-rule="evenodd" d="M1.00015 7.58578L53.586 7.58578L49.222 11.9498C48.8315 12.3403 48.8315 12.9735 49.222 13.364C49.6125 13.7545 50.2457 13.7545 50.6362 13.364L56.293 7.70711C56.5321 7.46803 56.6248 7.138 56.5712 6.82839C56.6248 6.51878 56.5321 6.18878 56.293 5.9497L50.6361 0.292891C50.2456 -0.0976305 49.6124 -0.0976303 49.2219 0.292891C48.8314 0.683413 48.8314 1.31657 49.2219 1.70709L53.1007 5.58578L1.00015 5.58578C0.447865 5.58578 0.000148773 6.0335 0.000148773 6.58578C0.000148773 7.13807 0.447865 7.58578 1.00015 7.58578Z" fill="white"/>
<path d="M53.586 7.58578L54.2931 8.29288L56.0002 6.58578L53.586 6.58578V7.58578ZM49.222 11.9498L48.5149 11.2427L49.222 11.9498ZM50.6362 13.364L51.3433 14.0711L51.3433 14.0711L50.6362 13.364ZM56.293 7.70711L57.0002 8.41422H57.0002L56.293 7.70711ZM56.5712 6.82839L55.5859 6.65767L55.5563 6.8284L55.5859 6.99913L56.5712 6.82839ZM56.293 5.9497L57.0001 5.24259H57.0001L56.293 5.9497ZM50.6361 0.292891L49.929 1V1L50.6361 0.292891ZM49.2219 0.292891L49.929 1L49.2219 0.292891ZM49.2219 1.70709L49.929 0.999983V0.999983L49.2219 1.70709ZM53.1007 5.58578V6.58578L55.5149 6.58578L53.8078 4.87867L53.1007 5.58578ZM53.586 6.58578L1.00015 6.58578V8.58578L53.586 8.58578V6.58578ZM49.9291 12.6569L54.2931 8.29288L52.8789 6.87868L48.5149 11.2427L49.9291 12.6569ZM49.9291 12.6569L49.9291 12.6569L48.5149 11.2427C47.7339 12.0237 47.7339 13.2901 48.5149 14.0711L49.9291 12.6569ZM49.9291 12.6569H49.9291L48.5149 14.0711C49.296 14.8522 50.5623 14.8522 51.3433 14.0711L49.9291 12.6569ZM55.5859 7.00001L49.9291 12.6569L51.3433 14.0711L57.0002 8.41422L55.5859 7.00001ZM55.5859 6.99913L55.5859 7.00001L57.0002 8.41422C57.4789 7.93547 57.6633 7.27395 57.5565 6.65764L55.5859 6.99913ZM55.5859 6.65682L55.5859 6.65767L57.5565 6.9991C57.6633 6.38281 57.4789 5.72132 57.0001 5.24259L55.5859 6.65682ZM49.929 1L55.5859 6.65682L57.0001 5.24259L51.3432 -0.414221L49.929 1ZM49.929 1L49.929 1L51.3432 -0.414221C50.5622 -1.19526 49.2959 -1.19526 48.5148 -0.414221L49.929 1ZM49.929 0.999983V1L48.5148 -0.414221C47.7338 0.366827 47.7338 1.63316 48.5148 2.41421L49.929 0.999983ZM53.8078 4.87867L49.929 0.999983L48.5148 2.41421L52.3936 6.29289L53.8078 4.87867ZM1.00015 6.58578L53.1007 6.58578V4.58578L1.00015 4.58578V6.58578ZM1.00015 6.58578V4.58578C-0.10442 4.58578 -0.999851 5.48121 -0.999851 6.58578L1.00015 6.58578ZM1.00015 6.58578L-0.999851 6.58578C-0.999851 7.69035 -0.10442 8.58578 1.00015 8.58578V6.58578Z" fill="white" mask="url(#path-3-inside-2)"/>
</mask>
<g mask="url(#mask0)">
<rect x="0.050293" y="-17.8789" width="57" height="50" fill="#002B49"/>
</g>
</svg>
