<svg width="16" height="16" viewBox="0 0 16 16" fill="none" xmlns="http://www.w3.org/2000/svg">
<path fill-rule="evenodd" clip-rule="evenodd" d="M14.5 8C14.5 11.5899 11.5899 14.5 8 14.5C4.41015 14.5 1.5 11.5899 1.5 8C1.5 4.41015 4.41015 1.5 8 1.5C11.5899 1.5 14.5 4.41015 14.5 8ZM0 8C0 12.4183 3.58172 16 8 16C12.4183 16 16 12.4183 16 8C16 3.58172 12.4183 0 8 0C3.58172 0 0 3.58172 0 8ZM4.46436 5.87869L5.87857 4.46448L7.99989 6.5858L10.1212 4.46448L11.5354 5.87869L9.4141 8.00001L11.5354 10.1213L10.1212 11.5355L7.99989 9.41422L5.87857 11.5355L4.46436 10.1213L6.58568 8.00001L4.46436 5.87869Z" fill="#5A6872"/>
</svg>
