<svg width="26" height="24" viewBox="0 0 26 24" fill="none" xmlns="http://www.w3.org/2000/svg">
<path fill-rule="evenodd" clip-rule="evenodd" d="M2.5 3H23.5C24.3284 3 25 3.67157 25 4.5V18C25 18.8284 24.3284 19.5 23.5 19.5H2.5C1.67157 19.5 1 18.8284 1 18V4.5C1 3.67157 1.67157 3 2.5 3ZM2.5 5.22922V18H23.5V5.23086L13.4516 12.6047C13.1877 12.7983 12.8286 12.7984 12.5646 12.6049L2.5 5.22922ZM4.04256 4.5L13.0076 11.0699L21.9606 4.5H4.04256Z" fill="#00A6A0"/>
<path d="M2.5 18H2.25V18.25H2.5V18ZM2.5 5.22922L2.64778 5.02757L2.25 4.73607V5.22922H2.5ZM23.5 18V18.25H23.75V18H23.5ZM23.5 5.23086H23.75V4.73732L23.3521 5.02931L23.5 5.23086ZM13.4516 12.6047L13.5995 12.8062L13.5995 12.8062L13.4516 12.6047ZM12.5646 12.6049L12.7123 12.4033L12.7123 12.4033L12.5646 12.6049ZM4.04256 4.5V4.25H3.27848L3.89478 4.70165L4.04256 4.5ZM13.0076 11.0699L12.8598 11.2716L13.0077 11.38L13.1555 11.2715L13.0076 11.0699ZM21.9606 4.5L22.1085 4.70155L22.7238 4.25H21.9606V4.5ZM23.5 2.75H2.5V3.25H23.5V2.75ZM25.25 4.5C25.25 3.5335 24.4665 2.75 23.5 2.75V3.25C24.1904 3.25 24.75 3.80964 24.75 4.5H25.25ZM25.25 18V4.5H24.75V18H25.25ZM23.5 19.75C24.4665 19.75 25.25 18.9665 25.25 18H24.75C24.75 18.6904 24.1904 19.25 23.5 19.25V19.75ZM2.5 19.75H23.5V19.25H2.5V19.75ZM0.75 18C0.75 18.9665 1.5335 19.75 2.5 19.75V19.25C1.80964 19.25 1.25 18.6904 1.25 18H0.75ZM0.75 4.5V18H1.25V4.5H0.75ZM2.5 2.75C1.5335 2.75 0.75 3.5335 0.75 4.5H1.25C1.25 3.80964 1.80964 3.25 2.5 3.25V2.75ZM2.75 18V5.22922H2.25V18H2.75ZM23.5 17.75H2.5V18.25H23.5V17.75ZM23.25 5.23086V18H23.75V5.23086H23.25ZM23.3521 5.02931L13.3037 12.4031L13.5995 12.8062L23.6479 5.43242L23.3521 5.02931ZM13.3037 12.4031C13.1277 12.5322 12.8884 12.5323 12.7123 12.4033L12.4168 12.8066C12.7689 13.0646 13.2476 13.0644 13.5995 12.8062L13.3037 12.4031ZM12.7123 12.4033L2.64778 5.02757L2.35222 5.43087L12.4168 12.8066L12.7123 12.4033ZM3.89478 4.70165L12.8598 11.2716L13.1554 10.8683L4.19033 4.29835L3.89478 4.70165ZM13.1555 11.2715L22.1085 4.70155L21.8127 4.29845L12.8597 10.8684L13.1555 11.2715ZM4.04256 4.75H21.9606V4.25H4.04256V4.75Z" fill="#00A6A0"/>
</svg>
