<svg width="16" height="16" viewBox="0 0 16 16" fill="none" xmlns="http://www.w3.org/2000/svg">
<path fill-rule="evenodd" clip-rule="evenodd" d="M16 8C16 12.4183 12.4183 16 8 16C3.58172 16 0 12.4183 0 8C0 3.58172 3.58172 0 8 0C12.4183 0 16 3.58172 16 8ZM9 13C9 13.5523 8.55229 14 8 14C7.44772 14 7 13.5523 7 13C7 12.4477 7.44772 12 8 12C8.55229 12 9 12.4477 9 13ZM4.5 6.18239C4.5 4.4248 5.9248 3 7.68239 3H8.67761C10.4352 3 11.86 4.4248 11.86 6.18239C11.86 7.91578 10.4742 9.32549 8.75 9.36397V10.5H7.25V7.86322H8.75V7.86325C9.64558 7.82534 10.36 7.08729 10.36 6.18239C10.36 5.25323 9.60677 4.5 8.67761 4.5H7.68239C6.75323 4.5 6 5.25323 6 6.18239H4.5Z" fill="#002B49"/>
</svg>
