<svg width="20" height="17" viewBox="0 0 20 17" fill="none" xmlns="http://www.w3.org/2000/svg">
<path fill-rule="evenodd" clip-rule="evenodd" d="M1 1.357C1 1.15983 1.15983 1 1.357 1H18.493C18.6902 1 18.85 1.15983 18.85 1.357C18.85 1.55417 18.6902 1.714 18.493 1.714H1.357C1.15984 1.714 1 1.55417 1 1.357ZM1 8.49701C1 8.29985 1.15983 8.14001 1.357 8.14001H14.923C15.1202 8.14001 15.28 8.29985 15.28 8.49701C15.28 8.69418 15.1202 8.85401 14.923 8.85401H1.357C1.15983 8.85401 1 8.69418 1 8.49701ZM1.357 15.28C1.15983 15.28 1 15.4399 1 15.637C1 15.8342 1.15984 15.994 1.357 15.994H11.353C11.5502 15.994 11.71 15.8342 11.71 15.637C11.71 15.4399 11.5502 15.28 11.353 15.28H1.357Z" fill="#002B49"/>
<path d="M1.357 0.65C0.966535 0.65 0.65 0.966535 0.65 1.357H1.35C1.35 1.35313 1.35313 1.35 1.357 1.35V0.65ZM18.493 0.65H1.357V1.35H18.493V0.65ZM19.2 1.357C19.2 0.966533 18.8835 0.65 18.493 0.65V1.35C18.4969 1.35 18.5 1.35314 18.5 1.357H19.2ZM18.493 2.064C18.8835 2.064 19.2 1.74747 19.2 1.357H18.5C18.5 1.36087 18.4969 1.364 18.493 1.364V2.064ZM1.357 2.064H18.493V1.364H1.357V2.064ZM0.65 1.357C0.65 1.74747 0.966536 2.064 1.357 2.064V1.364C1.35313 1.364 1.35 1.36087 1.35 1.357H0.65ZM1.357 7.79001C0.966535 7.79001 0.65 8.10655 0.65 8.49701H1.35C1.35 8.49315 1.35313 8.49001 1.357 8.49001V7.79001ZM14.923 7.79001H1.357V8.49001H14.923V7.79001ZM15.63 8.49701C15.63 8.10655 15.3135 7.79001 14.923 7.79001V8.49001C14.9269 8.49001 14.93 8.49315 14.93 8.49701H15.63ZM14.923 9.20401C15.3135 9.20401 15.63 8.88748 15.63 8.49701H14.93C14.93 8.50088 14.9269 8.50401 14.923 8.50401V9.20401ZM1.357 9.20401H14.923V8.50401H1.357V9.20401ZM0.65 8.49701C0.65 8.88748 0.966536 9.20401 1.357 9.20401V8.50401C1.35313 8.50401 1.35 8.50088 1.35 8.49701H0.65ZM1.35 15.637C1.35 15.6332 1.35313 15.63 1.357 15.63V14.93C0.966535 14.93 0.65 15.2466 0.65 15.637H1.35ZM1.357 15.644C1.35313 15.644 1.35 15.6409 1.35 15.637H0.65C0.65 16.0275 0.966537 16.344 1.357 16.344V15.644ZM11.353 15.644H1.357V16.344H11.353V15.644ZM11.36 15.637C11.36 15.6409 11.3569 15.644 11.353 15.644V16.344C11.7435 16.344 12.06 16.0275 12.06 15.637H11.36ZM11.353 15.63C11.3569 15.63 11.36 15.6332 11.36 15.637H12.06C12.06 15.2466 11.7435 14.93 11.353 14.93V15.63ZM1.357 15.63H11.353V14.93H1.357V15.63Z" fill="#002B49"/>
</svg>
