<svg width="24" height="24" viewBox="0 0 24 24" fill="none" xmlns="http://www.w3.org/2000/svg">
<path fill-rule="evenodd" clip-rule="evenodd" d="M3.83333 2.25C2.95888 2.25 2.25 2.95888 2.25 3.83333V5C2.25 14.2508 9.74923 21.75 19 21.75H20.1667C21.0412 21.75 21.75 21.0412 21.75 20.1667V16.3409C21.75 16.1615 21.6353 16.0023 21.4651 15.9456L16.2228 14.1982C16.0261 14.1326 15.811 14.2216 15.7182 14.4071L14.4016 17.0406C14.2216 17.4006 13.7894 17.5543 13.4225 17.3889C10.4036 16.0278 7.97225 13.5964 6.61113 10.5775C6.44568 10.2106 6.59941 9.77844 6.95944 9.59843L9.59293 8.2817C9.59293 8.2817 9.59292 8.2817 9.59293 8.2817C9.77834 8.18898 9.8674 7.97401 9.80182 7.77729L8.05439 2.5349C7.99768 2.36477 7.83846 2.25 7.65911 2.25H3.83333ZM0.75 3.83333C0.75 2.13045 2.13045 0.75 3.83333 0.75H7.65911C8.4841 0.75 9.21654 1.27791 9.47742 2.06057L11.2248 7.30287C11.2248 7.30288 11.2248 7.30285 11.2248 7.30287C11.5265 8.20772 11.1169 9.19675 10.2638 9.62333L8.29402 10.6082C9.43492 12.7814 11.2186 14.5651 13.3918 15.706L14.3766 13.7363C14.8033 12.8832 15.7922 12.4735 16.6971 12.7752C16.6971 12.7752 16.6971 12.7752 16.6971 12.7752L21.9394 14.5226C22.7221 14.7835 23.25 15.5159 23.25 16.3409V20.1667C23.25 21.8696 21.8696 23.25 20.1667 23.25H19C8.92081 23.25 0.75 15.0792 0.75 5V3.83333Z" fill="#00A6A0"/>
<path d="M9.59293 8.2817L6.95944 9.59843C6.59941 9.77844 6.44568 10.2106 6.61113 10.5775C7.97225 13.5964 10.4036 16.0278 13.4225 17.3889C13.7894 17.5543 14.2216 17.4006 14.4016 17.0406L15.7182 14.4071C15.811 14.2216 16.0261 14.1326 16.2228 14.1982L21.4651 15.9456C21.6353 16.0023 21.75 16.1615 21.75 16.3409V20.1667C21.75 21.0412 21.0412 21.75 20.1667 21.75H19C9.74923 21.75 2.25 14.2508 2.25 5V3.83333C2.25 2.95888 2.95888 2.25 3.83333 2.25H7.65911C7.83846 2.25 7.99768 2.36477 8.05439 2.5349M9.59293 8.2817C9.59292 8.2817 9.59293 8.2817 9.59293 8.2817ZM9.59293 8.2817C9.77834 8.18898 9.8674 7.97401 9.80182 7.77729L8.05439 2.5349M8.05439 2.5349L8.76591 2.29773M11.2248 7.30287L9.47742 2.06057C9.21654 1.27791 8.4841 0.75 7.65911 0.75H3.83333C2.13045 0.75 0.75 2.13045 0.75 3.83333V5C0.75 15.0792 8.92081 23.25 19 23.25H20.1667C21.8696 23.25 23.25 21.8696 23.25 20.1667V16.3409C23.25 15.5159 22.7221 14.7835 21.9394 14.5226L16.6971 12.7752M11.2248 7.30287C11.2248 7.30285 11.2248 7.30288 11.2248 7.30287ZM11.2248 7.30287C11.5265 8.20772 11.1169 9.19675 10.2638 9.62333L8.29402 10.6082C9.43492 12.7814 11.2186 14.5651 13.3918 15.706L14.3766 13.7363C14.8033 12.8832 15.7922 12.4735 16.6971 12.7752M16.6971 12.7752C16.6971 12.7752 16.6971 12.7752 16.6971 12.7752Z" stroke="#00A6A0" stroke-width="0.5" stroke-linecap="round" stroke-linejoin="round"/>
</svg>
