<svg width="18" height="18" viewBox="0 0 18 18" fill="none" xmlns="http://www.w3.org/2000/svg">
<path fill-rule="evenodd" clip-rule="evenodd" d="M7.5 14C3.91015 14 1 11.0899 1 7.5C1 3.91015 3.91015 1 7.5 1C11.0899 1 14 3.91015 14 7.5C14 9.11514 13.4109 10.5927 12.4359 11.7295L16.9988 16.2874L16.2921 16.9949L11.7287 12.4366C10.592 13.4112 9.11476 14 7.5 14ZM7.5 13C10.5376 13 13 10.5376 13 7.5C13 4.46243 10.5376 2 7.5 2C4.46243 2 2 4.46243 2 7.5C2 10.5376 4.46243 13 7.5 13Z" fill="#002B49"/>
<path d="M12.4359 11.7295L12.1702 11.5016L11.959 11.7479L12.1885 11.9771L12.4359 11.7295ZM16.9988 16.2874L17.2465 16.5348L17.4938 16.2871L17.2462 16.0398L16.9988 16.2874ZM16.2921 16.9949L16.0448 17.2425L16.2924 17.4899L16.5397 17.2423L16.2921 16.9949ZM11.7287 12.4366L11.9761 12.1889L11.7468 11.96L11.5009 12.1708L11.7287 12.4366ZM0.65 7.5C0.65 11.2832 3.71685 14.35 7.5 14.35V13.65C4.10345 13.65 1.35 10.8966 1.35 7.5H0.65ZM7.5 0.65C3.71685 0.65 0.65 3.71685 0.65 7.5H1.35C1.35 4.10345 4.10345 1.35 7.5 1.35V0.65ZM14.35 7.5C14.35 3.71685 11.2832 0.65 7.5 0.65V1.35C10.8966 1.35 13.65 4.10345 13.65 7.5H14.35ZM12.7015 11.9574C13.7289 10.7595 14.35 9.20183 14.35 7.5H13.65C13.65 9.02844 13.0929 10.4259 12.1702 11.5016L12.7015 11.9574ZM12.1885 11.9771L16.7515 16.535L17.2462 16.0398L12.6832 11.4819L12.1885 11.9771ZM16.7512 16.0401L16.0445 16.7476L16.5397 17.2423L17.2465 16.5348L16.7512 16.0401ZM16.5395 16.7473L11.9761 12.1889L11.4814 12.6842L16.0448 17.2425L16.5395 16.7473ZM7.5 14.35C9.20144 14.35 10.7588 13.7292 11.9565 12.7023L11.5009 12.1708C10.4252 13.0931 9.02808 13.65 7.5 13.65V14.35ZM12.65 7.5C12.65 10.3443 10.3443 12.65 7.5 12.65V13.35C10.7309 13.35 13.35 10.7309 13.35 7.5H12.65ZM7.5 2.35C10.3443 2.35 12.65 4.65573 12.65 7.5H13.35C13.35 4.26913 10.7309 1.65 7.5 1.65V2.35ZM2.35 7.5C2.35 4.65573 4.65573 2.35 7.5 2.35V1.65C4.26913 1.65 1.65 4.26913 1.65 7.5H2.35ZM7.5 12.65C4.65573 12.65 2.35 10.3443 2.35 7.5H1.65C1.65 10.7309 4.26913 13.35 7.5 13.35V12.65Z" fill="#002B49"/>
</svg>
