<svg width="18" height="18" viewBox="0 0 18 18" fill="none" xmlns="http://www.w3.org/2000/svg">
<path fill-rule="evenodd" clip-rule="evenodd" d="M17.38 9.19C17.38 13.7132 13.7132 17.38 9.19 17.38C4.66679 17.38 1 13.7132 1 9.19C1 4.66679 4.66679 1 9.19 1C13.7132 1 17.38 4.66679 17.38 9.19ZM3.77601 14.4304C5.14578 15.8453 7.06518 16.7248 9.19 16.7248C11.3148 16.7248 13.2342 15.8453 14.604 14.4304C14.0087 11.9615 11.7909 10.1808 9.20737 10.1728C9.20161 10.1728 9.19584 10.1728 9.19006 10.1728C9.18427 10.1728 9.17848 10.1728 9.1727 10.1728C6.58828 10.1807 4.371 11.9624 3.77601 14.4304ZM3.26123 13.8406C2.25519 12.5598 1.6552 10.945 1.6552 9.19C1.6552 5.02865 5.02865 1.6552 9.19 1.6552C13.3514 1.6552 16.7248 5.02865 16.7248 9.19C16.7248 10.945 16.1248 12.5598 15.1188 13.8406C14.4743 11.8256 12.8433 10.2847 10.8262 9.73563C11.8064 9.16945 12.4661 8.11018 12.4661 6.89685C12.4661 5.08756 10.9993 3.62085 9.19006 3.62085C7.38078 3.62085 5.91406 5.08756 5.91406 6.89685C5.91406 8.11016 6.57366 9.16941 7.55383 9.7356C5.53629 10.2848 3.90555 11.8262 3.26123 13.8406ZM9.20644 9.5176C9.20096 9.51758 9.19548 9.51758 9.19 9.51758C9.18454 9.51758 9.17909 9.51758 9.17364 9.5176C7.73377 9.50877 6.56926 8.3388 6.56926 6.89685C6.56926 5.44942 7.74263 4.27605 9.19006 4.27605C10.6375 4.27605 11.8109 5.44942 11.8109 6.89685C11.8109 8.33881 10.6463 9.50879 9.20644 9.5176Z" fill="#002B49"/>
<path d="M3.77601 14.4304L3.43576 14.3484L3.39064 14.5356L3.52455 14.6739L3.77601 14.4304ZM14.604 14.4304L14.8554 14.6739L14.9893 14.5356L14.9442 14.3484L14.604 14.4304ZM9.20737 10.1728L9.20845 9.82279L9.20558 9.82281L9.20737 10.1728ZM9.1727 10.1728L9.17449 9.8228L9.17163 9.82281L9.1727 10.1728ZM3.26123 13.8406L2.98599 14.0568L3.39357 14.5757L3.59459 13.9472L3.26123 13.8406ZM15.1188 13.8406L14.7854 13.9472L14.9864 14.5757L15.394 14.0568L15.1188 13.8406ZM10.8262 9.73563L10.6512 9.43256L9.92381 9.8527L10.7343 10.0733L10.8262 9.73563ZM7.55383 9.7356L7.64575 10.0733L8.45626 9.85268L7.72889 9.43253L7.55383 9.7356ZM9.20644 9.5176L9.20553 9.86761L9.20858 9.86759L9.20644 9.5176ZM9.17364 9.5176L9.1715 9.86761L9.17456 9.8676L9.17364 9.5176ZM9.19 17.73C13.9065 17.73 17.73 13.9065 17.73 9.19H17.03C17.03 13.5199 13.5199 17.03 9.19 17.03V17.73ZM0.65 9.19C0.65 13.9065 4.47349 17.73 9.19 17.73V17.03C4.86009 17.03 1.35 13.5199 1.35 9.19H0.65ZM9.19 0.65C4.47349 0.65 0.65 4.47349 0.65 9.19H1.35C1.35 4.86009 4.86009 1.35 9.19 1.35V0.65ZM17.73 9.19C17.73 4.47349 13.9065 0.65 9.19 0.65V1.35C13.5199 1.35 17.03 4.86009 17.03 9.19H17.73ZM9.19 16.3748C7.16382 16.3748 5.33404 15.5365 4.02747 14.187L3.52455 14.6739C4.95753 16.154 6.96654 17.0748 9.19 17.0748V16.3748ZM14.3525 14.187C13.0459 15.5365 11.2162 16.3748 9.19 16.3748V17.0748C11.4135 17.0748 13.4225 16.154 14.8554 14.6739L14.3525 14.187ZM9.2063 10.5228C11.6275 10.5303 13.706 12.1993 14.2637 14.5125L14.9442 14.3484C14.3114 11.7237 11.9544 9.83126 9.20845 9.82281L9.2063 10.5228ZM9.19006 10.5229C9.19645 10.5229 9.20282 10.5228 9.20917 10.5228L9.20558 9.82281C9.20039 9.82284 9.19522 9.82285 9.19006 9.82285V10.5229ZM9.17091 10.5228C9.17727 10.5228 9.18366 10.5229 9.19006 10.5229V9.82285C9.18489 9.82285 9.1797 9.82284 9.17449 9.82281L9.17091 10.5228ZM4.11626 14.5125C4.67372 12.2001 6.75179 10.5302 9.17377 10.5228L9.17163 9.82281C6.42476 9.83122 4.06828 11.7247 3.43576 14.3484L4.11626 14.5125ZM3.53647 13.6244C2.57713 12.4031 2.0052 10.8638 2.0052 9.19H1.3052C1.3052 11.0261 1.93324 12.7165 2.98599 14.0568L3.53647 13.6244ZM2.0052 9.19C2.0052 5.22194 5.22194 2.0052 9.19 2.0052V1.3052C4.83535 1.3052 1.3052 4.83535 1.3052 9.19H2.0052ZM9.19 2.0052C13.1581 2.0052 16.3748 5.22194 16.3748 9.19H17.0748C17.0748 4.83535 13.5447 1.3052 9.19 1.3052V2.0052ZM16.3748 9.19C16.3748 10.8638 15.8029 12.4031 14.8435 13.6244L15.394 14.0568C16.4467 12.7166 17.0748 11.0261 17.0748 9.19H16.3748ZM15.4521 13.734C14.7711 11.605 13.0486 9.97787 10.9182 9.39792L10.7343 10.0733C12.638 10.5916 14.1774 12.0463 14.7854 13.9472L15.4521 13.734ZM11.0013 10.0387C12.0853 9.41256 12.8161 8.24025 12.8161 6.89685H12.1161C12.1161 7.98011 11.5276 8.92634 10.6512 9.43256L11.0013 10.0387ZM12.8161 6.89685C12.8161 4.89427 11.1926 3.27085 9.19006 3.27085V3.97085C10.806 3.97085 12.1161 5.28086 12.1161 6.89685H12.8161ZM9.19006 3.27085C7.18748 3.27085 5.56406 4.89427 5.56406 6.89685H6.26406C6.26406 5.28086 7.57408 3.97085 9.19006 3.97085V3.27085ZM5.56406 6.89685C5.56406 8.24023 6.29478 9.41252 7.37876 10.0387L7.72889 9.43253C6.85253 8.92631 6.26406 7.98009 6.26406 6.89685H5.56406ZM7.4619 9.39789C5.33098 9.97794 3.60864 11.6056 2.92787 13.7339L3.59459 13.9472C4.20245 12.0468 5.74161 10.5916 7.64575 10.0733L7.4619 9.39789ZM9.20735 9.1676C9.20155 9.16759 9.19576 9.16758 9.19 9.16758V9.86758C9.1952 9.86758 9.20037 9.86758 9.20553 9.8676L9.20735 9.1676ZM9.19 9.16758C9.18426 9.16758 9.1785 9.16759 9.17273 9.1676L9.17456 9.8676C9.17969 9.86758 9.18483 9.86758 9.19 9.86758V9.16758ZM9.17579 9.16761C7.92826 9.15995 6.91926 8.14622 6.91926 6.89685H6.21926C6.21926 8.53138 7.53929 9.85758 9.1715 9.86759L9.17579 9.16761ZM6.91926 6.89685C6.91926 5.64272 7.93593 4.62605 9.19006 4.62605V3.92605C7.54934 3.92605 6.21926 5.25612 6.21926 6.89685H6.91926ZM9.19006 4.62605C10.4442 4.62605 11.4609 5.64272 11.4609 6.89685H12.1609C12.1609 5.25612 10.8308 3.92605 9.19006 3.92605V4.62605ZM11.4609 6.89685C11.4609 8.14623 10.4518 9.15997 9.2043 9.16761L9.20858 9.86759C10.8408 9.8576 12.1609 8.5314 12.1609 6.89685H11.4609Z" fill="#002B49"/>
</svg>
