<svg width="35" height="14" viewBox="0 0 35 14" fill="none" xmlns="http://www.w3.org/2000/svg">
<g opacity="0.3">
<mask id="path-1-inside-1" fill="white">
<path fill-rule="evenodd" clip-rule="evenodd" d="M0.0147491 6.82846C-0.038901 6.51885 0.0538137 6.18883 0.292893 5.94975L5.94975 0.292893C6.34027 -0.0976311 6.97344 -0.0976311 7.36396 0.292893C7.75449 0.683417 7.75449 1.31658 7.36396 1.70711L3.48523 5.58584L33.5858 5.58584C34.1381 5.58584 34.5858 6.03356 34.5858 6.58584C34.5858 7.13812 34.1381 7.58584 33.5858 7.58584L3 7.58584L7.36396 11.9498C7.75449 12.3403 7.75449 12.9735 7.36396 13.364C6.97344 13.7545 6.34027 13.7545 5.94975 13.364L0.292895 7.70716C0.0538173 7.46808 -0.0388979 7.13807 0.0147491 6.82846Z"/>
</mask>
<path fill-rule="evenodd" clip-rule="evenodd" d="M0.0147491 6.82846C-0.038901 6.51885 0.0538137 6.18883 0.292893 5.94975L5.94975 0.292893C6.34027 -0.0976311 6.97344 -0.0976311 7.36396 0.292893C7.75449 0.683417 7.75449 1.31658 7.36396 1.70711L3.48523 5.58584L33.5858 5.58584C34.1381 5.58584 34.5858 6.03356 34.5858 6.58584C34.5858 7.13812 34.1381 7.58584 33.5858 7.58584L3 7.58584L7.36396 11.9498C7.75449 12.3403 7.75449 12.9735 7.36396 13.364C6.97344 13.7545 6.34027 13.7545 5.94975 13.364L0.292895 7.70716C0.0538173 7.46808 -0.0388979 7.13807 0.0147491 6.82846Z" fill="#002B49"/>
<path d="M0.292893 5.94975L1 6.65685L1 6.65685L0.292893 5.94975ZM0.0147491 6.82846L1.00007 6.65772L1.02965 6.82845L1.00007 6.99919L0.0147491 6.82846ZM5.94975 0.292893L5.24264 -0.414214V-0.414214L5.94975 0.292893ZM7.36396 0.292893L6.65685 1L7.36396 0.292893ZM7.36396 1.70711L6.65685 1V1L7.36396 1.70711ZM3.48523 5.58584L3.48523 6.58584L1.07101 6.58584L2.77812 4.87873L3.48523 5.58584ZM3 7.58584L2.29289 8.29295L0.585788 6.58584L3 6.58584V7.58584ZM7.36396 11.9498L8.07107 11.2427H8.07107L7.36396 11.9498ZM7.36396 13.364L8.07107 14.0711H8.07107L7.36396 13.364ZM5.94975 13.364L6.65686 12.6569H6.65686L5.94975 13.364ZM0.292895 7.70716L-0.414212 8.41427H-0.414212L0.292895 7.70716ZM1 6.65685L1.00007 6.65772L-0.970567 6.9992C-1.07736 6.38289 -0.892955 5.72138 -0.414213 5.24264L1 6.65685ZM6.65685 1L1 6.65685L-0.414213 5.24264L5.24264 -0.414214L6.65685 1ZM6.65685 1H6.65685L5.24264 -0.414214C6.02369 -1.19526 7.29002 -1.19526 8.07107 -0.414214L6.65685 1ZM6.65685 1V1L8.07107 -0.414214C8.85212 0.366835 8.85212 1.63317 8.07107 2.41421L6.65685 1ZM2.77812 4.87873L6.65685 1L8.07107 2.41421L4.19233 6.29295L2.77812 4.87873ZM33.5858 6.58584L3.48523 6.58584L3.48523 4.58584L33.5858 4.58584V6.58584ZM33.5858 6.58584V4.58584C34.6904 4.58584 35.5858 5.48127 35.5858 6.58584H33.5858ZM33.5858 6.58584H35.5858C35.5858 7.69041 34.6904 8.58584 33.5858 8.58584V6.58584ZM3 6.58584L33.5858 6.58584V8.58584L3 8.58584L3 6.58584ZM6.65686 12.6569L2.29289 8.29295L3.70711 6.87873L8.07107 11.2427L6.65686 12.6569ZM6.65686 12.6569V12.6569L8.07107 11.2427C8.85212 12.0237 8.85212 13.2901 8.07107 14.0711L6.65686 12.6569ZM6.65686 12.6569V12.6569L8.07107 14.0711C7.29002 14.8522 6.02369 14.8522 5.24264 14.0711L6.65686 12.6569ZM1 7.00005L6.65686 12.6569L5.24264 14.0711L-0.414212 8.41427L1 7.00005ZM1.00007 6.99919L1 7.00005L-0.414212 8.41427C-0.892949 7.93553 -1.07736 7.27403 -0.970569 6.65773L1.00007 6.99919Z" fill="#002B49" mask="url(#path-1-inside-1)"/>
<mask id="mask0" mask-type="alpha" maskUnits="userSpaceOnUse" x="0" y="0" width="35" height="14">
<mask id="path-3-inside-2" mask-type="luminance" fill="white">
<path fill-rule="evenodd" clip-rule="evenodd" d="M0.0147491 6.82846C-0.038901 6.51885 0.0538137 6.18883 0.292893 5.94975L5.94975 0.292893C6.34027 -0.0976311 6.97344 -0.0976311 7.36396 0.292893C7.75449 0.683417 7.75449 1.31658 7.36396 1.70711L3.48523 5.58584L33.5858 5.58584C34.1381 5.58584 34.5858 6.03356 34.5858 6.58584C34.5858 7.13812 34.1381 7.58584 33.5858 7.58584L3 7.58584L7.36396 11.9498C7.75449 12.3403 7.75449 12.9735 7.36396 13.364C6.97344 13.7545 6.34027 13.7545 5.94975 13.364L0.292895 7.70716C0.0538173 7.46808 -0.0388979 7.13807 0.0147491 6.82846Z"/>
</mask>
<path fill-rule="evenodd" clip-rule="evenodd" d="M0.0147491 6.82846C-0.038901 6.51885 0.0538137 6.18883 0.292893 5.94975L5.94975 0.292893C6.34027 -0.0976311 6.97344 -0.0976311 7.36396 0.292893C7.75449 0.683417 7.75449 1.31658 7.36396 1.70711L3.48523 5.58584L33.5858 5.58584C34.1381 5.58584 34.5858 6.03356 34.5858 6.58584C34.5858 7.13812 34.1381 7.58584 33.5858 7.58584L3 7.58584L7.36396 11.9498C7.75449 12.3403 7.75449 12.9735 7.36396 13.364C6.97344 13.7545 6.34027 13.7545 5.94975 13.364L0.292895 7.70716C0.0538173 7.46808 -0.0388979 7.13807 0.0147491 6.82846Z" fill="white"/>
<path d="M0.292893 5.94975L1 6.65685L1 6.65685L0.292893 5.94975ZM0.0147491 6.82846L1.00007 6.65772L1.02965 6.82845L1.00007 6.99919L0.0147491 6.82846ZM5.94975 0.292893L5.24264 -0.414214V-0.414214L5.94975 0.292893ZM7.36396 0.292893L6.65685 1L7.36396 0.292893ZM7.36396 1.70711L6.65685 1V1L7.36396 1.70711ZM3.48523 5.58584L3.48523 6.58584L1.07101 6.58584L2.77812 4.87873L3.48523 5.58584ZM3 7.58584L2.29289 8.29295L0.585788 6.58584L3 6.58584V7.58584ZM7.36396 11.9498L8.07107 11.2427H8.07107L7.36396 11.9498ZM7.36396 13.364L8.07107 14.0711H8.07107L7.36396 13.364ZM5.94975 13.364L6.65686 12.6569H6.65686L5.94975 13.364ZM0.292895 7.70716L-0.414212 8.41427H-0.414212L0.292895 7.70716ZM1 6.65685L1.00007 6.65772L-0.970567 6.9992C-1.07736 6.38289 -0.892955 5.72138 -0.414213 5.24264L1 6.65685ZM6.65685 1L1 6.65685L-0.414213 5.24264L5.24264 -0.414214L6.65685 1ZM6.65685 1H6.65685L5.24264 -0.414214C6.02369 -1.19526 7.29002 -1.19526 8.07107 -0.414214L6.65685 1ZM6.65685 1V1L8.07107 -0.414214C8.85212 0.366835 8.85212 1.63317 8.07107 2.41421L6.65685 1ZM2.77812 4.87873L6.65685 1L8.07107 2.41421L4.19233 6.29295L2.77812 4.87873ZM33.5858 6.58584L3.48523 6.58584L3.48523 4.58584L33.5858 4.58584V6.58584ZM33.5858 6.58584V4.58584C34.6904 4.58584 35.5858 5.48127 35.5858 6.58584H33.5858ZM33.5858 6.58584H35.5858C35.5858 7.69041 34.6904 8.58584 33.5858 8.58584V6.58584ZM3 6.58584L33.5858 6.58584V8.58584L3 8.58584L3 6.58584ZM6.65686 12.6569L2.29289 8.29295L3.70711 6.87873L8.07107 11.2427L6.65686 12.6569ZM6.65686 12.6569V12.6569L8.07107 11.2427C8.85212 12.0237 8.85212 13.2901 8.07107 14.0711L6.65686 12.6569ZM6.65686 12.6569V12.6569L8.07107 14.0711C7.29002 14.8522 6.02369 14.8522 5.24264 14.0711L6.65686 12.6569ZM1 7.00005L6.65686 12.6569L5.24264 14.0711L-0.414212 8.41427L1 7.00005ZM1.00007 6.99919L1 7.00005L-0.414212 8.41427C-0.892949 7.93553 -1.07736 7.27403 -0.970569 6.65773L1.00007 6.99919Z" fill="white" mask="url(#path-3-inside-2)"/>
</mask>
<g mask="url(#mask0)">
<rect width="50" height="50" transform="matrix(-1 0 0 1 49.5355 -17.8787)" fill="#002B49"/>
</g>
</g>
</svg>
