<svg width="58" height="14" viewBox="0 0 58 14" fill="none" xmlns="http://www.w3.org/2000/svg">
<mask id="path-1-inside-1" fill="white">
<path fill-rule="evenodd" clip-rule="evenodd" d="M1.48526 7.58582L54.071 7.58582L49.7071 11.9498C49.3165 12.3403 49.3165 12.9735 49.7071 13.364C50.0976 13.7545 50.7308 13.7545 51.1213 13.364L56.7782 7.70714C57.0172 7.46806 57.1099 7.13804 57.0563 6.82843C57.1099 6.51883 57.0172 6.18881 56.7782 5.94974L51.1213 0.292893C50.7308 -0.0976309 50.0976 -0.0976309 49.7071 0.292893C49.3165 0.683416 49.3165 1.31658 49.7071 1.7071L53.5858 5.58582L1.48526 5.58582C0.932972 5.58582 0.48526 6.03354 0.48526 6.58582C0.48526 7.13811 0.932972 7.58582 1.48526 7.58582Z"/>
</mask>
<path fill-rule="evenodd" clip-rule="evenodd" d="M1.48526 7.58582L54.071 7.58582L49.7071 11.9498C49.3165 12.3403 49.3165 12.9735 49.7071 13.364C50.0976 13.7545 50.7308 13.7545 51.1213 13.364L56.7782 7.70714C57.0172 7.46806 57.1099 7.13804 57.0563 6.82843C57.1099 6.51883 57.0172 6.18881 56.7782 5.94974L51.1213 0.292893C50.7308 -0.0976309 50.0976 -0.0976309 49.7071 0.292893C49.3165 0.683416 49.3165 1.31658 49.7071 1.7071L53.5858 5.58582L1.48526 5.58582C0.932972 5.58582 0.48526 6.03354 0.48526 6.58582C0.48526 7.13811 0.932972 7.58582 1.48526 7.58582Z" fill="#00A6A0"/>
<path d="M54.071 7.58582L54.7781 8.29293L56.4853 6.58582L54.071 6.58582V7.58582ZM1.48526 7.58582V8.58582V7.58582ZM49.7071 11.9498L49 11.2427H49L49.7071 11.9498ZM51.1213 13.364L51.8284 14.0711L51.1213 13.364ZM56.7782 7.70714L56.071 7.00003L56.071 7.00003L56.7782 7.70714ZM57.0563 6.82843L56.071 6.65771L56.0414 6.82844L56.071 6.99917L57.0563 6.82843ZM56.7782 5.94974L56.071 6.65684L56.071 6.65685L56.7782 5.94974ZM51.1213 0.292893L50.4142 1V1L51.1213 0.292893ZM49.7071 0.292893L49 -0.414216V-0.414215L49.7071 0.292893ZM49.7071 1.7071L49 2.41421L49.7071 1.7071ZM53.5858 5.58582V6.58582L56 6.58582L54.2929 4.87871L53.5858 5.58582ZM1.48526 5.58582V6.58582V5.58582ZM54.071 6.58582L1.48526 6.58582V8.58582L54.071 8.58582V6.58582ZM50.4142 12.6569L54.7781 8.29293L53.3639 6.87871L49 11.2427L50.4142 12.6569ZM50.4142 12.6569V12.6569L49 11.2427C48.2189 12.0237 48.2189 13.29 49 14.0711L50.4142 12.6569ZM50.4142 12.6569H50.4142L49 14.0711C49.781 14.8521 51.0473 14.8521 51.8284 14.0711L50.4142 12.6569ZM56.071 7.00003L50.4142 12.6569L51.8284 14.0711L57.4853 8.41425L56.071 7.00003ZM56.071 6.99917L56.071 7.00003L57.4853 8.41425C57.964 7.93551 58.1484 7.274 58.0416 6.6577L56.071 6.99917ZM56.071 6.65685L56.071 6.65771L58.0416 6.99916C58.1484 6.38286 57.964 5.72136 57.4853 5.24263L56.071 6.65685ZM50.4142 1L56.071 6.65684L57.4853 5.24263L51.8284 -0.414215L50.4142 1ZM50.4142 1L50.4142 1L51.8284 -0.414215C51.0473 -1.19526 49.781 -1.19526 49 -0.414216L50.4142 1ZM50.4142 0.999996L50.4142 1L49 -0.414215C48.2189 0.366833 48.2189 1.63316 49 2.41421L50.4142 0.999996ZM54.2929 4.87871L50.4142 0.999996L49 2.41421L52.8787 6.29293L54.2929 4.87871ZM1.48526 6.58582L53.5858 6.58582V4.58582L1.48526 4.58582V6.58582ZM1.48526 6.58582V4.58582C0.380684 4.58582 -0.51474 5.48126 -0.51474 6.58582H1.48526ZM1.48526 6.58582H1.48526H-0.51474C-0.51474 7.69039 0.380684 8.58582 1.48526 8.58582V6.58582Z" fill="#00A6A0" mask="url(#path-1-inside-1)"/>
<mask id="mask0" mask-type="alpha" maskUnits="userSpaceOnUse" x="0" y="0" width="58" height="14">
<mask id="path-3-inside-2" mask-type="luminance" fill="white">
<path fill-rule="evenodd" clip-rule="evenodd" d="M1.48526 7.58582L54.071 7.58582L49.7071 11.9498C49.3165 12.3403 49.3165 12.9735 49.7071 13.364C50.0976 13.7545 50.7308 13.7545 51.1213 13.364L56.7782 7.70714C57.0172 7.46806 57.1099 7.13804 57.0563 6.82843C57.1099 6.51883 57.0172 6.18881 56.7782 5.94974L51.1213 0.292893C50.7308 -0.0976309 50.0976 -0.0976309 49.7071 0.292893C49.3165 0.683416 49.3165 1.31658 49.7071 1.7071L53.5858 5.58582L1.48526 5.58582C0.932972 5.58582 0.48526 6.03354 0.48526 6.58582C0.48526 7.13811 0.932972 7.58582 1.48526 7.58582Z"/>
</mask>
<path fill-rule="evenodd" clip-rule="evenodd" d="M1.48526 7.58582L54.071 7.58582L49.7071 11.9498C49.3165 12.3403 49.3165 12.9735 49.7071 13.364C50.0976 13.7545 50.7308 13.7545 51.1213 13.364L56.7782 7.70714C57.0172 7.46806 57.1099 7.13804 57.0563 6.82843C57.1099 6.51883 57.0172 6.18881 56.7782 5.94974L51.1213 0.292893C50.7308 -0.0976309 50.0976 -0.0976309 49.7071 0.292893C49.3165 0.683416 49.3165 1.31658 49.7071 1.7071L53.5858 5.58582L1.48526 5.58582C0.932972 5.58582 0.48526 6.03354 0.48526 6.58582C0.48526 7.13811 0.932972 7.58582 1.48526 7.58582Z" fill="white"/>
<path d="M54.071 7.58582L54.7781 8.29293L56.4853 6.58582L54.071 6.58582V7.58582ZM1.48526 7.58582V8.58582V7.58582ZM49.7071 11.9498L49 11.2427H49L49.7071 11.9498ZM51.1213 13.364L51.8284 14.0711L51.1213 13.364ZM56.7782 7.70714L56.071 7.00003L56.071 7.00003L56.7782 7.70714ZM57.0563 6.82843L56.071 6.65771L56.0414 6.82844L56.071 6.99917L57.0563 6.82843ZM56.7782 5.94974L56.071 6.65684L56.071 6.65685L56.7782 5.94974ZM51.1213 0.292893L50.4142 1V1L51.1213 0.292893ZM49.7071 0.292893L49 -0.414216V-0.414215L49.7071 0.292893ZM49.7071 1.7071L49 2.41421L49.7071 1.7071ZM53.5858 5.58582V6.58582L56 6.58582L54.2929 4.87871L53.5858 5.58582ZM1.48526 5.58582V6.58582V5.58582ZM54.071 6.58582L1.48526 6.58582V8.58582L54.071 8.58582V6.58582ZM50.4142 12.6569L54.7781 8.29293L53.3639 6.87871L49 11.2427L50.4142 12.6569ZM50.4142 12.6569V12.6569L49 11.2427C48.2189 12.0237 48.2189 13.29 49 14.0711L50.4142 12.6569ZM50.4142 12.6569H50.4142L49 14.0711C49.781 14.8521 51.0473 14.8521 51.8284 14.0711L50.4142 12.6569ZM56.071 7.00003L50.4142 12.6569L51.8284 14.0711L57.4853 8.41425L56.071 7.00003ZM56.071 6.99917L56.071 7.00003L57.4853 8.41425C57.964 7.93551 58.1484 7.274 58.0416 6.6577L56.071 6.99917ZM56.071 6.65685L56.071 6.65771L58.0416 6.99916C58.1484 6.38286 57.964 5.72136 57.4853 5.24263L56.071 6.65685ZM50.4142 1L56.071 6.65684L57.4853 5.24263L51.8284 -0.414215L50.4142 1ZM50.4142 1L50.4142 1L51.8284 -0.414215C51.0473 -1.19526 49.781 -1.19526 49 -0.414216L50.4142 1ZM50.4142 0.999996L50.4142 1L49 -0.414215C48.2189 0.366833 48.2189 1.63316 49 2.41421L50.4142 0.999996ZM54.2929 4.87871L50.4142 0.999996L49 2.41421L52.8787 6.29293L54.2929 4.87871ZM1.48526 6.58582L53.5858 6.58582V4.58582L1.48526 4.58582V6.58582ZM1.48526 6.58582V4.58582C0.380684 4.58582 -0.51474 5.48126 -0.51474 6.58582H1.48526ZM1.48526 6.58582H1.48526H-0.51474C-0.51474 7.69039 0.380684 8.58582 1.48526 8.58582V6.58582Z" fill="white" mask="url(#path-3-inside-2)"/>
</mask>
<g mask="url(#mask0)">
<rect x="0.535522" y="-17.8787" width="57" height="50" fill="#00A6A0"/>
</g>
</svg>
