<svg width="169" height="140" viewBox="0 0 169 140" fill="none" xmlns="http://www.w3.org/2000/svg">
<g id="2 1 1">
<g id="2 1">
<path id="Vector" opacity="0.5" d="M80.2768 83.4712H35.2192L45.1984 75.4576L51.5488 70.468C57.8992 65.4784 62.8888 61.396 66.3664 58.0696C69.9952 54.592 73.0192 50.812 75.2872 46.4272C77.5552 42.0424 78.7648 37.0528 78.7648 31.6096C78.7648 11.5 64.2496 0.160034 43.0816 0.160034C19.6456 0.160034 0.291992 14.3728 0.291992 40.6816H24.484C24.484 28.132 31.4392 22.2352 40.9648 22.2352C48.9784 22.2352 53.968 26.62 53.968 34.3312C53.968 39.3208 50.7928 43.8568 45.8032 48.544C43.2328 50.812 39.1504 54.2896 33.556 58.8256C31.1368 60.64 27.8104 63.3616 23.5768 66.8392L1.95519 84.6808V106H80.2768V83.4712Z" fill="#FFC882"/>
<g id="bulb_ctlr">
<path id="Vector 2" fill-rule="evenodd" clip-rule="evenodd" d="M51.2366 93.1807H53.4366V83.7317H51.2366V93.1807Z" fill="#FEDEB6"/>
<path id="Vector 3" fill-rule="evenodd" clip-rule="evenodd" d="M47.6132 89.5551H57.0622V87.3551H47.6132V89.5551Z" fill="#FEDEB6"/>
<path id="Vector 4" fill-rule="evenodd" clip-rule="evenodd" d="M150.297 99.3686L143.616 92.6872L145.171 91.1318L151.852 97.8132L150.297 99.3686Z" fill="#CDF1EF"/>
<path id="Vector 5" fill-rule="evenodd" clip-rule="evenodd" d="M145.171 99.3686L143.615 97.8132L150.297 91.1318L151.852 92.6872L145.171 99.3686Z" fill="#CDF1EF"/>
<path id="Vector 6" fill-rule="evenodd" clip-rule="evenodd" d="M71.3138 15.0999L69.7584 16.6553L76.4398 23.3367L77.9952 21.7835L71.3138 15.0999Z" fill="#CDF1EF"/>
<path id="Vector 7" fill-rule="evenodd" clip-rule="evenodd" d="M76.44 15.0999L69.7586 21.7835L71.314 23.3367L77.9954 16.6553L76.44 15.0999Z" fill="#CDF1EF"/>
<path id="Vector 8" fill-rule="evenodd" clip-rule="evenodd" d="M158.723 82.0157C157.648 82.0157 156.64 81.3557 155.96 80.2095C155.696 79.7629 155.364 79.4835 155.093 79.4835H154.242C153.971 79.4835 153.639 79.7607 153.375 80.2095C152.693 81.3579 151.688 82.0157 150.612 82.0157H149.763C148.687 82.0157 147.682 81.3579 147.002 80.2117C146.736 79.7607 146.401 79.4835 146.131 79.4835H145.284C145.013 79.4835 144.679 79.7607 144.415 80.2095C143.733 81.3579 142.727 82.0157 141.651 82.0157H140.802C139.726 82.0157 138.721 81.3579 138.041 80.2117C137.775 79.7607 137.443 79.4835 137.172 79.4835H136.748V77.2835H137.172C138.248 77.2835 139.253 77.9391 139.933 79.0897C140.197 79.5363 140.532 79.8157 140.802 79.8157H141.651C141.92 79.8157 142.256 79.5363 142.523 79.0875C143.198 77.9391 144.206 77.2835 145.284 77.2835H146.131C147.209 77.2835 148.216 77.9391 148.894 79.0897C149.158 79.5363 149.494 79.8157 149.763 79.8157H150.612C150.883 79.8157 151.217 79.5363 151.483 79.0875C152.161 77.9391 153.166 77.2835 154.242 77.2835H155.093C156.167 77.2835 157.172 77.9391 157.852 79.0875C158.121 79.5363 158.453 79.8157 158.723 79.8157V82.0157Z" fill="#FEDEB6"/>
<path id="Vector 9" fill-rule="evenodd" clip-rule="evenodd" d="M129.952 21.0795C128.55 21.0795 127.413 22.2191 127.413 23.6183C127.413 25.0175 128.55 26.1571 129.952 26.1571C131.351 26.1571 132.488 25.0175 132.488 23.6183C132.488 22.2191 131.351 21.0795 129.952 21.0795ZM129.952 28.3571C127.34 28.3571 125.213 26.2319 125.213 23.6183C125.213 21.0069 127.34 18.8795 129.952 18.8795C132.563 18.8795 134.688 21.0069 134.688 23.6183C134.688 26.2319 132.563 28.3571 129.952 28.3571Z" fill="#FEDEB6"/>
<path id="Vector 10" fill-rule="evenodd" clip-rule="evenodd" d="M45.737 58.5419C44.3378 58.5419 43.2004 59.6815 43.2004 61.0785C43.2004 62.4799 44.3378 63.6195 45.737 63.6195C47.1384 63.6195 48.2758 62.4799 48.2758 61.0785C48.2758 59.6815 47.1384 58.5419 45.737 58.5419ZM45.737 65.8195C43.1256 65.8195 41.0004 63.6921 41.0004 61.0785C41.0004 58.4671 43.1256 56.3419 45.737 56.3419C48.3484 56.3419 50.4758 58.4671 50.4758 61.0785C50.4758 63.6921 48.3484 65.8195 45.737 65.8195Z" fill="#CDF1EF"/>
<g id="Group">
<path id="Vector 11" fill-rule="evenodd" clip-rule="evenodd" d="M57.5264 46.4175H61.625V42.3189H57.5264V46.4175ZM55.3264 48.6175H63.825V40.1189H55.3264V48.6175Z" fill="white"/>
<path id="Vector 12" fill-rule="evenodd" clip-rule="evenodd" d="M146.34 58.5725H150.439V54.4739H146.34V58.5725ZM144.14 60.7725H152.639V52.2739H144.14V60.7725Z" fill="#CDF1EF"/>
<path id="Vector 13" fill-rule="evenodd" clip-rule="evenodd" d="M84.252 95.9329H99.113V93.7329H84.252V95.9329Z" fill="#022C48"/>
<path id="Vector 14" fill-rule="evenodd" clip-rule="evenodd" d="M108.883 95.9329H120.369V93.7329H108.883V95.9329Z" fill="#1DB9B2"/>
<path id="Vector 15" fill-rule="evenodd" clip-rule="evenodd" d="M74.9658 101.33H86.452V99.1295H74.9658V101.33Z" fill="#FFE0B8"/>
<path id="Vector 16" fill-rule="evenodd" clip-rule="evenodd" d="M78.444 95.9329H81.1434V93.7329H78.444V95.9329Z" fill="#022C48"/>
<path id="Vector 17" fill-rule="evenodd" clip-rule="evenodd" d="M102.629 95.9329H105.328V93.7329H102.629V95.9329Z" fill="#022C48"/>
<path id="Vector 18" fill-rule="evenodd" clip-rule="evenodd" d="M93.69 104.529H101.645L102.948 101.33H92.3876L93.69 104.529ZM103.124 106.729H92.2116L89.114 99.1304H106.221L103.124 106.729Z" fill="#1DB9B2"/>
<path id="Vector 19" fill-rule="evenodd" clip-rule="evenodd" d="M111.084 89.4343H108.884V86.8625C108.884 79.4573 111.568 75.0419 115.897 70.3207C119.956 65.8921 122.192 60.0489 122.192 53.8691C122.192 46.9743 119.442 40.5877 114.445 35.8841C109.482 31.2135 102.937 28.8661 96.1305 29.2841C83.7863 30.0277 73.7169 40.3501 73.2087 52.7867C72.9425 59.3097 75.1051 65.4763 79.2983 70.1513C83.9381 75.3301 86.4527 79.4331 86.4527 86.2905V89.4343H84.2527V86.2905C84.2527 80.1085 82.0329 76.4983 77.6615 71.6209C73.0833 66.5147 70.7205 59.7937 71.0087 52.6965C71.5631 39.1489 82.5389 27.8981 95.9985 27.0885C103.489 26.6397 110.549 29.1939 115.955 34.2847C121.316 39.3337 124.392 46.4727 124.392 53.8691C124.392 60.6011 121.95 66.9701 117.519 71.8057C112.769 76.9889 111.084 80.9291 111.084 86.8625V89.4343Z" fill="#022C48"/>
<path id="Vector 20" fill-rule="evenodd" clip-rule="evenodd" d="M111.084 101.33H84.2527V88.3348H86.4527V99.1302H108.884V88.3348H111.084V101.33Z" fill="#1DB9B2"/>
<path id="Vector 21" fill-rule="evenodd" clip-rule="evenodd" d="M116.053 90.5343H96.5678V72.1313H98.7678V88.3343H116.053V90.5343Z" fill="#09B9B3"/>
<path id="Vector 22" fill-rule="evenodd" clip-rule="evenodd" d="M81.1412 90.5341H93.5624V88.3341H81.1412V90.5341Z" fill="#09B9B3"/>
<path id="Vector 23" fill-rule="evenodd" clip-rule="evenodd" d="M96.5518 71.7871C97.3042 71.8333 98.0742 71.8333 98.8266 71.7871L100.582 66.8503L101.141 66.7007C102.265 66.4015 103.337 65.9615 104.327 65.3917L104.828 65.1057L109.556 67.3519C110.146 66.8393 110.698 66.2893 111.208 65.7085L108.962 60.9851L109.25 60.4813C109.829 59.4869 110.275 58.4089 110.581 57.2781L110.729 56.7193L115.67 54.9659C115.694 54.5809 115.707 54.1937 115.707 53.8043C115.707 53.4127 115.694 53.0277 115.67 52.6449L110.729 50.8871L110.581 50.3305C110.275 49.1953 109.829 48.1195 109.25 47.1273L108.962 46.6257L111.208 41.9001C110.698 41.3215 110.146 40.7693 109.556 40.2545L104.828 42.5029L104.327 42.2169C103.337 41.6493 102.265 41.2093 101.141 40.9079L100.582 40.7583L98.8266 35.8215C98.0742 35.7753 97.3042 35.7753 96.5518 35.8215L94.7962 40.7583L94.2374 40.9101C93.1154 41.2071 92.044 41.6471 91.0518 42.2169L90.5502 42.5029L85.8224 40.2545C85.2328 40.7693 84.6806 41.3215 84.1702 41.9001L86.4186 46.6257L86.1282 47.1273C85.5496 48.1195 85.103 49.1975 84.7972 50.3305L84.6498 50.8893L79.7086 52.6449C79.6844 53.0299 79.6712 53.4149 79.6712 53.8043C79.6712 54.1937 79.6844 54.5809 79.7086 54.9659L84.6498 56.7193L84.7972 57.2781C85.103 58.4089 85.5496 59.4869 86.1282 60.4813L86.4186 60.9851L84.1702 65.7085C84.6806 66.2893 85.2328 66.8393 85.8224 67.3519L90.5502 65.1057L91.0518 65.3917C92.0396 65.9615 93.1132 66.4015 94.2352 66.7007L94.794 66.8503L96.5518 71.7871ZM97.6892 74.0223C96.9984 74.0223 96.3186 73.9871 95.6432 73.9189L94.948 73.8485L93.1066 68.6653C92.1914 68.3815 91.307 68.0185 90.4666 67.5807L85.5012 69.9413L84.96 69.5057C83.8776 68.6257 82.8876 67.6379 82.0208 66.5731L81.5808 66.0341L83.9414 61.0731C83.4904 60.2283 83.123 59.3373 82.837 58.4111L77.645 56.5653L77.5768 55.8723C77.5086 55.1925 77.4712 54.5039 77.4712 53.8043C77.4712 53.1069 77.5086 52.4161 77.5768 51.7385L77.645 51.0433L82.837 49.1975C83.123 48.2735 83.4904 47.3803 83.9414 46.5355L81.5808 41.5767L82.0208 41.0355C82.8876 39.9729 83.8754 38.9851 84.96 38.1029L85.5012 37.6651L90.4688 40.0279C91.3092 39.5879 92.1936 39.2249 93.1088 38.9433L94.948 33.7601L95.6432 33.6919C96.994 33.5533 98.3888 33.5577 99.7352 33.6897L100.43 33.7579L102.272 38.9433C103.189 39.2249 104.071 39.5879 104.912 40.0257L109.879 37.6651L110.418 38.1029C111.503 38.9873 112.493 39.9729 113.36 41.0333L113.798 41.5745L111.439 46.5355C111.888 47.3803 112.258 48.2735 112.544 49.1953L117.733 51.0433L117.802 51.7363C117.87 52.4161 117.907 53.1069 117.907 53.8043C117.907 54.5039 117.87 55.1925 117.802 55.8723L117.733 56.5653L112.544 58.4111C112.258 59.3373 111.888 60.2283 111.439 61.0731L113.798 66.0341L113.36 66.5731C112.491 67.6379 111.501 68.6257 110.418 69.5057L109.879 69.9413L104.912 67.5807C104.071 68.0207 103.189 68.3837 102.272 68.6653L100.43 73.8485L99.7352 73.9189C99.0642 73.9871 98.38 74.0223 97.6892 74.0223Z" fill="#FFC882"/>
<path id="Vector 24" fill-rule="evenodd" clip-rule="evenodd" d="M87.6818 54.9051H90.0732V52.7051H87.6818V54.9051Z" fill="#09B9B3"/>
<path id="Vector 25" fill-rule="evenodd" clip-rule="evenodd" d="M105.306 54.9051H107.697V52.7051H105.306V54.9051Z" fill="#09B9B3"/>
<path id="Vector 26" fill-rule="evenodd" clip-rule="evenodd" d="M94.2015 59.6871V57.4871H98.9821L98.9799 55.5907L94.1993 53.4413L94.1971 47.9215L101.178 47.9193V50.1193L96.3971 50.1215L96.3993 52.0201L101.18 54.1673L101.182 59.6871H94.2015Z" fill="#022C48"/>
<path id="Vector 27" fill-rule="evenodd" clip-rule="evenodd" d="M96.616 62.1739H98.816V58.5857H96.616V62.1739Z" fill="#022C48"/>
<path id="Vector 28" fill-rule="evenodd" clip-rule="evenodd" d="M96.616 49.0201H98.816V45.4341H96.616V49.0201Z" fill="#022C48"/>
<path id="Vector 29" fill-rule="evenodd" clip-rule="evenodd" d="M59.062 106.728H136.181V104.528H59.062V106.728Z" fill="#1DB9B2"/>
<path id="Vector 30" fill-rule="evenodd" clip-rule="evenodd" d="M54.002 106.728H56.4528V104.528H54.002V106.728Z" fill="#022C48"/>
<path id="Vector 31" fill-rule="evenodd" clip-rule="evenodd" d="M138.88 106.728H141.333V104.528H138.88V106.728Z" fill="#022C48"/>
<path id="Vector 32" fill-rule="evenodd" clip-rule="evenodd" d="M127.41 122.946C127.41 124.673 114.304 126.074 98.1389 126.074C81.9755 126.074 68.8723 124.673 68.8723 122.946C68.8723 121.219 81.9755 119.819 98.1389 119.819C114.304 119.819 127.41 121.219 127.41 122.946Z" fill="#CDF1EF"/>
</g>
</g>
</g>
</g>

    <script href="https://cdnjs.cloudflare.com/ajax/libs/gsap/3.6.0/gsap.min.js"></script>
    <script type="application/ecmascript">

    <![CDATA[

    var t1 = gsap.timeline(
        {
            repeat: -1,
            repeatDelay: 1
        });

    t1.add(
            gsap.to(
                        "#bulb_ctlr",
                                {
                                    translateY:-10,
                                    delay: 0,
                                    duration:4,
                                    ease:Linear.easeNone
                                }
                        )
            );

    t1.add(
            gsap.to(
                        "#bulb_ctlr",
                                {
                                    translateY:0,
                                    delay: 0,
                                    duration:4,
                                    ease:Linear.easeNone    
                                }
                        )
            );


        ]]>
    </script>

</svg>
