<svg width="638" height="405" viewBox="0 0 638 405" fill="none" xmlns="http://www.w3.org/2000/svg">
<g clip-path="url(#clip0)">
<path opacity="0.13" fill-rule="evenodd" clip-rule="evenodd" d="M623.807 339.145C630.136 353.318 628.876 369.547 620.434 382.585C612.002 395.648 597.752 403.412 582.178 403.427L195.7 403.406C171.283 403.404 149.135 389.032 139.164 366.705L4.63064 65.3962C-1.69913 51.2224 -0.43912 34.9939 8.00407 21.9549C16.4368 8.8924 30.6845 1.12775 46.2591 1.11272L432.738 1.13311C457.156 1.13593 479.301 15.5077 489.273 37.836L623.807 339.145Z" fill="#FFC882"/>
<path d="M255.456 247.973L262.65 252.107C263.378 252.525 264.189 252.779 265.025 252.852C265.861 252.925 266.704 252.815 267.493 252.529C268.282 252.243 269 251.788 269.595 251.196C270.191 250.604 270.65 249.89 270.941 249.102V249.102C271.254 248.255 271.364 247.346 271.262 246.448C271.159 245.55 270.848 244.689 270.352 243.933C269.856 243.178 269.19 242.55 268.407 242.099C267.623 241.648 266.745 241.387 265.843 241.338L257.131 240.859L230.888 232.915L226.657 217.074L215.594 223.288L223.201 241.298L255.456 247.973Z" fill="#FFB8B8"/>
<path d="M221.156 165.751C219.492 167.638 219.792 169.907 221.004 171.75C222.216 173.592 224.233 175.125 225.999 176.751C227.133 177.795 228.182 178.903 228.69 180.16C228.969 180.802 229.061 181.511 228.954 182.203C228.846 182.896 228.544 183.543 228.083 184.071C226.927 185.438 224.774 186.364 222.673 187.158C216.666 189.412 210.467 191.119 204.153 192.258C209.472 186.042 212.135 179.042 211.745 172.299C211.663 170.884 211.453 169.456 211.947 168.038C212.287 167.186 212.823 166.428 213.513 165.824C214.203 165.221 215.026 164.79 215.915 164.566C218.029 163.959 220.814 164.56 221.138 165.945" fill="#B46959"/>
<path d="M175.583 365.216L183.195 365.547L198.219 296.148L185.181 296.709L175.583 365.216Z" fill="#FFB8B8"/>
<path d="M251.702 350.323L245.414 353.633L206.08 295.275L218.607 289.759L251.702 350.323Z" fill="#FFB8B8"/>
<path d="M207.859 187.596C214.509 187.596 219.899 182.205 219.899 175.556C219.899 168.906 214.509 163.515 207.859 163.515C201.209 163.515 195.818 168.906 195.818 175.556C195.818 182.205 201.209 187.596 207.859 187.596Z" fill="#FFB8B8"/>
<path d="M201.728 181.868C201.728 181.868 197.426 190.804 191.469 190.473C191.469 190.473 180.217 185.84 176.576 198.416L172.605 208.344L225.226 217.28C225.226 217.28 222.247 199.078 215.298 198.747C215.298 198.747 207.355 198.085 208.348 195.106C209.34 192.128 212.981 185.178 212.981 185.178L201.728 181.868Z" fill="#FFB8B8"/>
<path d="M219.269 227.54L211.326 244.749L217.872 272.565L249.753 332.397C249.753 332.397 235.07 345.569 231.41 347.682C228.236 349.514 201.805 299.837 200.84 289.598C200.521 286.218 194.726 354.669 194.726 354.669C194.726 354.669 172.877 351.064 166.775 349.865C166.775 349.865 171.171 318.731 173.763 289.598C175.761 267.141 173.944 246.789 185.181 237.137L184.188 217.942L210.664 216.949L219.269 227.54Z" fill="#002B49"/>
<path d="M178.146 377.98L190.298 379.745C191.24 380.096 192.279 380.083 193.212 379.71C194.145 379.337 194.906 378.63 195.346 377.727V377.727C195.704 376.993 195.831 376.168 195.711 375.361C195.591 374.553 195.23 373.801 194.674 373.203L189.516 367.648L185.804 359.638C183.584 357.37 182.066 358.172 181.218 361.898L175.283 360.034L173.727 370.494C173.495 372.059 173.806 373.657 174.611 375.02C175.415 376.382 176.663 377.428 178.146 377.98V377.98Z" fill="#002B49"/>
<path d="M247.411 367.036L259.691 366.993C260.674 367.201 261.699 367.036 262.568 366.53C263.436 366.024 264.084 365.213 264.387 364.254V364.254C264.633 363.476 264.637 362.641 264.4 361.86C264.162 361.079 263.694 360.388 263.057 359.878L257.137 355.143L252.287 347.766C249.757 345.85 248.374 346.867 248.083 350.677L241.939 349.706V360.281C241.939 361.863 242.483 363.398 243.479 364.628C244.475 365.857 245.863 366.707 247.411 367.036V367.036Z" fill="#002B49"/>
<path d="M201.777 157.047C199.732 156.154 197.298 156.504 195.324 157.545C193.349 158.585 191.772 160.245 190.391 161.998C185.637 168.066 182.864 175.45 182.45 183.148C182.342 185.252 182.443 187.476 183.539 189.276C184.743 191.253 186.946 192.389 189.129 193.162C196.446 195.711 204.474 195.27 211.467 191.933C207.79 188.951 204.388 185.646 201.301 182.056C200.722 181.384 200.118 180.52 200.412 179.683C200.597 179.276 200.884 178.923 201.246 178.659L208.334 172.503L208.156 174.993C209.566 174.911 210.921 174.417 212.053 173.573C213.185 172.729 214.045 171.572 214.527 170.245C214.185 170.934 214.838 171.782 215.592 171.937C216.346 172.092 217.109 171.781 217.817 171.477C219.532 170.739 221.395 169.86 222.156 168.155C222.395 167.554 222.51 166.91 222.493 166.263C222.475 165.616 222.327 164.98 222.055 164.392C221.505 163.22 220.72 162.173 219.748 161.316C217.364 159.115 214.463 157.551 211.314 156.768C208.165 155.985 204.869 156.009 201.732 156.837" fill="#B46959"/>
<path d="M199.372 246.25L204.659 252.645C205.193 253.292 205.863 253.814 206.621 254.176C207.378 254.538 208.206 254.73 209.045 254.739C209.885 254.748 210.716 254.574 211.482 254.228C212.247 253.883 212.928 253.375 213.476 252.74C214.067 252.056 214.489 251.243 214.708 250.366C214.927 249.49 214.937 248.574 214.738 247.693C214.538 246.811 214.135 245.989 213.56 245.292C212.984 244.595 212.254 244.043 211.426 243.68L203.436 240.176L181.647 223.531L183.242 207.212L170.701 209.151L171.507 228.685L199.372 246.25Z" fill="#FFB8B8"/>
<path d="M232.176 231.842C232.176 231.842 227.023 212.969 224.304 212.973C221.586 212.978 217.945 212.647 217.945 212.647C217.945 212.647 213.643 200.071 191.469 204.042C169.295 208.014 178.893 200.402 172.605 203.38C166.317 206.359 164 227.209 164 227.209C164 227.209 198.088 215.956 205.369 222.245C209.55 225.901 214.097 229.118 218.938 231.842C218.938 231.842 215.628 240.116 232.176 231.842Z" fill="#002B49"/>
<path d="M350.35 366H216.713V366.874H350.35V366Z" fill="#002B49" fill-opacity="0.6"/>
<path opacity="0.2" d="M452.98 215.331C497.601 215.331 533.774 179.159 533.774 134.537C533.774 89.9162 497.601 53.7437 452.98 53.7437C408.359 53.7437 372.186 89.9162 372.186 134.537C372.186 179.159 408.359 215.331 452.98 215.331Z" fill="#FFC882"/>
<path opacity="0.6" d="M437.695 89.5552H304.057V90.4286H437.695V89.5552Z" fill="#002B49"/>
<path opacity="0.6" d="M566.528 113.575H304.057V114.448H566.528V113.575Z" fill="#002B49"/>
<path opacity="0.6" d="M348.019 174.961H300.199V175.834H348.019C350.374 175.834 352.632 176.77 354.297 178.434C355.961 180.099 356.897 182.357 356.897 184.712C356.897 187.066 355.961 189.324 354.297 190.989C352.632 192.653 350.374 193.589 348.019 193.589H275.658C273.304 193.589 271.046 192.653 269.381 190.989C267.717 189.324 266.781 187.066 266.781 184.712C266.781 182.357 267.717 180.099 269.381 178.434C271.046 176.77 273.304 175.834 275.658 175.834H278.363V174.961H275.658C273.072 174.961 270.592 175.988 268.764 177.817C266.935 179.645 265.908 182.125 265.908 184.712C265.908 187.298 266.935 189.778 268.764 191.606C270.592 193.435 273.072 194.462 275.658 194.462H348.019C350.605 194.462 353.086 193.435 354.914 191.606C356.743 189.778 357.77 187.298 357.77 184.712C357.77 182.125 356.743 179.645 354.914 177.817C353.086 175.988 350.605 174.961 348.019 174.961Z" fill="#002B49"/>
<path opacity="0.6" d="M348.019 205.095H300.199V205.968H348.019C350.374 205.968 352.632 206.903 354.297 208.568C355.961 210.233 356.897 212.491 356.897 214.845C356.897 217.2 355.961 219.458 354.297 221.122C352.632 222.787 350.374 223.722 348.019 223.722H275.658C273.304 223.722 271.046 222.787 269.381 221.122C267.717 219.458 266.781 217.2 266.781 214.845C266.781 212.491 267.717 210.233 269.381 208.568C271.046 206.903 273.304 205.968 275.658 205.968H278.363V205.095H275.658C273.072 205.095 270.592 206.122 268.764 207.951C266.935 209.779 265.908 212.259 265.908 214.845C265.908 217.431 266.935 219.911 268.764 221.74C270.592 223.569 273.072 224.596 275.658 224.596H348.019C350.605 224.596 353.086 223.569 354.914 221.74C356.743 219.911 357.77 217.431 357.77 214.845C357.77 212.259 356.743 209.779 354.914 207.951C353.086 206.122 350.605 205.095 348.019 205.095Z" fill="#002B49"/>
<path opacity="0.6" d="M348.019 235.229H300.199V236.102H348.019C350.374 236.102 352.632 237.037 354.297 238.702C355.961 240.367 356.897 242.625 356.897 244.979C356.897 247.333 355.961 249.591 354.297 251.256C352.632 252.921 350.374 253.856 348.019 253.856H275.658C273.304 253.856 271.046 252.921 269.381 251.256C267.717 249.591 266.781 247.333 266.781 244.979C266.781 242.625 267.717 240.367 269.381 238.702C271.046 237.037 273.304 236.102 275.658 236.102H278.363V235.229H275.658C273.072 235.229 270.592 236.256 268.764 238.084C266.935 239.913 265.908 242.393 265.908 244.979C265.908 247.565 266.935 250.045 268.764 251.874C270.592 253.702 273.072 254.73 275.658 254.73H348.019C350.605 254.73 353.086 253.702 354.914 251.874C356.743 250.045 357.77 247.565 357.77 244.979C357.77 242.393 356.743 239.913 354.914 238.084C353.086 236.256 350.605 235.229 348.019 235.229V235.229Z" fill="#002B49"/>
<path d="M283.76 172.653C283.079 172.665 282.43 172.943 281.952 173.429C281.474 173.915 281.207 174.569 281.207 175.25C281.207 175.931 281.474 176.585 281.952 177.071C282.43 177.557 283.079 177.835 283.76 177.847H295.153C295.84 177.856 296.503 177.592 296.996 177.113C297.489 176.635 297.773 175.98 297.784 175.292C297.795 174.605 297.534 173.941 297.056 173.447C296.579 172.952 295.925 172.667 295.238 172.653C295.209 172.653 295.181 172.653 295.153 172.653H283.76Z" fill="#00A6A0"/>
<path d="M283.76 203.224C283.079 203.235 282.43 203.514 281.952 204C281.474 204.485 281.207 205.139 281.207 205.821C281.207 206.502 281.474 207.156 281.952 207.642C282.43 208.128 283.079 208.406 283.76 208.417H295.153C295.84 208.427 296.503 208.163 296.996 207.684C297.489 207.205 297.773 206.551 297.784 205.863C297.795 205.176 297.534 204.512 297.056 204.017C296.579 203.523 295.925 203.237 295.238 203.224C295.209 203.224 295.181 203.224 295.153 203.224H283.76Z" fill="#F96459"/>
<path d="M283.76 232.921C283.079 232.932 282.429 233.211 281.951 233.697C281.474 234.183 281.206 234.837 281.206 235.518C281.206 236.199 281.474 236.854 281.951 237.339C282.429 237.825 283.079 238.104 283.76 238.115H295.152C295.841 238.125 296.505 237.862 296.999 237.383C297.494 236.904 297.778 236.249 297.789 235.561C297.8 234.872 297.538 234.208 297.06 233.713C296.581 233.218 295.926 232.933 295.238 232.921C295.209 232.921 295.181 232.921 295.152 232.921H283.76Z" fill="#002B49"/>
<path opacity="0.2" d="M345.393 339.931C344.714 335.555 343.389 331.303 341.463 327.316L341.182 326.735L339.096 329.048L340.642 325.603L340.541 325.403C339.177 322.703 337.665 320.08 336.013 317.547L335.706 317.077L335.298 317.531L335.584 316.893L335.441 316.678C333.394 313.608 331.822 311.667 331.806 311.647L331.362 311.1L331.076 311.752C331.023 311.872 325.827 323.846 325.138 335.679L325.127 335.863L328.625 340.091L325.058 337.852L325.064 338.664C325.075 340.055 325.17 341.444 325.348 342.823C325.505 344.009 325.69 345.168 325.902 346.298C326.24 346.308 326.567 346.411 326.851 346.594C326.604 345.331 326.392 344.033 326.213 342.7C326.076 341.636 325.989 340.555 325.954 339.477L332.853 343.808L326.021 335.55C326.643 325.546 330.504 315.467 331.588 312.806C332.17 313.561 333.267 315.025 334.58 316.982L332.193 322.302L335.596 318.53C337.071 320.826 338.429 323.195 339.667 325.627L335.992 333.819L340.96 328.31C342.696 332.042 343.897 335.999 344.529 340.066C345.398 346.635 345.229 352.945 344.051 357.835C342.922 362.519 340.934 365.398 338.595 365.734C338.113 365.8 337.624 365.771 337.153 365.648C336.776 365.916 336.323 366.055 335.86 366.043H335.733C336.459 366.446 337.272 366.664 338.102 366.679C338.307 366.679 338.511 366.664 338.714 366.635C341.464 366.24 343.66 363.193 344.898 358.057C346.102 353.056 346.279 346.623 345.393 339.931Z" fill="#065143"/>
<path opacity="0.2" d="M337.696 366.333C334.099 366.333 328.912 364.354 323.768 360.752C323.011 360.218 322.288 359.637 321.603 359.012L321.027 358.486L323.205 357.858L320.305 357.752L320.182 357.624C314.745 351.929 311.361 343.886 311.328 343.805L311.063 343.17L311.751 343.201C311.819 343.204 313.454 343.281 315.91 343.63L316.063 343.651V343.65L316.602 343.732C318.608 344.037 320.595 344.455 322.554 344.983L322.764 345.04L323.417 346.65L323.318 345.206L323.918 345.379C326.76 346.199 329.459 347.451 331.922 349.09C339.745 354.568 344.074 361.415 341.786 364.682C341.003 365.799 339.564 366.333 337.696 366.333ZM322.785 358.888C323.263 359.293 323.76 359.678 324.27 360.038C331.435 365.055 339.129 366.953 341.07 364.182C343.011 361.41 338.596 354.829 331.429 349.811C329.219 348.34 326.81 347.191 324.275 346.398L324.663 352.04L322.118 345.77C320.441 345.325 318.726 344.959 317.01 344.68L317.291 348.774L315.539 344.46C314.182 344.273 313.088 344.172 312.422 344.121C313.329 346.113 316.328 352.266 320.692 356.892L328.697 357.185L322.785 358.888Z" fill="#065143"/>
<g id="left-bar1">
<path opacity="0.4" d="M279.242 212.248C278.56 212.26 277.911 212.538 277.433 213.024C276.955 213.51 276.688 214.164 276.688 214.845C276.688 215.527 276.955 216.181 277.433 216.666C277.911 217.152 278.56 217.431 279.242 217.442H344.351C344.692 217.448 345.032 217.387 345.35 217.263C345.668 217.138 345.958 216.951 346.204 216.714C346.449 216.477 346.646 216.193 346.782 215.88C346.918 215.567 346.991 215.229 346.997 214.888C347.002 214.546 346.94 214.207 346.815 213.889C346.689 213.572 346.502 213.282 346.264 213.037C346.026 212.792 345.742 212.596 345.429 212.461C345.115 212.325 344.778 212.253 344.436 212.248C344.408 212.248 344.379 212.248 344.351 212.248H279.242Z" fill="#C7C9C7"/>
</g>
<g id="left-bar2">
<path opacity="0.4" d="M279.242 242.383C278.56 242.394 277.911 242.673 277.433 243.158C276.955 243.644 276.688 244.298 276.688 244.979C276.688 245.661 276.955 246.315 277.433 246.801C277.911 247.286 278.56 247.565 279.242 247.576H344.351C344.692 247.583 345.032 247.522 345.35 247.397C345.668 247.272 345.958 247.085 346.204 246.848C346.449 246.611 346.646 246.327 346.782 246.014C346.918 245.701 346.991 245.364 346.997 245.022C347.002 244.681 346.94 244.341 346.815 244.024C346.689 243.706 346.502 243.416 346.264 243.171C346.026 242.926 345.742 242.73 345.429 242.595C345.115 242.46 344.778 242.387 344.436 242.383C344.408 242.382 344.379 242.382 344.351 242.383H279.242Z" fill="#C7C9C7"/>
</g>
<path opacity="0.4" d="M279.242 182.115C278.56 182.126 277.911 182.405 277.433 182.89C276.955 183.376 276.688 184.03 276.688 184.711C276.688 185.393 276.955 186.047 277.433 186.532C277.911 187.018 278.56 187.297 279.242 187.308H344.351C344.692 187.315 345.032 187.254 345.35 187.129C345.668 187.004 345.958 186.817 346.204 186.58C346.449 186.343 346.646 186.059 346.782 185.746C346.918 185.433 346.991 185.096 346.997 184.754C347.002 184.413 346.94 184.073 346.815 183.756C346.689 183.438 346.502 183.148 346.264 182.903C346.026 182.658 345.742 182.462 345.429 182.327C345.115 182.191 344.778 182.119 344.436 182.115C344.408 182.114 344.379 182.114 344.351 182.115H279.242Z" fill="#C7C9C7"/>
</g>
<g id="stepTwo-rotate">
<path opacity="0.6" d="M485.734 199.609C440.944 199.609 404.504 163.169 404.504 118.379C404.504 73.5884 440.944 37.1484 485.734 37.1484C530.525 37.1484 566.965 73.5884 566.965 118.379C566.965 163.169 530.525 199.609 485.734 199.609ZM485.734 38.0219C441.425 38.0219 405.377 74.0699 405.377 118.379C405.377 162.688 441.425 198.736 485.734 198.736C530.043 198.736 566.091 162.688 566.091 118.379C566.091 74.0699 530.043 38.0219 485.734 38.0219V38.0219Z" fill="#002B49"/>
<path d="M478.24 49.3299C484.13 49.3299 488.905 44.5551 488.905 38.665C488.905 32.7749 484.13 28 478.24 28C472.35 28 467.575 32.7749 467.575 38.665C467.575 44.5551 472.35 49.3299 478.24 49.3299Z" fill="#00A6A0"/>
<path d="M569.551 128.536C578.255 128.536 585.311 121.48 585.311 112.776C585.311 104.072 578.255 97.0156 569.551 97.0156C560.847 97.0156 553.791 104.072 553.791 112.776C553.791 121.48 560.847 128.536 569.551 128.536Z" fill="#00A6A0"/>
<path d="M404.809 119.563C408.62 119.563 411.709 116.474 411.709 112.663C411.709 108.851 408.62 105.762 404.809 105.762C400.997 105.762 397.908 108.851 397.908 112.663C397.908 116.474 400.997 119.563 404.809 119.563Z" fill="#F96459"/>
</g>

<defs>
<clipPath id="clip0">
<rect width="638" height="405" fill="white"/>
</clipPath>
</defs>
 <script href="https://cdnjs.cloudflare.com/ajax/libs/gsap/3.6.0/gsap.min.js"></script>
    <script type="application/ecmascript">

    <![CDATA[

    var t1 = gsap.timeline(
        {
            repeat: -1,
            repeatDelay: 0
        });

    var t2 = gsap.timeline(
        {
            repeat: -1,
            repeatDelay: 0,
            onStart: function(){
                gsap.set("#left-bar1", {scaleX:0.33});
            }
        });
    var t3 = gsap.timeline(
        {
            repeat: -1,
            repeatDelay: 0,
            onStart: function(){
                gsap.set("#left-bar2", {scaleX:0.1});
            }
        });

    t2.add(
            gsap.fromTo(
                        "#left-bar1",
                                {
                                    scaleX:0.33,
                                    delay: 5,
                                    duration:2,
                                    transformOrigin:"left",
                                                                        
                                },
                                {
                                    scaleX:1,
                                    delay: 5,
                                    duration: 2,
                                    ease:Linear.easeNone
                                }
                        )
            );

    t2.add(
            gsap.fromTo(
                        "#left-bar1",
                                {
                                    scaleX:1,
                                    delay: 5,
                                    transformOrigin:"left",
                                },
                                {
                                    scaleX:0.33,
                                    delay: 5,
                                    duration: 2,
                                    ease:Linear.easeNone
                                }
                        )
            );

    t3.add(
            gsap.fromTo(
                        "#left-bar2",
                                {
                                    scaleX:0.1,
                                    delay: 5,
                                    duration:2,
                                    transformOrigin:"left",
                                                                        
                                },
                                {
                                    scaleX:1,
                                    delay: 5,
                                    duration: 2,
                                    ease:Linear.easeNone
                                }
                        )
            );

    t3.add(
            gsap.fromTo(
                        "#left-bar2",
                                {
                                    scaleX:1,
                                    delay: 5,
                                    transformOrigin:"left",
                                },
                                {
                                    scaleX:0.1,
                                    delay: 5,
                                    duration: 2,
                                    ease:Linear.easeNone
                                }
                        )
            );
    t1.add(
            gsap.to(
                        "#stepTwo-rotate",
                                {
                                    rotation:360,
                                    delay: 0,
                                    duration:12,
                                    transformOrigin:"47% 53%",
                                    ease:Linear.easeNone    
                                }
                        )
            );
        ]]>
    </script>
</svg>
