<svg width="638" height="405" viewBox="0 0 638 405" fill="none" xmlns="http://www.w3.org/2000/svg">
<g id="3-Main (1) 1">
<g id="Group">
<path id="Vector" opacity="0.06" fill-rule="evenodd" clip-rule="evenodd" d="M623.811 65.3167C630.14 51.1429 628.88 34.9142 620.438 21.8757C612.006 8.81311 597.756 1.04903 582.181 1.034L195.701 1.05493C171.284 1.05657 149.136 15.4291 139.165 37.7563L4.6307 339.067C-1.69911 353.241 -0.439099 369.469 8.00414 382.509C16.4369 395.571 30.6847 403.336 46.2595 403.351L432.741 403.33C457.158 403.328 479.304 388.956 489.276 366.627L623.811 65.3167Z" fill="#F96459"/>
<g id="Group_2">
<path id="Vector_2" d="M384.038 65.6094C384.038 57.3251 377.322 50.6094 369.038 50.6094H105C96.7157 50.6094 90 57.3251 90 65.6094V190.321C90 198.606 96.7157 205.321 105 205.321H369.038C377.322 205.321 384.038 198.606 384.038 190.321V65.6094Z" fill="white"/>
<path id="Vector_3" d="M156.76 87.2485C153.644 87.2485 150.597 86.3238 148.005 84.5914C145.414 82.859 143.394 80.3967 142.201 77.5158C141.009 74.6349 140.696 71.4649 141.305 68.4066C141.913 65.3483 143.413 62.539 145.617 60.3341C147.821 58.1292 150.629 56.6276 153.686 56.0193C156.743 55.4109 159.911 55.7231 162.791 56.9164C165.67 58.1097 168.132 60.1305 169.863 62.7232C171.595 65.3159 172.519 68.3642 172.519 71.4824C172.519 75.6638 170.859 79.674 167.903 82.6307C164.948 85.5874 160.94 87.2485 156.76 87.2485ZM156.76 56.2604C153.751 56.2604 150.809 57.1532 148.307 58.8259C145.805 60.4986 143.855 62.876 142.703 65.6576C141.552 68.4391 141.25 71.4999 141.837 74.4528C142.424 77.4057 143.874 80.1181 146.001 82.247C148.129 84.3759 150.84 85.8257 153.792 86.4131C156.743 87.0004 159.803 86.699 162.583 85.5468C165.363 84.3947 167.74 82.4436 169.411 79.9402C171.083 77.4369 171.976 74.4937 171.976 71.483C171.976 69.4839 171.582 67.5045 170.817 65.6576C170.053 63.8107 168.932 62.1326 167.519 60.719C166.106 59.3055 164.429 58.1842 162.583 57.4192C160.737 56.6542 158.758 56.2604 156.76 56.2604Z" fill="#002B49" fill-opacity="0.6"/>
<path id="Vector_4" d="M316.505 87.2485C313.388 87.2485 310.341 86.3238 307.75 84.5914C305.158 82.859 303.138 80.3967 301.946 77.5158C300.753 74.6349 300.441 71.4649 301.049 68.4066C301.657 65.3483 303.158 62.539 305.362 60.3341C307.565 58.1292 310.373 56.6276 313.43 56.0193C316.487 55.4109 319.656 55.7231 322.535 56.9164C325.415 58.1097 327.876 60.1305 329.607 62.7232C331.339 65.3159 332.263 68.3642 332.263 71.4824C332.263 75.6638 330.603 79.674 327.648 82.6307C324.692 85.5874 320.684 87.2485 316.505 87.2485ZM316.505 56.2604C313.495 56.2604 310.554 57.1532 308.051 58.8259C305.549 60.4986 303.599 62.876 302.447 65.6576C301.296 68.4391 300.995 71.4999 301.582 74.4528C302.169 77.4057 303.618 80.1181 305.746 82.247C307.874 84.3759 310.585 85.8257 313.536 86.4131C316.488 87.0004 319.547 86.699 322.327 85.5468C325.107 84.3947 327.484 82.4436 329.156 79.9402C330.828 77.4369 331.72 74.4937 331.72 71.483C331.72 69.4839 331.326 67.5045 330.562 65.6576C329.797 63.8107 328.676 62.1326 327.263 60.719C325.851 59.3055 324.173 58.1842 322.327 57.4192C320.481 56.6542 318.503 56.2604 316.505 56.2604Z" fill="#002B49" fill-opacity="0.6"/>
<path id="Vector_5" d="M374.201 50.6564H99.6822C94.3381 50.6655 90.0073 56.0183 90 62.6246V193.565C90.0073 200.171 94.3381 205.522 99.6822 205.534H374.201C379.546 205.525 383.876 200.172 383.884 193.565V62.624C383.876 56.0183 379.546 50.668 374.201 50.6558V50.6564ZM382.746 193.565C382.74 199.395 378.919 204.119 374.203 204.125H99.6822C94.9661 204.118 91.1463 199.395 91.1389 193.565V62.624C91.1444 56.7948 94.9661 52.071 99.6822 52.0643H374.201C378.918 52.0716 382.737 56.7948 382.745 62.624L382.746 193.565Z" fill="#002B49" fill-opacity="0.6"/>
<path id="Vector_6" d="M158.897 103.322H110.12V137.482H158.897V103.322Z" fill="#C7C9C7" fill-opacity="0.2"/>
<path id="Vector_7" d="M227.185 103.322H178.408V137.482H227.185V103.322Z" fill="#C7C9C7" fill-opacity="0.2"/>
<path id="Vector_8" d="M295.473 103.322H246.696V137.482H295.473V103.322Z" fill="#C7C9C7" fill-opacity="0.2"/>
<path id="Vector_9" d="M363.76 103.322H314.983V137.482H363.76V103.322Z" fill="#C7C9C7" fill-opacity="0.2"/>
<path id="Vector_10" d="M158.897 153.342H110.12V187.502H158.897V153.342Z" fill="#C7C9C7" fill-opacity="0.2"/>
<path id="Vector_11" d="M227.185 153.342H178.408V187.502H227.185V153.342Z" fill="#C7C9C7" fill-opacity="0.2"/>
<path id="Vector_12" d="M295.473 153.342H246.696V187.502H295.473V153.342Z" fill="#C7C9C7" fill-opacity="0.2"/>
<path id="Vector_13" d="M363.76 153.342H314.983V187.502H363.76V153.342Z" fill="#C7C9C7" fill-opacity="0.2"/>
<path id="Vector_14" d="M156.968 13H156.135V71.554H156.968V13Z" fill="black"/>
<path id="Vector_15" d="M317.322 13H316.489V71.554H317.322V13Z" fill="black"/>
<path id="Vector_16" d="M556.661 371.998H325.428C325.313 372.006 325.198 371.989 325.09 371.951C324.982 371.912 324.883 371.852 324.8 371.773C324.716 371.695 324.649 371.6 324.603 371.495C324.558 371.389 324.534 371.276 324.534 371.161C324.534 371.046 324.558 370.933 324.603 370.827C324.649 370.722 324.716 370.627 324.8 370.549C324.883 370.47 324.982 370.41 325.09 370.371C325.198 370.333 325.313 370.317 325.428 370.324H556.661C556.776 370.317 556.891 370.333 556.999 370.371C557.107 370.41 557.206 370.47 557.289 370.549C557.373 370.627 557.44 370.722 557.486 370.827C557.531 370.933 557.555 371.046 557.555 371.161C557.555 371.276 557.531 371.389 557.486 371.495C557.44 371.6 557.373 371.695 557.289 371.773C557.206 371.852 557.107 371.912 556.999 371.951C556.891 371.989 556.776 372.006 556.661 371.998Z" fill="#002B49" fill-opacity="0.6"/>
<path id="Vector_17" d="M462.774 240.4C463.098 240.304 463.428 240.233 463.763 240.188L477.115 213.043L473.039 206.929L481.457 199.568L492.04 212.525L470.486 243.908C471.017 245.095 471.175 246.416 470.938 247.695C470.7 248.974 470.079 250.151 469.157 251.068C468.235 251.985 467.056 252.6 465.776 252.83C464.496 253.06 463.177 252.895 461.993 252.356C460.81 251.818 459.818 250.932 459.15 249.816C458.482 248.699 458.17 247.406 458.255 246.108C458.34 244.81 458.818 243.569 459.625 242.549C460.432 241.529 461.531 240.78 462.774 240.4Z" fill="#FFEECE"/>
<path id="Vector_18" d="M485.567 203.323C485.385 203.514 485.177 203.679 484.948 203.811L471.287 211.734C470.657 212.099 469.908 212.199 469.205 212.012C468.502 211.825 467.902 211.366 467.537 210.736C467.499 210.67 467.463 210.603 467.431 210.534L460.785 196.49C460.502 195.899 460.441 195.226 460.613 194.594C460.785 193.961 461.179 193.412 461.722 193.046L470.19 187.283C470.719 186.923 471.357 186.759 471.993 186.82C472.63 186.881 473.225 187.162 473.677 187.615L485.513 199.498C486.017 200.004 486.305 200.686 486.314 201.4C486.324 202.114 486.056 202.803 485.565 203.322L485.567 203.323Z" fill="#F96459"/>
<path id="Vector_19" d="M504.749 358.856L497.536 360.819L486.534 333.918L497.179 331.02L504.749 358.856Z" fill="#FFEECE"/>
<path id="Vector_20" d="M491.825 360.156L505.735 356.37L508.117 365.13L485.449 371.301C484.817 368.977 485.134 366.497 486.329 364.406C487.525 362.316 489.502 360.786 491.824 360.154H491.825V360.156Z" fill="black"/>
<path id="Vector_21" d="M443.088 364.362H435.612L432.056 335.516H443.088V364.362Z" fill="#FFEECE"/>
<path id="Vector_22" d="M430.274 362.225H444.69V371.306H421.197C421.197 370.114 421.432 368.933 421.888 367.831C422.344 366.729 423.012 365.728 423.855 364.885C424.698 364.041 425.698 363.373 426.8 362.916C427.901 362.46 429.081 362.225 430.273 362.225H430.274Z" fill="black"/>
<path id="Vector_23" d="M450.964 177.708C459.234 177.708 465.939 171 465.939 162.726C465.939 154.451 459.234 147.744 450.964 147.744C442.693 147.744 435.989 154.451 435.989 162.726C435.989 171 442.693 177.708 450.964 177.708Z" fill="#FFEECE"/>
<path id="Vector_24" d="M442.63 343.795H432.416C431.717 343.794 431.044 343.528 430.535 343.049C430.025 342.571 429.717 341.917 429.672 341.219C426.628 292.809 428.409 258.083 435.275 231.936C435.305 231.821 435.342 231.709 435.386 231.599L435.935 230.231C436.137 229.72 436.488 229.282 436.943 228.975C437.397 228.667 437.934 228.503 438.483 228.505H459.489C459.884 228.505 460.276 228.59 460.635 228.755C460.995 228.921 461.315 229.162 461.572 229.463L464.425 232.794C464.48 232.858 464.533 232.925 464.583 232.994C477.448 250.944 488.978 286.036 502.331 333.204C502.528 333.89 502.45 334.625 502.113 335.254C501.776 335.882 501.207 336.355 500.528 336.57L489.553 340.084C488.923 340.283 488.242 340.249 487.635 339.987C487.028 339.726 486.535 339.256 486.245 338.662L457.758 279.549C457.558 279.135 457.232 278.797 456.825 278.585C456.419 278.372 455.955 278.296 455.503 278.367C455.05 278.439 454.632 278.655 454.311 278.982C453.99 279.31 453.784 279.732 453.721 280.187L445.349 341.421C445.257 342.078 444.931 342.68 444.432 343.116C443.933 343.552 443.293 343.793 442.63 343.795Z" fill="#002B49"/>
<path id="Vector_25" d="M463.274 233.038H463.188L437.671 232.23C437.015 232.212 436.387 231.958 435.903 231.515C435.418 231.073 435.109 230.47 435.031 229.818C431.8 203.624 440.667 196.607 444.632 194.804C444.963 194.655 445.25 194.422 445.465 194.129C445.68 193.836 445.815 193.492 445.859 193.131L446.202 190.386C446.26 189.901 446.447 189.441 446.744 189.052C452.959 180.997 461.446 178.418 465.95 177.598C466.665 177.469 467.402 177.63 467.998 178.045C468.595 178.46 469.002 179.095 469.13 179.811C469.139 179.856 469.145 179.901 469.151 179.946L469.665 183.889C469.718 184.265 469.867 184.62 470.1 184.92C483.062 201.873 468.622 226.905 465.595 231.751C465.349 232.144 465.006 232.468 464.6 232.693C464.194 232.918 463.738 233.037 463.274 233.038Z" fill="#F96459"/>
<path id="Vector_26" d="M455.245 265.778L435.966 269.495L435.234 265.691L449.99 262.845L432.84 217.612L436.46 216.239L455.245 265.778Z" fill="#00A6A0"/>
<path id="Vector_27" d="M481.177 164.412C477.836 159.706 473.83 155.51 469.284 151.956C465.504 149.003 461.297 146.48 456.658 145.273C452.019 144.066 446.891 144.271 442.657 146.523C438.423 148.774 434.045 153.248 434.018 158.045C434.01 159.587 434.402 161.672 435.919 161.405L436.358 161.466L447.337 159.247L452.012 175.483C452.341 176.624 452.782 177.899 453.864 178.386C454.884 178.844 456.059 178.412 457.096 177.981C457.265 177.91 458.722 174.637 458.722 174.637C458.759 174.535 458.822 174.444 458.905 174.374C458.989 174.305 459.089 174.259 459.196 174.241C459.303 174.223 459.413 174.234 459.514 174.273C459.616 174.311 459.705 174.377 459.773 174.461L460.639 175.544C460.804 175.751 461.032 175.899 461.288 175.965C461.545 176.031 461.816 176.012 462.06 175.91L479.965 168.432C480.79 168.088 481.712 167.639 481.951 166.776C482.177 165.946 481.672 165.111 481.177 164.412Z" fill="#002B49"/>
<path id="Vector_28" d="M460.894 270.269C461.678 269.719 462.332 269.004 462.809 268.173C463.287 267.343 463.577 266.418 463.659 265.464C463.74 264.509 463.612 263.549 463.282 262.649C462.953 261.75 462.43 260.933 461.751 260.258L466.491 202.997L452.379 204.939L452.111 260.571C451.051 261.787 450.473 263.35 450.488 264.963C450.503 266.577 451.109 268.129 452.192 269.325C453.274 270.521 454.758 271.278 456.362 271.452C457.965 271.626 459.577 271.206 460.891 270.27L460.894 270.269Z" fill="#FFEECE"/>
<path id="Vector_29" d="M467.413 211.242C467.149 211.242 466.886 211.204 466.633 211.129L451.484 206.671C451.138 206.57 450.816 206.401 450.535 206.174C450.255 205.948 450.022 205.669 449.849 205.352C449.677 205.036 449.568 204.688 449.53 204.33C449.491 203.972 449.524 203.609 449.626 203.263C449.647 203.19 449.672 203.118 449.699 203.047L455.305 188.557C455.539 187.945 455.985 187.438 456.562 187.127C457.139 186.817 457.808 186.724 458.447 186.866L468.456 189.043C469.08 189.179 469.638 189.529 470.032 190.032C470.427 190.536 470.633 191.161 470.615 191.801L470.149 208.571C470.13 209.285 469.833 209.963 469.323 210.461C468.812 210.96 468.127 211.24 467.413 211.241V211.242Z" fill="#F96459"/>

<g id="Group_3_2">
<path id="Vector_30" opacity="0.2" d="M361.214 370.956C361.146 370.844 359.523 368.134 358.96 362.505C358.444 357.342 358.776 348.638 363.287 336.497C371.835 313.497 361.318 294.94 361.21 294.755L361.729 294.454C363.754 298.331 365.216 302.477 366.073 306.767C368.192 316.755 367.42 327.141 363.85 336.707C355.318 359.668 361.661 370.537 361.726 370.644L361.214 370.956Z" fill="#065143"/>
<path id="Vector_31" opacity="0.2" d="M357.872 293.405C360.025 293.405 361.77 291.659 361.77 289.505C361.77 287.351 360.025 285.605 357.872 285.605C355.719 285.605 353.974 287.351 353.974 289.505C353.974 291.659 355.719 293.405 357.872 293.405Z" fill="#065143"/>
<path id="Vector_32" opacity="0.2" d="M370.165 307.804C372.318 307.804 374.063 306.058 374.063 303.904C374.063 301.75 372.318 300.004 370.165 300.004C368.012 300.004 366.267 301.75 366.267 303.904C366.267 306.058 368.012 307.804 370.165 307.804Z" fill="#065143"/>
<path id="Vector_33" opacity="0.2" d="M361.769 317.404C363.922 317.404 365.667 315.658 365.667 313.504C365.667 311.35 363.922 309.604 361.769 309.604C359.617 309.604 357.871 311.35 357.871 313.504C357.871 315.658 359.617 317.404 361.769 317.404Z" fill="#065143"/>
<path id="Vector_34" opacity="0.2" d="M371.964 325.503C374.117 325.503 375.862 323.757 375.862 321.604C375.862 319.45 374.117 317.704 371.964 317.704C369.811 317.704 368.066 319.45 368.066 321.604C368.066 323.757 369.811 325.503 371.964 325.503Z" fill="#065143"/>
<path id="Vector_35" opacity="0.2" d="M358.771 338.103C360.924 338.103 362.669 336.356 362.669 334.203C362.669 332.049 360.924 330.303 358.771 330.303C356.618 330.303 354.873 332.049 354.873 334.203C354.873 336.356 356.618 338.103 358.771 338.103Z" fill="#065143"/>
<path id="Vector_36" opacity="0.2" d="M363.568 371.099C363.568 371.099 359.67 361.5 371.364 354.3L363.568 371.099Z" fill="#065143"/>
<path id="Vector_37" opacity="0.2" d="M358.775 370.926C358.775 370.926 357.001 360.718 343.271 360.805L358.775 370.926Z" fill="#065143"/>
</g>

<g id="arrow_middle">
<path id="Vector_38" d="M194.656 187.303L183.142 171.394L186.278 169.122L195.092 181.299L228.82 146.632L231.594 149.334L194.656 187.303Z" fill="#00A6A0"/>
</g>
<g id="arrow_right">
<path id="Vector_39" d="M263.553 137.283L252.039 121.373L255.175 119.101L263.989 131.279L297.717 96.6113L300.491 99.3136L263.553 137.283Z" fill="#00A6A0"/>
</g>
<g id="arrow_left">
<path id="Vector_40" d="M126.978 137.283L115.464 121.373L118.6 119.101L127.414 131.279L161.142 96.6113L163.916 99.3136L126.978 137.283Z" fill="#00A6A0"/>
</g>
</g>
</g>
</g>

    <script href="https://cdnjs.cloudflare.com/ajax/libs/gsap/3.6.0/gsap.min.js"></script>
    <script type="application/ecmascript">
        <![CDATA[

var tl = gsap.timeline({repeat: -1, repeatDelay: 1, onStart: function(){

        document.getElementById('arrow_left').style.opacity = "0";
        document.getElementById('arrow_right').style.opacity = "0";
        document.getElementById('arrow_middle').style.opacity = "0";
}});

var t2 = gsap.timeline(
    {
        repeat: -1,
        repeatDelay: 1
    }
);

    t2.add(
            gsap.fromTo(
                        "#Group_3_2",
                                {
                                    rotation:0,
                                    transformOrigin:"bottom center"
                                },
                                {
                                    delay: 1.5,
                                    duration: 2.5,
                                    rotation:20,
                                    transformOrigin:"bottom center",
                                    ease:Linear.easeNone
                                }
                        )
            );

    t2.add(
            gsap.fromTo(
                        "#Group_3",
                                {
                                    rotation:20,
                                    transformOrigin:"bottom center"

                                },
                                {
                                    delay: 1.5,
                                    duration: 2.5,
                                    rotation:0,
                                    transformOrigin:"bottom center",
                                    ease:Linear.easeNone                        
                                }
                        )
            );

    tl.add(
            gsap.fromTo(
                        "#arrow_left",
                                {
                                    rotation:-20,
                                    opacity: 0,
                                    transformOrigin:"center center",
                                    delay: 0,
                                },
                                {
                                    duration: 1.5,
                                    rotation:0,
                                    opacity: 1,
                                    transformOrigin:"center center",
                                    delay: 0,
                                    ease:Linear.easeNone
                                }
                        )
            );

    tl.add(
            gsap.fromTo(
                        "#arrow_right",
                                {
                                    rotation:-20,
                                    opacity: 0,
                                    transformOrigin:"center center",
                                    delay: 1,
                                },
                                {
                                    duration: 1.5,
                                    rotation:0,
                                    opacity: 1,
                                    transformOrigin:"center center",
                                    delay: 0,
                                    ease:Linear.easeNone                        
                                }
                        )
            );

    tl.add(
            gsap.fromTo(
                        "#arrow_middle",
                                {
                                    rotation:-20,
                                    opacity: 0,
                                    transformOrigin:"center center",
                                    delay: 1.5,
                                },
                                {
                                    duration: 1.5,
                                    rotation:0,
                                    opacity: 1,
                                    transformOrigin:"center center",
                                    delay: 0,
                                    ease:Linear.easeNone                        
                                }
                        )
            );

    tl.add(
            gsap.fromTo(
                        "#arrow_middle",
                                {
                                    rotation:0,
                                    opacity: 1,
                                    transformOrigin:"center center",
                                    delay: 1,
                                },
                                {
                                    duration: 1.5,
                                    rotation:-20,
                                    opacity: 0,
                                    transformOrigin:"center center",
                                    delay: 1,
                                    ease:Linear.easeNone                        
                                }
                        )
            );

    tl.add(
            gsap.fromTo(
                        "#arrow_right",
                                {
                                    rotation:0,
                                    opacity: 1,
                                    transformOrigin:"center center",
                                    delay: 0,
                                },
                                {
                                    duration: 1.5,
                                    rotation:-20,
                                    opacity: 0,
                                    transformOrigin:"center center",
                                    ease:Linear.easeNone                        
                                }
                        )
            );

    tl.add(
            gsap.fromTo(
                        "#arrow_left",
                                {
                                    rotation:0,
                                    opacity: 1,
                                    transformOrigin:"center center",
                                    delay: 0,
                                },
                                {
                                    duration: 1.5,
                                    rotation:-20,
                                    opacity: 0,
                                    transformOrigin:"center center",
                                    ease:Linear.easeNone                        
                                }
                        )
            );

        ]]>
    </script>
</svg>
