<svg width="195" height="195" viewBox="0 0 195 195" fill="none" xmlns="http://www.w3.org/2000/svg">
<g id="Calendar-Hand_rev_1 1">
<g id="Calendar Hand 1">
<path id="Vector" fill-rule="evenodd" clip-rule="evenodd" d="M117.34 35.255C115.746 35.255 114.256 34.2828 113.252 32.5855C112.858 31.9254 112.366 31.5125 111.965 31.5125H110.704C110.303 31.5125 109.807 31.9254 109.413 32.5887C108.412 34.2828 106.92 35.255 105.323 35.255H104.068C102.471 35.255 100.978 34.2828 99.9742 32.5855C99.583 31.9254 99.0876 31.5125 98.6867 31.5125H97.4287C97.0278 31.5125 96.5324 31.9254 96.1413 32.5887C95.1374 34.2828 93.6447 35.255 92.0509 35.255H90.7895C89.199 35.255 87.7095 34.2828 86.7024 32.5887C86.3081 31.9222 85.8126 31.5125 85.4118 31.5125H84.7827V28.261H85.4118C87.0055 28.261 88.4983 29.2332 89.5054 30.9305C89.8965 31.5905 90.3887 32.0035 90.7895 32.0035H92.0509C92.4518 32.0035 92.9439 31.5938 93.335 30.9305C94.3454 29.2332 95.8349 28.261 97.4287 28.261H98.6867C100.281 28.261 101.77 29.2332 102.777 30.9272C103.171 31.5938 103.667 32.0035 104.068 32.0035H105.323C105.727 32.0035 106.219 31.5938 106.61 30.9305C107.624 29.2332 109.113 28.261 110.704 28.261H111.965C113.556 28.261 115.045 29.2332 116.052 30.9272C116.45 31.5938 116.939 32.0035 117.34 32.0035V35.255Z" fill="#FEDEB6"/>
<path id="Vector 2" fill-rule="evenodd" clip-rule="evenodd" d="M84.8775 121.788H81.6183C81.6183 117.971 84.7309 114.862 88.5605 114.862H111.74C114.524 114.862 116.786 112.606 116.786 109.829C116.786 107.056 114.524 104.796 111.74 104.796H93.9089C91.5786 104.796 89.2971 104.357 87.1362 103.492L73.4049 97.9904C71.6351 97.2816 69.7611 96.9207 67.8479 96.9207H51.2386V93.6692H67.8479C70.1782 93.6692 72.4565 94.1081 74.6239 94.973L88.3519 100.475C90.1249 101.187 91.999 101.544 93.9089 101.544H111.74C116.32 101.544 120.045 105.261 120.045 109.829C120.045 114.398 116.32 118.114 111.74 118.114H88.5605C86.53 118.114 84.8775 119.763 84.8775 121.788Z" fill="#022C48"/>
<path id="Vector 3" fill-rule="evenodd" clip-rule="evenodd" d="M98.4746 142.371C96.5223 142.371 94.5667 142.032 92.7024 141.35L65.3995 131.335C63.2354 130.545 60.9767 130.145 58.6757 130.145H51.238V126.893H58.6757C61.3581 126.893 64.0013 127.362 66.5207 128.285L93.8269 138.3C97.3404 139.587 101.274 139.35 104.612 137.653L151.829 113.605C152.973 113.023 153.801 112.024 154.162 110.795C154.521 109.566 154.361 108.282 153.713 107.173C152.627 105.32 150.352 104.458 148.302 105.121L117.831 115.006L116.827 111.914L147.295 102.029C150.789 100.901 154.671 102.371 156.529 105.531C157.634 107.417 157.904 109.612 157.288 111.709C156.672 113.806 155.261 115.507 153.312 116.498L106.095 140.547C103.715 141.759 101.098 142.371 98.4746 142.371Z" fill="#022C48"/>
<path id="Vector 4" fill-rule="evenodd" clip-rule="evenodd" d="M49.5061 134.337H34.6373V131.086H49.5061C50.1319 131.086 50.6436 130.575 50.6436 129.951V93.1634C50.6436 92.5391 50.1319 92.0286 49.5061 92.0286H34.6373V88.7771H49.5061C51.9277 88.7771 53.9028 90.7443 53.9028 93.1634V129.951C53.9028 132.37 51.9277 134.337 49.5061 134.337Z" fill="#022C48"/>
<path id="Vector 5" fill-rule="evenodd" clip-rule="evenodd" d="M34.6401 126.559H38.6914V123.308H34.6401V126.559Z" fill="#9CE3DF"/>
<path id="Vector 6" fill-rule="evenodd" clip-rule="evenodd" d="M41.8691 126.559H45.9204V123.308H41.8691V126.559Z" fill="#9CE3DF"/>
<path id="Vector 7" d="M121.048 49.8472H81.1443C79.1395 49.8472 77.5143 51.4724 77.5143 53.4772V84.832C77.5143 86.8368 79.1395 88.462 81.1443 88.462H121.048C123.053 88.462 124.678 86.8368 124.678 84.832V53.4772C124.678 51.4724 123.053 49.8472 121.048 49.8472Z" fill="#CDF1EF" stroke="#002B49" stroke-width="2.42"/>
<path id="Vector 8" fill-rule="evenodd" clip-rule="evenodd" d="M82.9479 65.5674H86.6239V61.8914H82.9479V65.5674Z" fill="#00BAB3"/>
<path id="Vector 9" fill-rule="evenodd" clip-rule="evenodd" d="M89.7075 65.5674H93.3835V61.8914H89.7075V65.5674Z" fill="#00BAB3"/>
<path id="Vector 10" fill-rule="evenodd" clip-rule="evenodd" d="M108.879 65.5674H112.555V61.8914H108.879V65.5674Z" fill="#00BAB3"/>
<path id="Vector 11" fill-rule="evenodd" clip-rule="evenodd" d="M115.639 65.5674H119.315V61.8914H115.639V65.5674Z" fill="#00BAB3"/>
<path id="Vector 12" fill-rule="evenodd" clip-rule="evenodd" d="M115.639 74.1165H119.315V70.4404H115.639V74.1165Z" fill="#00BAB3"/>
<path id="Vector 13" fill-rule="evenodd" clip-rule="evenodd" d="M108.879 74.1165H112.555V70.4404H108.879V74.1165Z" fill="#00BAB3"/>
<path id="Vector 14" fill-rule="evenodd" clip-rule="evenodd" d="M89.7075 74.1165H93.3835V70.4404H89.7075V74.1165Z" fill="#00BAB3"/>
<path id="Vector 15" fill-rule="evenodd" clip-rule="evenodd" d="M82.9479 74.1165H86.6239V70.4404H82.9479V74.1165Z" fill="#00BAB3"/>
<path id="Vector 16" fill-rule="evenodd" clip-rule="evenodd" d="M82.9479 82.6653H86.6239V78.9893H82.9479V82.6653Z" fill="#00BAB3"/>
<path id="Vector 17" fill-rule="evenodd" clip-rule="evenodd" d="M89.7075 82.6653H93.3835V78.9893H89.7075V82.6653Z" fill="#00BAB3"/>
<path id="Vector 18" d="M78.8689 56.3312H125.033" stroke="#002B49" stroke-width="1.21" stroke-linecap="square"/>
<path id="Vector 19" d="M86.563 45.2175H83.1434V52.0566H86.563V45.2175Z" fill="#002B49"/>
<path id="Vector 20" d="M119.049 45.2175H115.629V52.0566H119.049V45.2175Z" fill="#002B49"/>
<path id="Vector 21" fill-rule="evenodd" clip-rule="evenodd" d="M105.238 78.8721H96.339V75.9047H102.271V73.7474L96.339 71.0797L96.3361 64.0381L105.235 64.0352V67.0025L99.3035 67.0055L99.3064 69.1628L105.238 71.8305V78.8721Z" fill="#022C48"/>
<path id="Vector 22" fill-rule="evenodd" clip-rule="evenodd" d="M99.3387 81.8398H102.306V77.3887H99.3387V81.8398Z" fill="#022C48"/>
<path id="Vector 23" fill-rule="evenodd" clip-rule="evenodd" d="M99.3387 65.5192H102.306V61.0681H99.3387V65.5192Z" fill="#022C48"/>
<g id="plus_symbol">
<path id="Vector 24" fill-rule="evenodd" clip-rule="evenodd" d="M138.997 149.289H145.169V131.413H138.997V149.289Z" fill="#CDF1EF"/>
<path id="Vector 25" fill-rule="evenodd" clip-rule="evenodd" d="M132.826 143.331H151.34V137.372H132.826V143.331Z" fill="#CDF1EF"/>
</g>
<g id="left_upper_arrow">
<path id="Vector 26" fill-rule="evenodd" clip-rule="evenodd" d="M43.8043 69.2391H69.2391V65H43.8043V69.2391Z" fill="#1DB9B2"/>
</g>
<g id="left_below_arrow">
<path id="Vector 27" fill-rule="evenodd" clip-rule="evenodd" d="M69.2391 77.7175H28.2609V73.4784H69.2391V77.7175Z" fill="#FEC687"/>
</g>
<g id="right_arrow">
<path id="Vector 28" fill-rule="evenodd" clip-rule="evenodd" d="M132.826 69.2391H158.261V65H132.826V69.2391Z" fill="#CDF1EF"/>
</g>
<path id="Vector 29" fill-rule="evenodd" clip-rule="evenodd" d="M132.826 56.2949H149.052V53.0308H132.826V56.2949Z" fill="#FFC882"/>
<path id="Vector 30" fill-rule="evenodd" clip-rule="evenodd" d="M145.216 61.2762L142.909 58.9685L147.214 54.6631L142.909 50.3512L145.216 48.0435L151.829 54.6631L145.216 61.2762Z" fill="#FFC882"/>
<path id="Vector 31" fill-rule="evenodd" clip-rule="evenodd" d="M44.9761 61.0361H41.1162V57.1763H44.9761V61.0361Z" fill="#FEDEB6"/>
<path id="Vector 32" fill-rule="evenodd" clip-rule="evenodd" d="M52.6959 61.0361H48.8361V57.1763H52.6959V61.0361Z" fill="#FEDEB6"/>
<path id="Vector 33" fill-rule="evenodd" clip-rule="evenodd" d="M69.2391 61.0361H65.3793V57.1763H69.2391V61.0361Z" fill="#FEDEB6"/>
<path id="Vector 34" fill-rule="evenodd" clip-rule="evenodd" d="M61.5194 61.0361H57.6596V57.1763H61.5194V61.0361Z" fill="#FEDEB6"/>
<path id="Vector 35" fill-rule="evenodd" clip-rule="evenodd" d="M61.5194 53.3164H57.6596V49.4565H61.5194V53.3164Z" fill="#FEDEB6"/>
<path id="Vector 36" fill-rule="evenodd" clip-rule="evenodd" d="M136.824 76.0291H132.964V79.8889H136.824V76.0291Z" fill="#FEDEB6"/>
<path id="Vector 37" fill-rule="evenodd" clip-rule="evenodd" d="M144.544 76.0291H140.684V79.8889H144.544V76.0291Z" fill="#FEDEB6"/>
<path id="Vector 38" fill-rule="evenodd" clip-rule="evenodd" d="M161.087 76.0291H157.227V79.8889H161.087V76.0291Z" fill="#FEDEB6"/>
<path id="Vector 39" fill-rule="evenodd" clip-rule="evenodd" d="M153.367 76.0291H149.507V79.8889H153.367V76.0291Z" fill="#FEDEB6"/>
<path id="Vector 40" fill-rule="evenodd" clip-rule="evenodd" d="M153.367 83.7488H149.507V87.6086H153.367V83.7488Z" fill="#FEDEB6"/>
</g>
</g>

    <script href="https://cdnjs.cloudflare.com/ajax/libs/gsap/3.6.0/gsap.min.js"></script>
    <script type="application/ecmascript">

        <![CDATA[

    var tl = gsap.timeline(
        {
            repeat: -1,
            repeatDelay: 1,
            onStart: function(){
                gsap.set("#left_upper_arrow", {scaleX:0.2});
                gsap.set("#left_below_arrow", {scaleX:0.1});
                gsap.set("#right_arrow", {scaleX:0.2});
            }
        });

    var t2 = gsap.timeline(
        {
            repeat: -1,
            repeatDelay: 1
        });

    tl.add(
            gsap.fromTo(
                        "#left_upper_arrow",
                                {
                                    scaleX:0.2,
                                    delay: 0,
                                    duration:1,
                                    transformOrigin:"left",
                                                                        
                                },
                                {
                                    scaleX:1,
                                    delay: 0,
                                    duration: 1,
                                    ease:Linear.easeNone
                                }
                        )
            );

    tl.add(
            gsap.fromTo(
                        "#left_below_arrow",
                                {
                                    scaleX:0.1,
                                    delay: 1,
                                    transformOrigin:"left",
                                },
                                {
                                    scaleX:1,
                                    delay: 0,
                                    duration: 1,
                                    ease:Linear.easeNone
                                }
                        )
            );

    tl.add(
            gsap.fromTo(
                        "#right_arrow",
                                {
                                    scaleX:0.2,
                                    delay: 1,
                                    transformOrigin:"left",
                                },
                                {
                                    scaleX:1,
                                    delay: 0,
                                    duration: 1,
                                    ease:Linear.easeNone
                                }
                        )
            );

    tl.add(
            gsap.fromTo(
                        "#right_arrow",
                                {
                                    scaleX:1,
                                    delay: 0,
                                    transformOrigin:"left",
                                },
                                {
                                    scaleX:0.2,
                                    delay: 3,
                                    duration: 1,
                                    ease:Linear.easeNone
                                }
                        )
            );

    tl.add(
            gsap.fromTo(
                        "#left_below_arrow",
                                {
                                    scaleX:1,
                                    delay: 0,
                                    transformOrigin:"left",                                    
                                },
                                {
                                    scaleX:0.1,
                                    delay: 0,
                                    duration: 1,
                                    ease:Linear.easeNone
                                }
                        )
            );

    tl.add(
            gsap.fromTo(
                        "#left_upper_arrow",
                                {
                                    scaleX:1,
                                    delay: 0,
                                    duration:1,
                                    transformOrigin:"left",
                                                                        
                                },
                                {
                                    scaleX:0.2,
                                    delay: 0,
                                    duration: 1,
                                    ease:Linear.easeNone
                                }
                        )
            );

    t2.add(
            gsap.to(
                        "#plus_symbol",
                                {
                                    rotation:360,
                                    delay: 0,
                                    duration:4,
                                    transformOrigin:"center center",
                                    ease:Linear.easeNone    
                                }
                        )
            );

            <!-- plus_symbol -->
        ]]>
    </script>

</svg>
