<svg width="195" height="195" viewBox="0 0 195 195" fill="none" xmlns="http://www.w3.org/2000/svg">
<g id="Customer-Services 1">
<mask id="mask0" mask-type="alpha" maskUnits="userSpaceOnUse" x="151" y="67" width="30" height="7">
<g id="mask0">
<path id="Vector" fill-rule="evenodd" clip-rule="evenodd" d="M151.926 67.3481H180.157V73.4271H151.926V67.3481Z" fill="white"/>
</g>
</mask>
<g mask="url(#mask0)">
<g id="Group">
<path id="Vector_2" fill-rule="evenodd" clip-rule="evenodd" d="M180.159 73.4271C178.78 73.4271 177.488 72.5821 176.612 71.1097C176.27 70.5331 175.841 70.1742 175.496 70.1742H174.402C174.052 70.1742 173.625 70.5331 173.286 71.1068C172.413 72.5821 171.118 73.4271 169.739 73.4271H168.646C167.266 73.4271 165.975 72.5821 165.099 71.1097C164.76 70.5331 164.333 70.1742 163.983 70.1742H162.894C162.547 70.1742 162.117 70.5331 161.778 71.1068C160.908 72.5792 159.611 73.4271 158.229 73.4271H157.138C155.75 73.4271 154.461 72.5792 153.591 71.1068C153.252 70.5331 152.819 70.1742 152.475 70.1742H151.926V67.3481H152.475C153.854 67.3481 155.145 68.1931 156.021 69.6655C156.363 70.2421 156.784 70.601 157.138 70.601H158.229C158.576 70.601 159.003 70.2421 159.342 69.6684C160.213 68.1931 161.507 67.3481 162.894 67.3481H163.983C165.37 67.3481 166.662 68.1931 167.532 69.6684C167.868 70.2421 168.301 70.601 168.646 70.601H169.739C170.09 70.601 170.516 70.2421 170.858 69.6655C171.729 68.1931 173.02 67.3481 174.402 67.3481H175.496C176.875 67.3481 178.169 68.1931 179.04 69.6684C179.385 70.2421 179.809 70.601 180.159 70.601V73.4271Z" fill="#CDF1EF"/>
</g>
</g>
<mask id="mask1" mask-type="alpha" maskUnits="userSpaceOnUse" x="12" y="21" width="169" height="153">
<g id="mask1">
<path id="Vector_3" fill-rule="evenodd" clip-rule="evenodd" d="M12.7174 173.941H180.157V21.1963H12.7174V173.941Z" fill="white"/>
</g>
</mask>
<g mask="url(#mask1)">
<g id="Group_2">
<path id="Vector_4" fill-rule="evenodd" clip-rule="evenodd" d="M31.4232 60.7727H36.6882V55.5077H31.4232V60.7727ZM28.5971 63.5988H39.5143V52.6816H28.5971V63.5988Z" fill="#FEDEB6"/>
<path id="Vector_5" fill-rule="evenodd" clip-rule="evenodd" d="M166.1 109.102H171.365V103.834H166.1V109.102ZM163.274 111.928H174.191V101.008H163.274V111.928Z" fill="#FEDEB6"/>
<path id="Vector_6" fill-rule="evenodd" clip-rule="evenodd" d="M129.775 169.923C129.775 172.141 112.943 173.941 92.1769 173.941C71.4136 173.941 54.5786 172.141 54.5786 169.923C54.5786 167.704 71.4136 165.907 92.1769 165.907C112.943 165.907 129.775 167.704 129.775 169.923Z" fill="#CDF1EF"/>
<path id="Vector_7" fill-rule="evenodd" clip-rule="evenodd" d="M115.614 135.17L114.23 132.706C129.982 123.866 138.825 105.915 136.236 88.0396C132.763 64.0404 110.414 47.3411 86.4124 50.8143C72.8274 52.7841 61.1585 60.7735 54.4013 72.7391L51.9398 71.3487C59.135 58.6143 71.5472 50.1106 86.0055 48.0165C111.534 44.303 135.335 62.0961 139.031 87.6354C141.787 106.658 132.376 125.765 115.614 135.17Z" fill="#FEC687"/>
<path id="Vector_8" fill-rule="evenodd" clip-rule="evenodd" d="M99.596 97.0845H86.9436C86.1636 97.0845 85.5306 96.4514 85.5306 95.6714C85.5306 94.3262 86.9069 92.8793 90.0071 89.7253C92.706 86.9925 96.7699 82.8664 96.7699 80.908C96.7699 77.3838 95.2015 75.8153 91.6773 75.8153C87.701 75.8153 87.653 79.8001 87.653 79.8397V81.2527H84.8269V79.8397C84.8269 77.0871 86.6526 72.9893 91.6773 72.9893C96.7869 72.9893 99.596 75.804 99.596 80.908C99.596 83.799 96.4619 87.2073 92.0221 91.7093C91.2449 92.5006 90.3095 93.4501 89.5719 94.2584H99.596V97.0845Z" fill="#022C48"/>
<path id="Vector_9" fill-rule="evenodd" clip-rule="evenodd" d="M104.1 89.2164H112.423V76.5273H111.392L104.1 88.1114V89.2164ZM115.249 97.0842H112.423V92.0425H102.687C101.904 92.0425 101.274 91.4094 101.274 90.6294V87.7073C101.274 87.4388 101.348 87.1788 101.489 86.9527L109.413 74.3596C109.673 73.9499 110.123 73.7012 110.612 73.7012H113.836C114.619 73.7012 115.249 74.3314 115.249 75.1142V89.2164H119.081V92.0425H115.249V97.0842Z" fill="#022C48"/>
<path id="Vector_10" fill-rule="evenodd" clip-rule="evenodd" d="M50.5235 82.9704C49.5145 86.7291 49.003 90.5499 49.003 94.3341C49.003 118.548 68.7037 138.249 92.9148 138.249C96.7045 138.249 100.525 137.734 104.29 136.723L106.85 123.949L89.3482 119.975L86.4628 125.958C86.1689 126.56 85.4963 126.871 84.8491 126.715C72.8354 123.731 63.515 114.413 60.5335 102.397C60.3582 101.713 60.7228 101.006 61.3841 100.744L66.4711 98.7315L62.4298 80.7858L50.5235 82.9704ZM92.9148 141.075C67.1409 141.075 46.1769 120.108 46.1769 94.3341C46.1769 90.0017 46.8043 85.6326 48.0422 81.3482C48.1919 80.8339 48.6187 80.4467 49.1472 80.3506L63.2578 77.7591C64.0095 77.6036 64.7245 78.0982 64.8913 78.8386L69.495 99.2882C69.6476 99.9693 69.283 100.659 68.633 100.913L63.5969 102.908C66.5248 112.958 74.3587 120.775 84.4252 123.675L87.2965 117.734C87.5791 117.141 88.2178 116.818 88.8763 116.968L108.817 121.498C109.569 121.668 110.047 122.403 109.894 123.155L106.893 138.127C106.788 138.641 106.407 139.063 105.901 139.204C101.616 140.445 97.2472 141.075 92.9148 141.075Z" fill="#022C48"/>
<path id="Vector_11" fill-rule="evenodd" clip-rule="evenodd" d="M87.3487 105.456H90.1748V102.63H87.3487V105.456ZM93.8487 105.456H96.6748V102.63H93.8487V105.456ZM100.346 105.456H103.172V102.63H100.346V105.456ZM106.849 105.456H109.675V102.63H106.849V105.456ZM113.349 105.456H116.175V102.63H113.349V105.456Z" fill="#1DB9B2"/>
<path id="Vector_12" fill-rule="evenodd" clip-rule="evenodd" d="M17.3748 142.825H20.2008V130.685H17.3748V142.825Z" fill="#FEDEB6"/>
<path id="Vector_13" fill-rule="evenodd" clip-rule="evenodd" d="M12.7174 138.168H24.8555V135.342H12.7174V138.168Z" fill="#FEDEB6"/>
<path id="Vector_14" fill-rule="evenodd" clip-rule="evenodd" d="M166.768 148.117L158.185 139.534L160.181 137.536L168.764 146.119L166.768 148.117Z" fill="#CDF1EF"/>
<path id="Vector_15" fill-rule="evenodd" clip-rule="evenodd" d="M160.18 148.117L158.185 146.119L166.768 137.536L168.763 139.534L160.18 148.117Z" fill="#CDF1EF"/>
</g>
<g id="outer_circle">
<path id="Vector_16" fill-rule="evenodd" clip-rule="evenodd" d="M134.486 126.592L135.309 125.465L136.156 124.332L138.446 125.999L137.601 127.129L136.781 128.291L134.486 126.592ZM130.306 131.368L132.256 129.305L134.317 131.23L132.401 133.29L130.306 131.368ZM125.615 135.608L127.76 133.771L129.6 135.947L127.421 137.755L125.615 135.608ZM120.443 139.25L122.814 137.699L124.343 140.047L121.998 141.599L120.443 139.25Z" fill="#1DB9B2"/>
<path id="Vector_17" fill-rule="evenodd" clip-rule="evenodd" d="M145.813 110.856L143.116 110.014C144.691 104.964 145.488 99.6876 145.488 94.3321C145.488 75.2532 135.133 57.6071 118.467 48.2782L119.846 45.811C137.402 55.6402 148.314 74.2302 148.314 94.3321C148.314 99.973 147.471 105.535 145.813 110.856Z" fill="#FEC687"/>
<path id="Vector_18" fill-rule="evenodd" clip-rule="evenodd" d="M89.7489 38.8431L92.575 38.7583L92.6598 41.5844L89.8337 41.6409L89.7489 38.8431ZM83.1388 39.5779L85.9338 39.1822L86.3323 41.9546L83.5345 42.3757L83.1388 39.5779ZM76.6388 41.135L77.9981 40.7366H78.0236L79.3773 40.3692L80.1177 43.1105L78.7583 43.4807L77.399 43.8481L76.6388 41.135ZM70.3901 43.4214L73.0184 42.3474L74.0641 44.9757L71.4641 46.0496L70.3901 43.4214ZM64.4583 46.4735L65.7018 45.7952L66.917 45.0887L68.3018 47.5757L65.8431 48.9322L64.4583 46.4735ZM58.9475 50.2068L61.2055 48.5366L62.8757 50.8257L60.5894 52.4931L58.9475 50.2068ZM53.8915 54.5844L54.9372 53.6207L55.98 52.6655L57.9018 54.7257L55.8359 56.6474L53.8915 54.5844Z" fill="#1DB9B2"/>
<path id="Vector_19" fill-rule="evenodd" clip-rule="evenodd" d="M92.7516 149.897C62.1111 149.897 37.1851 124.971 37.1851 94.333H40.0111C40.0111 123.413 63.6683 147.071 92.7516 147.071V149.897Z" fill="#FEC687"/>
</g>
<g id="plus_symbol">
<path id="Vector_20" fill-rule="evenodd" clip-rule="evenodd" d="M78.1266 23.1929L80.1246 21.1948L83.4172 24.4874L86.7098 21.1948L88.7079 23.1929L85.4158 26.486L88.7075 29.7777L86.7094 31.7785L83.4172 28.4853L80.1251 31.7785L78.127 29.7777L81.4187 26.486L78.1266 23.1929Z" fill="#CDF1EF"/>
</g>
</g>
</g>

    <script href="https://cdnjs.cloudflare.com/ajax/libs/gsap/3.6.0/gsap.min.js"></script>
    <script type="application/ecmascript">

    <![CDATA[

    var t1 = gsap.timeline(
        {
            repeat: -1,
            repeatDelay: 0
        });

    t1.add(
            gsap.to(
                        "#plus_symbol",
                                {
                                    rotation:360,
                                    delay: 0,
                                    duration:4,
                                    transformOrigin:"center center",
                                    ease:Linear.easeNone    
                                }
                        )
            );

    var t2 = gsap.timeline(
        {
            repeat: -1,
            repeatDelay: 3
        });


    t2.add(
            gsap.to(
                        "#outer_circle",
                                {
                                    rotation:360,
                                    duration:2,
                                    transformOrigin:"center center",
                                    ease:Linear.easeNone    
                                }
                        )
            );

        ]]>
    </script>

</svg>
