<svg width="133" height="100" viewBox="0 0 133 100" fill="none" xmlns="http://www.w3.org/2000/svg">
<path opacity="0.6" fill-rule="evenodd" clip-rule="evenodd" d="M40.9841 3.8961L0.650541 8.44156L0 11.6883L1.95162 13.6364L3.90324 14.2857V16.8831L4.55378 18.1818H5.85487L4.55378 20.7792L5.20432 21.4286L8.45703 17.5325L7.80649 15.5844L9.75811 16.8831L10.4086 15.5844H11.7097L11.0592 16.8831L13.0108 17.5325L11.7097 18.1818L17.5646 17.5325L18.8657 15.5844H20.1668L23.4195 14.9351L25.3711 16.8831L22.1184 17.5325L27.3227 18.8312L31.2259 20.7792L29.2743 18.8312L31.2259 17.5325L31.8765 18.8312L33.8281 16.8831L34.4787 18.1818L32.527 20.1299L33.8281 20.7792H35.7797L37.0808 22.0779L35.7797 22.7273L33.8281 22.0779L37.0808 24.026L39.0324 25.974V27.9221H40.9841L43.5862 26.6234L46.1884 24.6753L46.8389 25.974L51.3927 22.0779H53.9949L51.3927 20.7792L53.9949 18.8312L55.9465 18.1818H59.1992L61.8014 19.4805H63.753L66.3551 22.0779L67.0057 23.3766L69.6078 24.026L70.2584 26.6234L71.5595 27.9221L73.5111 28.5714L74.8122 30.5195L76.7638 31.8182H80.667L81.9681 35.0649L83.9197 36.3636V38.961L84.5703 40.2597V46.7532L83.2692 50L84.5703 51.2987L83.9197 55.8442L86.5219 57.7922L87.1724 55.1948L85.2208 53.8961L85.8714 51.9481L88.4735 53.2468V55.1948L89.7746 53.2468L90.4251 54.5455L91.0757 55.8442L88.4735 59.7403L87.823 62.3377L89.7746 64.2857L90.4251 66.2338L92.3768 68.8312L93.6778 70.7792L95.6295 72.7273H97.5811L94.9789 70.1299H96.9305L99.5327 69.4805L100.183 70.1299L98.8822 70.7792L99.5327 75.3247L100.183 77.2727L101.484 76.6234V75.3247L104.086 73.3766V74.6753L102.785 75.974L101.484 77.9221L102.785 78.5714L103.436 77.9221L104.737 80.5195L105.388 83.7662L107.339 86.3636L112.544 87.6623L114.495 88.961V90.2597L115.146 90.9091L117.097 92.8571L118.398 95.4545L121.651 96.1039L122.952 97.4026L121.651 98.7013L118.398 96.7532V98.7013L119.699 100L122.952 99.3506L123.603 98.0519L126.205 98.7013L128.156 96.1039H130.108L132.06 92.8571L130.759 91.5584L132.06 87.013L132.71 83.1169V79.8701V75.974L132.06 75.3247V70.1299L131.409 66.2338L130.108 64.9351V63.6364L127.506 61.039H126.205L125.554 59.7403L127.506 60.3896L126.205 57.7922L125.554 57.1429L122.952 52.5974L120.35 48.7013L117.097 43.5065L113.845 38.961L112.544 34.4156L113.845 33.7662L114.495 36.3636H116.447L110.592 29.2208L104.737 21.4286L100.834 12.3377L100.183 11.039L98.8822 8.44156L98.2316 5.19481L96.28 3.8961V1.94805H97.5811V0.649351H92.3768L89.1241 0L87.823 1.2987V3.8961L89.1241 4.54545L88.4735 8.44156H86.5219L85.2208 6.49351V5.19481L81.3176 5.84416L42.9357 8.44156L42.2851 5.84416L40.9841 3.8961Z" fill="#00A6A0"/>
</svg>
