<svg width="195" height="195" viewBox="0 0 195 195" fill="none" xmlns="http://www.w3.org/2000/svg">
<g id="Money-Technology 1">
<path id="Vector" fill-rule="evenodd" clip-rule="evenodd" d="M160.008 52.8558L151.426 44.2729L153.424 42.2749L162.006 50.8577L160.008 52.8558Z" fill="#CDF1EF"/>
<path id="Vector_2" fill-rule="evenodd" clip-rule="evenodd" d="M153.424 52.8558L151.426 50.8577L160.008 42.2749L162.006 44.2729L153.424 52.8558Z" fill="#CDF1EF"/>
<path id="Vector_3" fill-rule="evenodd" clip-rule="evenodd" d="M67.7707 26.8481L65.7727 28.8434L74.3555 37.429L76.3536 35.431L67.7707 26.8481Z" fill="#CDF1EF"/>
<path id="Vector_4" fill-rule="evenodd" clip-rule="evenodd" d="M74.3558 26.8481L65.7729 35.431L67.771 37.429L76.3538 28.8434L74.3558 26.8481Z" fill="#CDF1EF"/>
<path id="Vector_5" fill-rule="evenodd" clip-rule="evenodd" d="M182.606 132.993C181.227 132.993 179.933 132.145 179.059 130.673C178.72 130.099 178.293 129.74 177.946 129.74H176.852C176.504 129.74 176.075 130.099 175.736 130.673C174.865 132.145 173.571 132.993 172.189 132.993H171.098C169.713 132.993 168.419 132.145 167.549 130.673C167.209 130.099 166.78 129.74 166.432 129.74H165.341C164.997 129.74 164.567 130.099 164.225 130.673C163.355 132.145 162.058 132.993 160.678 132.993H159.585C158.203 132.993 156.911 132.145 156.041 130.673C155.699 130.099 155.269 129.74 154.922 129.74H154.379V126.914H154.922C156.304 126.914 157.595 127.756 158.471 129.231C158.81 129.808 159.237 130.167 159.585 130.167H160.678C161.026 130.167 161.456 129.808 161.795 129.231C162.668 127.756 163.959 126.914 165.341 126.914H166.432C167.814 126.914 169.109 127.756 169.979 129.231C170.321 129.808 170.751 130.167 171.098 130.167H172.189C172.537 130.167 172.963 129.808 173.305 129.231C174.179 127.756 175.473 126.914 176.852 126.914H177.946C179.325 126.914 180.619 127.756 181.49 129.231C181.834 129.808 182.261 130.167 182.606 130.167V132.993Z" fill="#CDF1EF"/>
<path id="Vector_6" fill-rule="evenodd" clip-rule="evenodd" d="M114.94 30.724C113.143 30.724 111.682 32.1879 111.682 33.9853C111.682 35.7827 113.143 37.2466 114.94 37.2466C116.74 37.2466 118.201 35.7827 118.201 33.9853C118.201 32.1879 116.74 30.724 114.94 30.724ZM114.94 40.0727C111.585 40.0727 108.855 37.3427 108.855 33.9853C108.855 30.6308 111.585 27.8979 114.94 27.8979C118.295 27.8979 121.027 30.6308 121.027 33.9853C121.027 37.3427 118.295 40.0727 114.94 40.0727Z" fill="#FEDEB6"/>
<path id="Vector_7" fill-rule="evenodd" clip-rule="evenodd" d="M15.9773 63.4423C14.1799 63.4423 12.7188 64.9062 12.7188 66.7036C12.7188 68.501 14.1799 69.9649 15.9773 69.9649C17.7775 69.9649 19.2386 68.501 19.2386 66.7036C19.2386 64.9062 17.7775 63.4423 15.9773 63.4423ZM15.9773 72.791C12.6227 72.791 9.8927 70.061 9.8927 66.7036C9.8927 63.349 12.6227 60.6162 15.9773 60.6162C19.3318 60.6162 22.0647 63.349 22.0647 66.7036C22.0647 70.061 19.3318 72.791 15.9773 72.791Z" fill="#CDF1EF"/>
<mask id="mask0" mask-type="alpha" maskUnits="userSpaceOnUse" x="9" y="26" width="174" height="142">
<g id="mask0">
<path id="Vector_8" fill-rule="evenodd" clip-rule="evenodd" d="M9.89136 167.886H182.608V26.8477H9.89136V167.886Z" fill="white"/>
</g>
</mask>
<g mask="url(#mask0)">
<g id="Group">
<path id="Vector_9" fill-rule="evenodd" clip-rule="evenodd" d="M38.3077 45.6438H43.5755V40.3788H38.3077V45.6438ZM35.4816 48.4699H46.4016V37.5527H35.4816V48.4699Z" fill="#FEDEB6"/>
<path id="Vector_10" fill-rule="evenodd" clip-rule="evenodd" d="M172.722 92.6335H177.987V87.3656H172.722V92.6335ZM169.899 95.4596H180.816V84.5396H169.899V95.4596Z" fill="#FEDEB6"/>
<path id="Vector_11" fill-rule="evenodd" clip-rule="evenodd" d="M89.8888 88.3031C88.0151 90.1739 88.0151 93.2091 89.8888 95.0828C91.7597 96.9565 94.7949 96.9565 96.6686 95.0828C98.5423 93.2091 98.5423 90.1739 96.6686 88.3031C94.7949 86.4322 91.7597 86.4322 89.8888 88.3031Z" fill="#CDF1EF"/>
<path id="Vector_12" fill-rule="evenodd" clip-rule="evenodd" d="M47.2768 79.6732C45.4059 81.5469 45.4059 84.5821 47.2768 86.453C49.1477 88.3295 52.1829 88.3295 54.0566 86.453C55.9303 84.5821 55.9303 81.5469 54.0566 79.6732C52.1829 77.8023 49.1477 77.8023 47.2768 79.6732Z" fill="#CDF1EF"/>
<path id="Vector_13" fill-rule="evenodd" clip-rule="evenodd" d="M77.3096 108.988C75.4388 107.114 75.4388 104.079 77.3096 102.208C79.1833 100.332 82.2186 100.332 84.0894 102.208C85.9659 104.079 85.9659 107.114 84.0894 108.988C82.2186 110.859 79.1833 110.859 77.3096 108.988Z" fill="#CDF1EF"/>
<path id="Vector_14" fill-rule="evenodd" clip-rule="evenodd" d="M34.1703 117.618C32.2966 115.745 32.2966 112.709 34.1703 110.839C36.0412 108.962 39.0764 108.962 40.9501 110.839C42.8238 112.709 42.8238 115.745 40.9501 117.618C39.0764 119.489 36.0412 119.489 34.1703 117.618Z" fill="#CDF1EF"/>
<path id="Vector_15" fill-rule="evenodd" clip-rule="evenodd" d="M45.9246 95.7217C44.0509 97.5925 44.0509 100.628 45.9246 102.501C47.7954 104.375 50.8306 104.375 52.7043 102.501C54.578 100.628 54.578 97.5925 52.7043 95.7217C50.8306 93.848 47.7954 93.848 45.9246 95.7217Z" fill="#CDF1EF"/>
<path id="Vector_16" fill-rule="evenodd" clip-rule="evenodd" d="M18.2238 95.7217C16.3501 97.5925 16.3501 100.628 18.2238 102.501C20.0946 104.375 23.1298 104.375 25.0035 102.501C26.8772 100.628 26.8772 97.5925 25.0035 95.7217C23.1298 93.848 20.0946 93.848 18.2238 95.7217Z" fill="#CDF1EF"/>
<path id="Vector_17" fill-rule="evenodd" clip-rule="evenodd" d="M77.9857 74.8794C76.1148 76.7503 76.1148 79.7855 77.9857 81.6592C79.8565 83.5329 82.8918 83.5329 84.7655 81.6592C86.6391 79.7855 86.6391 76.7503 84.7655 74.8794C82.8918 73.0057 79.8565 73.0057 77.9857 74.8794Z" fill="#CDF1EF"/>
<path id="Vector_18" fill-rule="evenodd" clip-rule="evenodd" d="M61.5039 91.6372C59.6302 93.5081 59.6302 96.5433 61.5039 98.417C63.3748 100.291 66.41 100.291 68.2809 98.417C70.1574 96.5433 70.1574 93.5081 68.2809 91.6372C66.41 89.7635 63.3748 89.7635 61.5039 91.6372Z" fill="#CDF1EF"/>
<path id="Vector_19" fill-rule="evenodd" clip-rule="evenodd" d="M93.278 88.3114C92.3764 88.3114 91.5258 88.6618 90.8871 89.3033C89.5701 90.6203 89.5701 92.7653 90.8871 94.0851C92.1617 95.3596 94.3886 95.3625 95.6688 94.0851C96.9858 92.7653 96.9858 90.6203 95.6688 89.3033C95.0301 88.6618 94.1795 88.3114 93.278 88.3114ZM93.278 97.9031C91.6191 97.9031 90.0619 97.256 88.8891 96.0831C86.4699 93.664 86.4699 89.7244 88.8891 87.3053C91.2347 84.9568 95.3241 84.9568 97.6669 87.3053C100.086 89.7244 100.086 93.664 97.6669 96.0831C96.4969 97.256 94.9369 97.9031 93.278 97.9031Z" fill="#022C48"/>
<path id="Vector_20" fill-rule="evenodd" clip-rule="evenodd" d="M50.6659 79.6843C49.7983 79.6843 48.9364 80.0121 48.2751 80.6734C46.9581 81.9904 46.9581 84.1354 48.2751 85.4551C49.5948 86.7721 51.7398 86.7721 53.0596 85.4551C54.3737 84.1354 54.3737 81.9904 53.0596 80.6734C52.3983 80.0121 51.5335 79.6843 50.6659 79.6843ZM50.6659 89.2704C49.0776 89.2704 47.4866 88.6656 46.277 87.4532C43.8579 85.0341 43.8579 81.0945 46.277 78.6754C48.699 76.2534 52.6357 76.2534 55.0576 78.6754C57.4768 81.0945 57.4768 85.0341 55.0576 87.4532C53.8453 88.6656 52.2542 89.2704 50.6659 89.2704Z" fill="#022C48"/>
<path id="Vector_21" fill-rule="evenodd" clip-rule="evenodd" d="M88.4842 93.1052H76.7023L68.0658 84.4687H55.4614V81.6426H69.2358L77.8723 90.2791H88.4842V93.1052Z" fill="#022C48"/>
<path id="Vector_22" fill-rule="evenodd" clip-rule="evenodd" d="M78.3086 107.989C79.6312 109.309 81.7762 109.306 83.0903 107.989C84.4101 106.67 84.4101 104.525 83.0903 103.208C81.7734 101.888 79.6284 101.888 78.3086 103.208C76.9916 104.522 76.9916 106.67 78.3086 107.989ZM80.7023 111.805C79.1112 111.805 77.5229 111.197 76.3105 109.987C73.8942 107.568 73.8942 103.629 76.3105 101.21C78.7297 98.7876 82.6692 98.7876 85.0883 101.21C87.5103 103.629 87.5103 107.568 85.0883 109.987C83.8816 111.197 82.2905 111.805 80.7023 111.805Z" fill="#022C48"/>
<path id="Vector_23" fill-rule="evenodd" clip-rule="evenodd" d="M35.1692 116.619C36.489 117.936 38.634 117.936 39.951 116.619C41.2679 115.299 41.2679 113.154 39.951 111.837C38.634 110.518 36.489 110.518 35.1692 111.837C33.8494 113.154 33.8494 115.299 35.1692 116.619ZM37.5601 120.432C35.969 120.432 34.3807 119.827 33.1712 118.617C30.752 116.198 30.752 112.259 33.1712 109.839C35.5903 107.417 39.5299 107.417 41.949 109.839C44.3709 112.259 44.3709 116.198 41.949 118.617C40.7394 119.827 39.1483 120.432 37.5601 120.432Z" fill="#022C48"/>
<path id="Vector_24" fill-rule="evenodd" clip-rule="evenodd" d="M56.6603 115.645H42.3546V112.819H55.4903L64.1268 104.183H75.9087V107.009H65.2968L56.6603 115.645Z" fill="#022C48"/>
<path id="Vector_25" fill-rule="evenodd" clip-rule="evenodd" d="M26.4098 100.524H44.5194V97.6978H26.4098V100.524Z" fill="#022C48"/>
<path id="Vector_26" fill-rule="evenodd" clip-rule="evenodd" d="M49.3136 95.7298C48.446 95.7298 47.5841 96.0604 46.9228 96.7217C45.6058 98.0387 45.6058 100.184 46.9228 101.503C48.2425 102.82 50.3875 102.82 51.7073 101.503C53.0215 100.184 53.0215 98.0387 51.7073 96.7217C51.046 96.0604 50.1812 95.7298 49.3136 95.7298ZM49.3136 105.316C47.7253 105.316 46.1343 104.711 44.9247 103.502C42.5056 101.082 42.5056 97.1428 44.9247 94.7237C47.3467 92.3017 51.2834 92.3017 53.7053 94.7237C56.1245 97.1428 56.1245 101.082 53.7053 103.502C52.493 104.711 50.9019 105.316 49.3136 105.316Z" fill="#022C48"/>
<path id="Vector_27" fill-rule="evenodd" clip-rule="evenodd" d="M21.6128 95.7298C20.7452 95.7298 19.8833 96.0604 19.2219 96.7217C17.905 98.0387 17.905 100.184 19.2219 101.503C20.5417 102.82 22.6867 102.82 24.0065 101.503C25.3206 100.184 25.3206 98.0387 24.0065 96.7217C23.3452 96.0604 22.4804 95.7298 21.6128 95.7298ZM21.6128 105.316C20.0245 105.316 18.4335 104.711 17.2239 103.502C14.8048 101.082 14.8048 97.1428 17.2239 94.7237C19.6458 92.3017 23.5826 92.3017 26.0045 94.7237C28.4237 97.1428 28.4237 101.082 26.0045 103.502C24.7922 104.711 23.2011 105.316 21.6128 105.316Z" fill="#022C48"/>
<path id="Vector_28" fill-rule="evenodd" clip-rule="evenodd" d="M78.9847 75.8783C77.6649 77.1981 77.6649 79.3431 78.9847 80.6601C80.3044 81.9799 82.4494 81.9799 83.7664 80.6601C85.0834 79.3431 85.0834 77.1981 83.7664 75.8783C82.4494 74.5586 80.3044 74.5586 78.9847 75.8783ZM81.3755 84.4753C79.7844 84.4753 78.1962 83.8677 76.9866 82.6581C74.5675 80.239 74.5675 76.2994 76.9866 73.8803C79.4057 71.4611 83.3453 71.4611 85.7644 73.8803C88.1864 76.2994 88.1864 80.239 85.7644 82.6581C84.5549 83.8677 82.9638 84.4753 81.3755 84.4753Z" fill="#022C48"/>
<path id="Vector_29" fill-rule="evenodd" clip-rule="evenodd" d="M64.893 91.6453C64.0254 91.6453 63.1606 91.9759 62.4993 92.6372C61.8634 93.2731 61.5102 94.1238 61.5102 95.0253C61.5102 95.9296 61.8634 96.7775 62.4993 97.4162C63.8191 98.7359 65.9641 98.7359 67.2839 97.4162C67.9226 96.7775 68.273 95.9296 68.273 95.0253C68.273 94.1238 67.9226 93.2731 67.2839 92.6372C66.6226 91.9759 65.7606 91.6453 64.893 91.6453ZM64.893 101.231C63.3047 101.231 61.7136 100.627 60.5013 99.4142C59.3284 98.2442 58.6841 96.6842 58.6841 95.0253C58.6841 93.3664 59.3284 91.812 60.5013 90.6392C62.9232 88.2173 66.86 88.2173 69.2819 90.6392C70.4547 91.812 71.0991 93.3664 71.0991 95.0253C71.0991 96.6842 70.4547 98.2442 69.2819 99.4142C68.0723 100.627 66.4813 101.231 64.893 101.231Z" fill="#022C48"/>
<path id="Vector_30" fill-rule="evenodd" clip-rule="evenodd" d="M86.1675 79.6557H95.0103V76.8296H86.1675V79.6557Z" fill="#022C48"/>
<path id="Vector_31" fill-rule="evenodd" clip-rule="evenodd" d="M97.0846 79.6503H99.9107V76.8242H97.0846V79.6503ZM102.737 79.6503H105.563V76.8242H102.737V79.6503Z" fill="#FEDEB6"/>
<path id="Vector_32" fill-rule="evenodd" clip-rule="evenodd" d="M56.6715 72.701H59.4976V69.8467H56.6715V72.701ZM62.3237 72.701H65.1498V69.8467H62.3237V72.701Z" fill="#FEDEB6"/>
<path id="Vector_33" fill-rule="evenodd" clip-rule="evenodd" d="M90.2738 107.01H93.0999V104.184H90.2738V107.01ZM95.926 107.01H98.7521V104.184H95.926V107.01Z" fill="#FEDEB6"/>
<path id="Vector_34" fill-rule="evenodd" clip-rule="evenodd" d="M31.152 94.2924H33.9781V91.4663H31.152V94.2924ZM36.7759 94.2924H39.6302V91.4663H36.7759V94.2924Z" fill="#FEDEB6"/>
<path id="Vector_35" fill-rule="evenodd" clip-rule="evenodd" d="M18.8586 84.4546H21.6847V81.6567H18.8586V84.4546ZM24.5108 84.4546H27.3369V81.6567H24.5108V84.4546Z" fill="#FEDEB6"/>
<path id="Vector_36" fill-rule="evenodd" clip-rule="evenodd" d="M37.8217 130.918H40.6477V128.092H37.8217V130.918ZM44.3217 130.918H47.1478V128.092H44.3217V130.918ZM50.8217 130.918H53.6478V128.092H50.8217V130.918ZM57.3188 130.918H60.1449V128.092H57.3188V130.918ZM63.8216 130.918H66.6477V128.092H63.8216V130.918Z" fill="#FEDEB6"/>
<path id="Vector_37" fill-rule="evenodd" clip-rule="evenodd" d="M143.998 119.696L145.041 118.767L146.087 117.834L147.98 119.922L145.892 121.816L143.998 119.696ZM138.855 123.288L141.254 121.788L142.755 124.162L140.353 125.659L138.855 123.288ZM133.175 125.914L135.803 124.84L136.874 127.468L134.249 128.545L133.175 125.914ZM127.155 127.553L129.896 126.934L130.515 129.701L129.13 130.012L127.748 130.325L127.155 127.553ZM120.938 128.118L123.733 128.005L123.877 130.831L122.464 130.888L121.051 130.944L120.938 128.118Z" fill="#FEDEB6"/>
<path id="Vector_38" fill-rule="evenodd" clip-rule="evenodd" d="M153.948 112.556L151.557 111.047C155.234 105.226 157.178 98.491 157.178 91.5699C157.178 85.7906 155.867 80.2627 153.284 75.1419L155.804 73.8701C158.591 79.3895 160.004 85.344 160.004 91.5699C160.004 99.0279 157.907 106.283 153.948 112.556Z" fill="#FFC882"/>
<path id="Vector_39" fill-rule="evenodd" clip-rule="evenodd" d="M145.994 65.2667C139.152 58.6734 130.151 55.0419 120.647 55.0419H102.498V52.2158H120.647C130.883 52.2158 140.582 56.13 147.955 63.2319L145.994 65.2667Z" fill="#FFC882"/>
<path id="Vector_40" fill-rule="evenodd" clip-rule="evenodd" d="M72.752 55.0351H75.578V52.209H72.752V55.0351ZM79.252 55.0351H82.0781V52.209H79.252V55.0351ZM85.752 55.0351H88.5781V52.209H85.752V55.0351ZM92.2519 55.0351H95.078V52.209H92.2519V55.0351Z" fill="#FEDEB6"/>
<path id="Vector_41" fill-rule="evenodd" clip-rule="evenodd" d="M109.164 106.838V104.012L137.057 104.006L137.054 96.0114L109.158 89.8986L109.155 76.8025L139.875 76.7969V79.623L111.981 79.6286L111.984 87.6236L139.88 93.7364L139.883 106.833L109.164 106.838Z" fill="#022C48"/>
<path id="Vector_42" fill-rule="evenodd" clip-rule="evenodd" d="M118.539 114.718L118.525 68.9097H121.351L121.365 114.718H118.539Z" fill="#022C48"/>
<path id="Vector_43" fill-rule="evenodd" clip-rule="evenodd" d="M127.688 114.729L127.674 68.9209H130.5L130.514 114.729H127.688Z" fill="#022C48"/>
<path id="Vector_44" fill-rule="evenodd" clip-rule="evenodd" d="M134.684 163.867C134.684 166.086 117.849 167.886 97.0829 167.886C76.3196 167.886 59.4874 166.086 59.4874 163.867C59.4874 161.652 76.3196 159.852 97.0829 159.852C117.849 159.852 134.684 161.652 134.684 163.867Z" fill="#CDF1EF"/>
</g>
<g id="lower_bar">
<path id="Vector_45" fill-rule="evenodd" clip-rule="evenodd" d="M81.106 130.927H111.407V128.101H81.106V130.927Z" fill="#FFC882"/>
</g>
<g id="middle_bar">
<path id="Vector_46" fill-rule="evenodd" clip-rule="evenodd" d="M30.406 84.4687H39.6106V81.6426H30.406V84.4687Z" fill="#FFC882"/>
</g>
<g id="upper_bar">
<path id="Vector_47" fill-rule="evenodd" clip-rule="evenodd" d="M36.7251 72.684H53.4188V69.8579H36.7251V72.684Z" fill="#FFC882"/>
</g>
<g id="plus_symbol">
<path id="Vector_48" fill-rule="evenodd" clip-rule="evenodd" d="M18.1067 129.974H15.2806V125.317H10.6261V122.491H15.2806V117.833H18.1067V122.491H22.7641V125.317H18.1067V129.974Z" fill="#FEDEB6"/>
</g>
</g>
</g>
    <script href="https://cdnjs.cloudflare.com/ajax/libs/gsap/3.6.0/gsap.min.js"></script>
    <script type="application/ecmascript">

        <![CDATA[

    var tl = gsap.timeline(
        {
            repeat: -1,
            repeatDelay: 1,
            onStart: function(){
                gsap.set("#lower_bar", {scaleX:0.3});
                gsap.set("#middle_bar", {scaleX:0.5});
                gsap.set("#upper_bar", {scaleX:0.1});
            }
        });

    var t2 = gsap.timeline(
        {
            repeat: -1,
            repeatDelay: 1
        });

    tl.add(
            gsap.fromTo(
                        "#upper_bar",
                                {
                                    scaleX:0.3,
                                    delay: 0,
                                    duration:1,
                                    transformOrigin:"left",
                                                                        
                                },
                                {
                                    scaleX:1,
                                    delay: 0,
                                    duration: 1,
                                    ease:Linear.easeInOut
                                }
                        )
            );

    tl.add(
            gsap.fromTo(
                        "#middle_bar",
                                {
                                    scaleX:0.3,
                                    delay: 0,
                                    duration:1,
                                    transformOrigin:"left",
                                                                        
                                },
                                {
                                    scaleX:1,
                                    delay: 0,
                                    duration: 1,
                                    ease:Linear.easeInOut
                                }
                        )
            );

    tl.add(
            gsap.fromTo(
                        "#lower_bar",
                                {
                                    scaleX:0.1,
                                    delay: 0,
                                    duration:1,
                                    transformOrigin:"left",
                                                                        
                                },
                                {
                                    scaleX:1,
                                    delay: 0,
                                    duration: 1,
                                    ease:Linear.easeInOut
                                }
                        )
            );

    tl.add(
            gsap.fromTo(
                        "#lower_bar",
                                {
                                    scaleX:1,
                                    delay: 0,
                                    duration:1,
                                    transformOrigin:"left",
                                                                        
                                },
                                {
                                    scaleX:0.1,
                                    delay: 1,
                                    duration: 1,
                                    ease:Linear.easeInOut
                                }
                        )
            );

    tl.add(
            gsap.fromTo(
                        "#middle_bar",
                                {
                                    scaleX:1,
                                    delay: 0,
                                    duration:1,
                                    transformOrigin:"left",
                                                                        
                                },
                                {
                                    scaleX:0.3,
                                    delay: 0,
                                    duration: 1,
                                    ease:Linear.easeInOut
                                }
                        )
            );

    tl.add(
            gsap.fromTo(
                        "#upper_bar",
                                {
                                    scaleX:1,
                                    delay: 0,
                                    duration:1,
                                    transformOrigin:"left",
                                                                        
                                },
                                {
                                    scaleX:0.5,
                                    delay: 0,
                                    duration: 1,
                                    ease:Linear.easeInOut
                                }
                        )
            );

    t2.add(
            gsap.to(
                        "#plus_symbol",
                                {
                                    rotation:360,
                                    delay: 0,
                                    duration:4,
                                    transformOrigin:"center center",
                                    ease:Linear.easeNone    
                                }
                        )
            );                        
        ]]>
    </script>
</svg>
