<svg width="55" height="55" viewBox="0 0 55 55" fill="none" xmlns="http://www.w3.org/2000/svg">
<circle cx="27.5" cy="27.5" r="26.5" fill="#00A6A0" stroke="white" stroke-width="2"/>
<path fill-rule="evenodd" clip-rule="evenodd" d="M25.5387 30.4423C25.5387 33.6788 22.8906 36.3269 19.6541 36.3269C16.4175 36.3269 13.7695 33.6788 13.7695 30.4423C13.7695 23.9398 19.0362 18.6731 25.5387 18.6731C25.5387 18.6731 21.6843 20.1148 19.6835 24.5577C22.92 24.5577 25.5387 27.2057 25.5387 30.4423ZM35.3758 24.5577C38.6124 24.5577 41.231 27.2057 41.231 30.4423C41.231 33.6788 38.5829 36.3269 35.3464 36.3269C32.1099 36.3269 29.4618 33.6788 29.4618 30.4423C29.4618 23.9398 34.7285 18.6731 41.231 18.6731C41.231 18.6731 37.3766 20.1148 35.3758 24.5577Z" fill="#F7F9FC"/>
</svg>
