<svg width="159" height="139" viewBox="0 0 159 139" fill="none" xmlns="http://www.w3.org/2000/svg">
<g id="step_a_icon 1">
<path id="Vector" opacity="0.3" d="M50.0712 0.974365H30.4152C22.4016 9.59276 12.5736 14.4312 0.780029 15.4896V37.716C8.49123 37.2624 17.8656 35.448 26.1816 31.2144V105H50.0712V0.974365Z" fill="#00A6A0"/>
<g id="home_cntr">
<path id="Vector_2" fill-rule="evenodd" clip-rule="evenodd" d="M34.308 88.9829H36.308V80.3909H34.308V88.9829Z" fill="#FEDEB6"/>
<path id="Vector_3" fill-rule="evenodd" clip-rule="evenodd" d="M31.012 85.6888H39.602V83.6888H31.012V85.6888Z" fill="#FEDEB6"/>
<path id="Vector_4" fill-rule="evenodd" clip-rule="evenodd" d="M140.289 92.5342L146.363 98.6102L147.777 97.1962L141.703 91.1222L140.289 92.5342Z" fill="#CDF1EF"/>
<path id="Vector_5" fill-rule="evenodd" clip-rule="evenodd" d="M140.289 97.1962L141.703 98.6082L147.777 92.5342L146.363 91.1202L140.289 97.1962Z" fill="#CDF1EF"/>
<path id="Vector_6" fill-rule="evenodd" clip-rule="evenodd" d="M72.5584 19.9996L71.1444 21.4136L77.2184 27.4896L78.6324 26.0736L72.5584 19.9996Z" fill="#CDF1EF"/>
<path id="Vector_7" fill-rule="evenodd" clip-rule="evenodd" d="M77.2187 19.9996L71.1447 26.0736L72.5587 27.4896L78.6327 21.4136L77.2187 19.9996Z" fill="#CDF1EF"/>
<path id="Vector_8" fill-rule="evenodd" clip-rule="evenodd" d="M142.021 82.8326C141.043 82.8326 140.129 82.2326 139.511 81.1906C139.271 80.7846 138.969 80.5306 138.723 80.5306H137.949C137.703 80.5306 137.399 80.7846 137.157 81.1926C136.543 82.2326 135.627 82.8326 134.647 82.8326H133.877C132.897 82.8326 131.981 82.2326 131.365 81.1906C131.125 80.7846 130.821 80.5306 130.575 80.5306H129.803C129.557 80.5306 129.253 80.7846 129.011 81.1926C128.397 82.2326 127.481 82.8326 126.503 82.8326H125.729C124.753 82.8326 123.839 82.2326 123.221 81.1926C122.979 80.7826 122.675 80.5306 122.429 80.5306H122.043V78.5306H122.429C123.407 78.5306 124.323 79.1286 124.941 80.1726C125.181 80.5786 125.483 80.8326 125.729 80.8326H126.503C126.749 80.8326 127.051 80.5806 127.291 80.1726C127.911 79.1286 128.825 78.5306 129.803 78.5306H130.575C131.553 78.5306 132.467 79.1286 133.085 80.1706C133.327 80.5806 133.631 80.8326 133.877 80.8326H134.647C134.895 80.8326 135.197 80.5806 135.437 80.1726C136.059 79.1286 136.973 78.5306 137.949 78.5306H138.723C139.699 78.5306 140.613 79.1286 141.231 80.1706C141.475 80.5806 141.775 80.8326 142.021 80.8326V82.8326Z" fill="#FEDEB6"/>
<path id="Vector_9" fill-rule="evenodd" clip-rule="evenodd" d="M114.173 29.2819C112.901 29.2819 111.867 30.3179 111.867 31.5899C111.867 32.8619 112.901 33.8979 114.173 33.8979C115.447 33.8979 116.481 32.8619 116.481 31.5899C116.481 30.3179 115.447 29.2819 114.173 29.2819ZM114.173 35.8979C111.799 35.8979 109.867 33.9639 109.867 31.5899C109.867 29.2139 111.799 27.2819 114.173 27.2819C116.547 27.2819 118.481 29.2139 118.481 31.5899C118.481 33.9639 116.547 35.8979 114.173 35.8979Z" fill="#FEDEB6"/>
<mask id="mask0" mask-type="alpha" maskUnits="userSpaceOnUse" x="31" y="55" width="9" height="10">
<g id="mask0">
<path id="Vector_10" fill-rule="evenodd" clip-rule="evenodd" d="M31 55.4928H39.6156V64.1088H31V55.4928Z" fill="white"/>
</g>
</mask>
<g mask="url(#mask0)">
<g id="Group">
<path id="Vector_11" fill-rule="evenodd" clip-rule="evenodd" d="M35.3076 57.4928C34.0356 57.4928 32.9996 58.5288 32.9996 59.8008C32.9996 61.0748 34.0356 62.1088 35.3076 62.1088C36.5796 62.1088 37.6156 61.0748 37.6156 59.8008C37.6156 58.5288 36.5796 57.4928 35.3076 57.4928ZM35.3076 64.1088C32.9336 64.1088 30.9996 62.1748 30.9996 59.8008C30.9996 57.4248 32.9336 55.4928 35.3076 55.4928C37.6816 55.4928 39.6156 57.4248 39.6156 59.8008C39.6156 62.1748 37.6816 64.1088 35.3076 64.1088Z" fill="white"/>
</g>
</g>
<mask id="mask1" mask-type="alpha" maskUnits="userSpaceOnUse" x="31" y="20" width="117" height="102">
<g id="mask1">
<path id="Vector_12" fill-rule="evenodd" clip-rule="evenodd" d="M31 121.923H147.776V20.0009H31V121.923Z" fill="white"/>
</g>
</mask>
<g mask="url(#mask1)">
<g id="Group_2">
<path id="Vector_13" fill-rule="evenodd" clip-rule="evenodd" d="M46.024 40.4709H49.752V36.7449H46.024V40.4709ZM44.024 42.4709H51.752V34.7449H44.024V42.4709Z" fill="#FEDEB6"/>
<path id="Vector_14" fill-rule="evenodd" clip-rule="evenodd" d="M128.764 61.5208H132.49V57.7928H128.764V61.5208ZM126.766 63.5208H134.492V55.7928H126.766V63.5208Z" fill="#9CE3DF"/>
<path id="Vector_15" fill-rule="evenodd" clip-rule="evenodd" d="M113.125 112.08C113.125 113.65 101.211 114.922 86.5171 114.922C71.8211 114.922 59.9091 113.65 59.9091 112.08C59.9091 110.51 71.8211 109.238 86.5171 109.238C101.211 109.238 113.125 110.51 113.125 112.08Z" fill="#CDF1EF"/>
<path id="Vector_16" fill-rule="evenodd" clip-rule="evenodd" d="M70.2581 82.2968H82.5781V69.9768H70.2581V82.2968Z" fill="#9CE3DF"/>
<path id="Vector_17" fill-rule="evenodd" clip-rule="evenodd" d="M113.976 93.7799H105.14V70.9759H91.5395V93.7799H58.6095L58.5815 65.1319L60.5815 65.1299L60.6075 91.7799H89.5395V68.9759H107.14V91.7799H111.976L112 65.1299L114 65.1319L113.976 93.7799Z" fill="#022C48"/>
<path id="Vector_18" fill-rule="evenodd" clip-rule="evenodd" d="M86.293 40.5582C86.529 40.5582 86.765 40.6422 86.955 40.8082L112.957 63.7582L116.437 60.2782L86.295 34.0222L56.545 60.1802L59.669 63.7202L85.631 40.8082C85.821 40.6422 86.057 40.5582 86.293 40.5582ZM59.581 66.1322C59.305 66.1322 59.029 66.0162 58.831 65.7922L54.381 60.7522C54.207 60.5542 54.117 60.2922 54.133 60.0262C54.151 59.7622 54.273 59.5162 54.471 59.3402L85.633 31.9422C86.009 31.6102 86.573 31.6122 86.951 31.9402L118.557 59.4742C118.767 59.6562 118.891 59.9162 118.901 60.1922C118.911 60.4702 118.803 60.7382 118.609 60.9342L113.707 65.8382C113.331 66.2122 112.731 66.2282 112.337 65.8822L86.293 42.8922L60.243 65.8822C60.053 66.0502 59.817 66.1322 59.581 66.1322Z" fill="#022C48"/>
<path id="Vector_19" fill-rule="evenodd" clip-rule="evenodd" d="M86.293 54.5914C84.357 54.5914 82.783 56.1654 82.783 58.0994C82.783 60.0354 84.357 61.6094 86.293 61.6094C88.227 61.6094 89.801 60.0354 89.801 58.0994C89.801 56.1654 88.227 54.5914 86.293 54.5914ZM86.293 63.6094C83.255 63.6094 80.783 61.1374 80.783 58.0994C80.783 55.0634 83.255 52.5914 86.293 52.5914C89.331 52.5914 91.801 55.0634 91.801 58.0994C91.801 61.1374 89.331 63.6094 86.293 63.6094Z" fill="#FEC687"/>
<path id="Vector_20" fill-rule="evenodd" clip-rule="evenodd" d="M63.543 39.1334V51.3794L69.259 46.3394V39.1334H63.543ZM61.543 55.8074V37.1334H71.259V47.2414L61.543 55.8074Z" fill="#022C48"/>
<path id="Vector_21" fill-rule="evenodd" clip-rule="evenodd" d="M48.636 93.7809H124.272V91.7809H48.636V93.7809Z" fill="#1DB9B2"/>
<path id="Vector_22" fill-rule="evenodd" clip-rule="evenodd" d="M127.126 93.7809H129.818V91.7809H127.126V93.7809Z" fill="#1DB9B2"/>
<path id="Vector_23" fill-rule="evenodd" clip-rule="evenodd" d="M43.2159 93.7809H45.9079V91.7809H43.2159V93.7809Z" fill="#1DB9B2"/>
<path id="Vector_24" fill-rule="evenodd" clip-rule="evenodd" d="M71.2581 81.2969H81.5781V70.9749H71.2581V81.2969ZM69.2581 83.2969H83.5781V68.9749H69.2581V83.2969Z" fill="#022C48"/>
</g>
</g>
</g>
</g>


    <script href="https://cdnjs.cloudflare.com/ajax/libs/gsap/3.6.0/gsap.min.js"></script>
    <script type="application/ecmascript">

    <![CDATA[

    var t1 = gsap.timeline(
        {
            repeat: -1,
            repeatDelay: 1
        });

    t1.add(
            gsap.to(
                        "#home_cntr",
                                {
                                    translateY:-10,
                                    delay: 0,
                                    duration:4,
                                    ease:Linear.easeNone
                                }
                        )
            );

    t1.add(
            gsap.to(
                        "#home_cntr",
                                {
                                    translateY:0,
                                    delay: 0,
                                    duration:4,
                                    ease:Linear.easeNone    
                                }
                        )
            );


        ]]>
    </script>

</svg>
