<svg width="638" height="405" viewBox="0 0 638 405" fill="none" xmlns="http://www.w3.org/2000/svg">
<g id="1-Main 1">
<g id="Group">
<path id="Vector" opacity="0.06" fill-rule="evenodd" clip-rule="evenodd" d="M623.243 65.3954C629.573 51.2216 628.313 34.993 619.871 21.9546C611.438 8.8921 597.189 1.12807 581.614 1.11304L195.137 1.13397C170.719 1.13562 148.572 15.508 138.601 37.8351L4.06716 339.144C-2.26261 353.318 -1.0026 369.546 7.44059 382.585C15.8733 395.648 30.121 403.412 45.6957 403.427L432.174 403.407C456.592 403.404 478.738 389.032 488.709 366.704L623.243 65.3954Z" fill="#00A6A0"/>
<g id="Group_2">
<path id="Vector_2" d="M206.739 366.427H214.788L218.616 335.391L206.736 335.393L206.739 366.427Z" fill="#FFCECE"/>
<path id="Vector_3" d="M220.538 364.127H205.014V373.898H230.313C230.313 372.615 230.06 371.344 229.569 370.159C229.078 368.973 228.358 367.896 227.45 366.989C226.543 366.082 225.465 365.362 224.279 364.871C223.093 364.38 221.822 364.127 220.538 364.127Z" fill="#002B49"/>
<path id="Vector_4" d="M238.777 366.427H246.827L250.654 335.391L238.774 335.393L238.777 366.427Z" fill="#FFCECE"/>
<path id="Vector_5" d="M252.577 364.127H237.052V373.898H262.352C262.352 372.615 262.099 371.344 261.607 370.159C261.116 368.973 260.396 367.896 259.489 366.989C258.581 366.082 257.503 365.362 256.317 364.871C255.131 364.38 253.86 364.127 252.577 364.127Z" fill="#002B49"/>
<path id="Vector_6" d="M200.537 259.13C201.185 258.415 201.668 257.566 201.952 256.644C202.237 255.722 202.315 254.749 202.182 253.793C202.05 252.838 201.709 251.923 201.184 251.113C200.66 250.303 199.964 249.618 199.146 249.106L201.639 234.232L192.965 230.513L189.739 251.568C188.97 252.999 188.753 254.662 189.129 256.242C189.504 257.823 190.447 259.21 191.778 260.143C193.109 261.075 194.735 261.487 196.35 261.3C197.964 261.113 199.454 260.341 200.537 259.13Z" fill="#A0616A"/>
<path id="Vector_7" d="M268.443 252.102C267.686 251.503 267.069 250.746 266.637 249.884C266.204 249.022 265.965 248.075 265.938 247.11C265.911 246.146 266.096 245.187 266.48 244.302C266.863 243.417 267.436 242.626 268.159 241.986L263.241 227.728L271.181 222.628L277.843 242.86C278.838 244.145 279.327 245.749 279.218 247.37C279.108 248.991 278.408 250.515 277.249 251.654C276.091 252.793 274.555 253.468 272.931 253.55C271.308 253.633 269.711 253.118 268.443 252.102Z" fill="#A0616A"/>
<path id="Vector_8" d="M227.215 147.064C217.664 147.064 209.921 139.325 209.921 129.778C209.921 120.231 217.664 112.491 227.215 112.491C236.767 112.491 244.51 120.231 244.51 129.778C244.51 139.325 236.767 147.064 227.215 147.064Z" fill="#A0616A"/>
<path id="Vector_9" d="M268.978 241.435C269.274 241.435 269.57 241.393 269.855 241.311L274.895 239.864C275.7 239.632 276.381 239.091 276.788 238.359C277.195 237.627 277.297 236.763 277.07 235.957L266.667 199.245L252.16 163.649C250.718 160.11 247.704 157.79 244.295 157.593C242.738 157.517 241.192 157.893 239.845 158.678C238.498 159.462 237.408 160.619 236.706 162.01C235.925 163.499 235.497 165.147 235.453 166.827C235.41 168.507 235.752 170.175 236.454 171.702L252.943 207.745L266.052 239.476C266.291 240.055 266.696 240.551 267.217 240.899C267.738 241.248 268.351 241.434 268.978 241.435Z" fill="#FFC882"/>
<path id="Vector_10" d="M217.456 144.275L227.065 144.446C228.066 144.466 229.057 144.25 229.959 143.816C230.862 143.383 231.649 142.743 232.259 141.949C232.868 141.156 233.283 140.23 233.469 139.247C233.654 138.263 233.607 137.25 233.329 136.289C233.123 135.594 232.969 134.885 232.867 134.168C232.759 133.386 232.738 132.595 232.804 131.808C232.865 131.02 233.192 130.277 233.731 129.699C234.27 129.121 234.99 128.744 235.772 128.629C236.554 128.513 237.352 128.667 238.035 129.065C238.718 129.462 239.246 130.08 239.532 130.817C241.147 130.84 244.589 130.313 246.205 130.336C249.636 121.546 242.16 110.043 234.112 105.723C225.908 101.318 215.259 105.799 212.114 114.979C207.749 115.057 204.203 119.36 203.641 124.203C203.078 129.047 205.072 134.104 208.121 137.817C211.171 141.529 215.175 144.235 217.456 144.275Z" fill="#FFF7EC"/>
<path id="Vector_11" d="M249.042 363.53C249.821 363.525 250.571 363.236 251.15 362.716C251.729 362.195 252.097 361.481 252.184 360.708L255.749 240.893L210.834 244.089L210.799 244.377C200.649 329.302 204.119 358.7 204.155 358.987C204.18 359.421 204.294 359.846 204.491 360.234C204.687 360.623 204.962 360.966 205.297 361.244C205.633 361.521 206.022 361.727 206.44 361.847C206.859 361.968 207.297 362.001 207.729 361.944L217.655 362.182C218.408 362.097 219.105 361.745 219.62 361.191C220.135 360.636 220.435 359.915 220.464 359.159L229.739 272.378C229.796 272.153 229.931 271.955 230.119 271.819C230.308 271.683 230.539 271.618 230.771 271.635C231.01 271.634 231.241 271.716 231.426 271.868C231.611 272.019 231.738 272.229 231.784 272.463L235.367 359.528C235.329 360.336 235.603 361.128 236.133 361.74C236.663 362.352 237.407 362.737 238.213 362.815L248.727 363.514C248.832 363.524 248.937 363.53 249.042 363.53Z" fill="#00A6A0"/>
<path id="Vector_12" d="M230.405 255.209C230.673 255.209 230.942 255.205 231.211 255.197C244.126 254.808 254.23 245.041 257.02 242.057C257.375 241.677 257.63 241.214 257.763 240.711C257.896 240.208 257.902 239.68 257.781 239.173L250.33 207.668L252.307 180.277C252.617 176.476 252.119 172.652 250.844 169.057C249.569 165.462 247.546 162.178 244.91 159.421C242.712 157.101 240.042 155.28 237.079 154.082C234.117 152.884 230.931 152.337 227.738 152.477C215.166 153.077 205.247 164.309 205.157 178.049C205.018 199.328 205.645 200.79 205.851 201.271C212.125 215.908 208.698 236.454 207.499 242.403C207.391 242.933 207.422 243.483 207.586 243.999C207.751 244.514 208.045 244.98 208.44 245.35C215.341 251.895 222.727 255.209 230.405 255.209Z" fill="#FFC882"/>
<path id="Vector_13" d="M197.969 247.201C198.685 247.201 199.381 246.957 199.941 246.51C200.501 246.064 200.893 245.44 201.053 244.742L208.74 211.27L219.042 173.013C219.482 171.39 219.544 169.689 219.223 168.039C218.902 166.389 218.208 164.835 217.192 163.495C216.269 162.24 215.002 161.279 213.544 160.728C212.086 160.177 210.5 160.06 208.977 160.391C205.647 161.149 203.059 163.935 202.221 167.664L193.803 205.127L189.605 243.092C189.514 243.924 189.757 244.759 190.279 245.413C190.802 246.068 191.563 246.489 192.395 246.586L197.605 247.18C197.726 247.194 197.847 247.201 197.969 247.201Z" fill="#FFC882"/>
<path id="Vector_14" d="M411.544 97.2138H617.384C622.701 97.2138 627.799 95.2889 631.558 91.8627C635.317 88.4364 637.429 83.7895 637.429 78.944C637.429 74.0986 635.317 69.4516 631.558 66.0254C627.799 62.5992 622.701 60.6743 617.384 60.6743H411.544C406.228 60.6743 401.13 62.5992 397.371 66.0254C393.612 69.4516 391.5 74.0986 391.5 78.944C391.5 83.7895 393.612 88.4364 397.371 91.8627C401.13 95.2889 406.228 97.2138 411.544 97.2138Z" fill="white"/>
<path id="Vector_15" d="M410.576 159.331H606.468C611.527 159.331 616.379 157.406 619.957 153.98C623.534 150.554 625.544 145.907 625.544 141.061C625.544 136.216 623.534 131.569 619.957 128.143C616.379 124.716 611.527 122.792 606.468 122.792H410.576C405.516 122.792 400.664 124.716 397.087 128.143C393.51 131.569 391.5 136.216 391.5 141.061C391.5 145.907 393.51 150.554 397.087 153.98C400.664 157.406 405.516 159.331 410.576 159.331Z" fill="white"/>
<path id="Vector_16" d="M410.094 221.145H598.1C602.956 221.145 607.612 219.217 611.046 215.785C614.479 212.353 616.408 207.699 616.408 202.846C616.408 197.992 614.479 193.338 611.046 189.906C607.612 186.474 602.956 184.546 598.1 184.546H410.094C405.239 184.546 400.582 186.474 397.149 189.906C393.715 193.338 391.787 197.992 391.787 202.846C391.787 207.699 393.715 212.353 397.149 215.785C400.582 219.217 405.239 221.145 410.094 221.145Z" fill="white"/>
<path id="Vector_17" d="M343.656 185.729C348.165 185.729 352.489 187.519 355.678 190.706C358.866 193.893 360.658 198.216 360.658 202.723C360.658 207.23 358.866 211.553 355.678 214.74C352.489 217.927 348.165 219.717 343.656 219.717C339.146 219.717 334.822 217.927 331.633 214.74C328.445 211.553 326.654 207.23 326.654 202.723C326.654 198.216 328.445 193.893 331.633 190.706C334.822 187.519 339.146 185.729 343.656 185.729Z" fill="#C7C9C7" fill-opacity="0.4"/>
<path id="Vector_18" d="M343.656 124C348.165 124 352.489 125.79 355.678 128.977C358.866 132.164 360.658 136.487 360.658 140.994C360.658 145.501 358.866 149.824 355.678 153.011C352.489 156.198 348.165 157.988 343.656 157.988C339.146 157.988 334.822 156.198 331.633 153.011C328.445 149.824 326.654 145.501 326.654 140.994C326.654 136.487 328.445 132.164 331.633 128.977C334.822 125.79 339.146 124 343.656 124Z" fill="#C7C9C7" fill-opacity="0.4"/>
<path id="Vector_19" d="M343.656 62C348.165 62 352.489 63.7904 355.678 66.9774C358.866 70.1644 360.658 74.487 360.658 78.9941C360.658 83.5012 358.866 87.8237 355.678 91.0108C352.489 94.1978 348.165 95.9882 343.656 95.9883C339.146 95.9883 334.822 94.1978 331.633 91.0108C328.445 87.8238 326.654 83.5013 326.654 78.9941C326.654 74.487 328.445 70.1645 331.633 66.9775C334.822 63.7905 339.146 62 343.656 62Z" fill="#C7C9C7" fill-opacity="0.4"/>
<g id="circle_c">
<path id="Vector_20" fill-rule="evenodd" clip-rule="evenodd" d="M185.128 349.049C183.222 344.963 179.77 341.802 175.533 340.26C171.296 338.717 166.62 338.921 162.533 340.825C158.447 342.729 155.286 346.179 153.744 350.414C152.203 354.649 152.407 359.324 154.314 363.409C156.22 367.494 159.671 370.656 163.908 372.198H163.909C168.146 373.74 172.822 373.537 176.908 371.633C180.994 369.728 184.156 366.279 185.697 362.044C187.239 357.809 187.034 353.134 185.128 349.049ZM164.277 361.319C164.521 361.694 164.881 361.979 165.302 362.131L165.305 362.13C165.604 362.24 165.925 362.279 166.243 362.245C166.56 362.211 166.865 362.105 167.135 361.934L178.797 354.503C179.261 354.207 179.588 353.738 179.707 353.201C179.826 352.663 179.727 352.101 179.432 351.636L179.368 351.678L179.43 351.636V351.635C179.283 351.405 179.093 351.206 178.869 351.05C178.646 350.894 178.394 350.783 178.127 350.724C177.861 350.665 177.586 350.659 177.317 350.706C177.049 350.754 176.792 350.854 176.562 351L166.646 357.322L164.594 354.105C164.447 353.875 164.257 353.676 164.033 353.519C163.809 353.363 163.557 353.252 163.291 353.193C163.024 353.134 162.749 353.128 162.48 353.175C162.211 353.223 161.954 353.322 161.724 353.469C161.494 353.616 161.295 353.806 161.139 354.03C160.983 354.253 160.872 354.506 160.813 354.772C160.754 355.038 160.748 355.314 160.796 355.582C160.844 355.851 160.944 356.108 161.091 356.338L164.261 361.296L164.277 361.319Z" fill="#00A6A0"/>
</g>
<g id="circle_a">
<path id="Vector_21" d="M343.655 61.8574C348.165 61.8574 352.489 63.6478 355.678 66.8348C358.866 70.0218 360.657 74.3444 360.657 78.8515C360.657 83.3586 358.866 87.6811 355.678 90.8682C352.489 94.0552 348.165 95.8457 343.656 95.8457H343.655C339.146 95.8457 334.822 94.0552 331.633 90.8682C328.445 87.6812 326.654 83.3587 326.654 78.8515C326.654 74.3444 328.445 70.0219 331.633 66.8349C334.822 63.6479 339.146 61.8574 343.655 61.8574Z" fill="#00A6A0"/>
</g>
<g id="tick_mark_a">
<path id="Vector_22" d="M341.522 85.9092C341.074 85.9099 340.638 85.7652 340.28 85.4968L340.258 85.4802L335.583 81.9052C335.366 81.7393 335.184 81.5324 335.047 81.2962C334.911 81.06 334.822 80.7993 334.786 80.5288C334.75 80.2584 334.768 79.9835 334.839 79.72C334.909 79.4564 335.031 79.2094 335.197 78.9929C335.363 78.7764 335.57 78.5947 335.807 78.4582C336.043 78.3217 336.304 78.2331 336.574 78.1974C336.845 78.1618 337.12 78.1797 337.384 78.2503C337.647 78.3209 337.894 78.4427 338.111 78.6088L341.139 80.9301L348.296 71.5981C348.462 71.3817 348.669 71.2001 348.905 71.0637C349.141 70.9273 349.402 70.8387 349.672 70.803C349.943 70.7673 350.217 70.7852 350.481 70.8557C350.744 70.9261 350.991 71.0477 351.208 71.2136V71.2141L351.164 71.2757L351.21 71.2141C351.646 71.5495 351.932 72.0445 352.004 72.5902C352.076 73.136 351.928 73.6881 351.594 74.1252L343.176 85.0968C342.982 85.3496 342.731 85.5542 342.445 85.6946C342.158 85.8351 341.843 85.9077 341.524 85.9067L341.522 85.9092Z" fill="white"/>
</g>
<path id="circle_b" d="M343.656 123.793C348.165 123.793 352.489 125.583 355.678 128.77C358.866 131.957 360.658 136.28 360.658 140.787C360.658 145.294 358.866 149.617 355.678 152.804C352.489 155.991 348.165 157.781 343.656 157.781C339.146 157.781 334.822 155.991 331.633 152.804C328.445 149.617 326.654 145.294 326.654 140.787C326.654 136.28 328.445 131.957 331.633 128.77C334.822 125.583 339.146 123.793 343.656 123.793Z" fill="#00A6A0"/>
<g id="tick_mark_b">
<path id="Vector_23" d="M341.522 147.845C341.074 147.846 340.639 147.701 340.28 147.433L340.258 147.416L335.583 143.841C335.366 143.675 335.184 143.468 335.048 143.232C334.911 142.996 334.822 142.735 334.786 142.465C334.751 142.194 334.768 141.92 334.839 141.656C334.909 141.392 335.031 141.145 335.197 140.929C335.363 140.712 335.57 140.531 335.807 140.394C336.043 140.258 336.304 140.169 336.575 140.133C336.845 140.098 337.12 140.116 337.384 140.186C337.647 140.257 337.895 140.379 338.111 140.545L341.14 142.866L348.296 133.534C348.462 133.318 348.669 133.136 348.905 133C349.141 132.863 349.402 132.775 349.672 132.739C349.943 132.703 350.217 132.721 350.481 132.792C350.744 132.862 350.991 132.984 351.208 133.15L351.164 133.212L351.21 133.15C351.646 133.486 351.932 133.98 352.004 134.526C352.076 135.072 351.929 135.624 351.594 136.061L343.176 147.033C342.982 147.286 342.731 147.49 342.445 147.631C342.158 147.771 341.843 147.844 341.524 147.843L341.522 147.845Z" fill="white"/>
</g>
</g>
</g>
</g>

    <script href="https://cdnjs.cloudflare.com/ajax/libs/gsap/3.6.0/gsap.min.js"></script>
    <script type="application/ecmascript">

    <![CDATA[

    var tl = gsap.timeline(
        {
            repeat: -1,
            repeatDelay: 3,
            onStart: function(){
                gsap.set("#circle_a", {opacity:0, color:"#C7C9C7" });
                gsap.set("#circle_b", {opacity:0, color:"#C7C9C7" });
            }
        });

    var t2 = gsap.timeline(
        {
            repeat: -1,
            repeatDelay: 3,
            onStart: function(){
                gsap.set("#tick_mark_a", {opacity:0});
                gsap.set("#tick_mark_b", {opacity:0});
            }
        });

    var t3 = gsap.timeline(
        {
            repeat: -1,
            repeatDelay: 0
        });

    tl.add(
            gsap.fromTo(
                        "#circle_a",
                                {
                                    opacity:0,
                                    color:"#C7C9C7"                                                                   
                                },
                                {
                                    opacity:1,
                                    color:"#00A6A0",
                                    delay: 0,
                                    duration: 1.5
                                }
                        )
            );

    tl.add(
            gsap.fromTo(
                        "#circle_b",
                                {
                                    opacity:0,
                                    color:"#C7C9C7"                                                                   
                                },
                                {
                                    opacity:1,
                                    color:"#00A6A0",
                                    delay: 0,
                                    duration: 1.5
                                }
                        )
            );

    tl.add(
            gsap.fromTo(
                        "#circle_b",
                                {
                                    opacity:1,
                                    color:"#00A6A0"                                                                   
                                },
                                {
                                    opacity:0,
                                    color:"#C7C9C7",
                                    delay: 1,
                                    duration: 1.5
                                }
                        )
            );

    tl.add(
            gsap.fromTo(
                        "#circle_a",
                                {
                                    opacity:1,
                                    color:"#00A6A0"                                                                   
                                },
                                {
                                    opacity:0,
                                    color:"#C7C9C7",
                                    delay: 0,
                                    duration: 1.5
                                }
                        )
            );

    t2.add(
            gsap.fromTo(
                        "#tick_mark_a",
                                {
                                    rotation:-20,
                                    opacity: 0,
                                    transformOrigin:"center center"
                                },
                                {
                                    duration: 1.5,
                                    rotation:0,
                                    opacity: 1,
                                    transformOrigin:"center center",
                                    delay: 0,
                                    ease:Linear.easeNone                        
                                }
                        )
            );

    t2.add(
            gsap.fromTo(
                        "#tick_mark_b",
                                {
                                    rotation:-20,
                                    opacity: 0,
                                    transformOrigin:"center center"
                                },
                                {
                                    duration: 1.5,
                                    rotation:0,
                                    opacity: 1,
                                    transformOrigin:"center center",
                                    delay: 0,
                                    ease:Linear.easeNone                        
                                }
                        )
            );

    t2.add(
            gsap.fromTo(
                        "#tick_mark_b",
                                {
                                    rotation:0,
                                    opacity: 1,
                                    transformOrigin:"center center"
                                },
                                {
                                    duration: 1.5,
                                    rotation:-20,
                                    opacity: 0,
                                    transformOrigin:"center center",
                                    delay: 1,
                                    ease:Linear.easeNone                        
                                }
                        )
            );

    t2.add(
            gsap.fromTo(
                        "#tick_mark_a",
                                {
                                    rotation:0,
                                    opacity: 1,
                                    transformOrigin:"center center"
                                },
                                {
                                    duration: 1.5,
                                    rotation:-20,
                                    opacity: 0,
                                    transformOrigin:"center center",
                                    delay: 0,
                                    ease:Linear.easeNone                        
                                }
                        )
            );

    t3.add(
            gsap.fromTo(
                        "#circle_c",
                                {
                                    rotate:0,
                                    translateX:0
                                },
                                {
                                    rotate:-40,
                                    duration:2,
                                    translateX:-10,
                                    transformOrigin:"center center",
                                    ease:Power0.easeNone
                                }
                        )
            );

    t3.add(
            gsap.fromTo(
                        "#circle_c",
                                {
                                    rotate:-40,
                                    translateX:-10
                                },
                                {
                                    delay:3,
                                    rotate:0,
                                    duration:2,
                                    translateX:0,
                                    transformOrigin:"center center",
                                    ease:Power0.easeNone
                                }
                        )
            );
        ]]>
    </script>

</svg>
